<svg width="462" height="540" fill="none" xmlns="http://www.w3.org/2000/svg"><path d="M121.221 126.225a7.932 7.932 0 00-4.009-2.889c-4.275-1.394-8.918 1.147-10.247 5.45l-.103.328-3.17 10.267c-.287.901-1.412 1.168-2.046.491l-18.409-19.118a5.814 5.814 0 00-7.854-.492c-2.496 1.987-2.844 5.655-.92 8.196l26.099 34.283a8.014 8.014 0 003.989 2.807c4.254 1.332 8.857-1.209 10.186-5.471l.103-.307 3.109-10.062a1.22 1.22 0 012.066-.471l16.936 18.012c2.005 2.131 5.318 2.48 7.711.697a5.842 5.842 0 001.228-8.176l-24.669-33.545zM350.453 43.622l-.327-.062-3.989-.778a1.228 1.228 0 01-.716-1.988l8.366-10.082a4.705 4.705 0 00-.225-6.25c-1.759-1.823-4.663-1.864-6.566-.184l-19.963 17.848a6.308 6.308 0 00-2.025 3.586c-.655 3.484 1.718 6.844 5.195 7.52l.348.062 4.152.82c.9.184 1.309 1.27.716 1.987l-9.02 11.107a4.68 4.68 0 00.184 6.127 4.657 4.657 0 006.606.266l20.496-18.934a6.537 6.537 0 001.964-3.586c.634-3.463-1.739-6.783-5.196-7.459z" fill="#fff"/><path d="M122.944 208.668l-59.482-21.394a8.011 8.011 0 00-4.91-.184c-4.336 1.189-6.852 5.861-5.665 10.205l.04.164 6.485 23.524c.245.902-.573 1.762-1.493 1.517l-47.21-12.254c-2.925-.759-5.993.86-6.975 3.77-1.043 3.053.594 6.373 3.641 7.418l62.08 21.27a8.176 8.176 0 004.868.123c4.337-1.229 6.791-5.819 5.605-10.184l-.041-.164-6.423-23.299a1.236 1.236 0 011.514-1.516l44.489 12.131c2.904.778 5.993-.779 7.016-3.668a5.83 5.83 0 00-3.539-7.459zM457.803 306.089l-42.729-14.857c-.9-.307-1.125-1.475-.41-2.09l16.732-14.59.266-.225a8.08 8.08 0 002.557-4.221 8.155 8.155 0 00-5.993-9.857l-58.071-14.119c-2.905-.696-5.952.943-6.914 3.832-1.022 3.054.634 6.373 3.682 7.398l40.5 13.524c.9.308 1.125 1.476.41 2.09l-16.548 14.447-.246.225a8.1 8.1 0 00-2.536 4.119c-1.125 4.365 1.493 8.812 5.85 9.939l60.055 15.573c2.904.738 5.973-.84 6.975-3.75 1.064-3.053-.552-6.393-3.58-7.438zM42.043 89.772c.163.615.92.82 1.37.39l18.43-17.91c.45-.43.266-1.21-.348-1.373L36.806 63.85a.822.822 0 00-1.022.984l6.259 24.938zM461.014 167.654l-24.765-23.159c-.364-.34-.933-.146-1.044.34l-7.216 33.524c-.11.486.349.907.807.761l31.98-10.381c.475-.13.602-.745.238-1.085z" fill="#65BD7D"/><path d="M121.084 314.431l-45.655 13.237a8.064 8.064 0 00-4.09 2.746c-2.803 3.525-2.067 8.771 1.492 11.537l.225.164 11.394 8.893a1.234 1.234 0 01-.287 2.111l-30.089 12.684c-2.72 1.148-4.193 4.221-3.313 7.09a5.824 5.824 0 007.282 3.873l47.168-14.487a8.025 8.025 0 004.009-2.767c2.741-3.524 1.984-8.75-1.534-11.496l-.204-.164-11.23-8.77c-.736-.574-.573-1.742.286-2.111l28.33-11.557c2.72-1.127 4.234-4.139 3.395-7.049-.838-3.053-4.09-4.836-7.179-3.934zM414.814 67.288l-42.443 9.632a8.207 8.207 0 00-4.255 2.5c-2.986 3.36-2.536 8.626.839 11.598l.246.205 9.061 7.91a1.242 1.242 0 01-.389 2.09l-26.918 9.815c-2.741 1.004-4.377 3.955-3.682 6.885.757 3.135 3.927 5.062 7.057 4.303l44.018-10.737a8.136 8.136 0 004.173-2.541c2.946-3.361 2.475-8.607-.9-11.537l-.225-.205-8.898-7.766c-.716-.615-.491-1.783.409-2.09l25.241-8.873c2.803-.984 4.48-3.976 3.723-6.947-.777-3.094-3.948-4.938-7.057-4.242zM401.661 381.786l-15.852-13.258c-.716-.594-.532-1.762.348-2.09l7.445-2.869.491-.185a7.816 7.816 0 003.805-3.073c2.475-3.73 1.309-8.853-2.434-11.291l-32.421-21.209c-2.393-1.578-5.625-1.168-7.568 1.025-2.168 2.459-1.821 6.291.675 8.401l16.875 14.447a1.236 1.236 0 01-.348 2.09l-7.629 2.951-.512.205a8.043 8.043 0 00-3.907 3.217 8.05 8.05 0 002.516 11.106l31.685 20c2.434 1.537 5.706 1.086 7.588-1.209a5.88 5.88 0 00-.757-8.258zM160.704.122L103.185 35.04c-.531.328-.531 1.106.021 1.414l58.95 32.438a.812.812 0 001.207-.738L161.931.798c0-.635-.695-1.004-1.227-.676zM91.012 285.572l24.751 4.385a.83.83 0 00.92-1.086l-8.571-23.668c-.225-.594-.981-.737-1.39-.246l-16.18 19.283c-.41.471-.143 1.23.47 1.332z" fill="#65BC7B"/><path d="M210.201 351.834a29.408 29.408 0 002.455 2.848c.879.902 1.8 1.742 2.782 2.5.981.779 2.004 1.496 3.129 2.09.675.349 1.514.328 2.168-.163a2.04 2.04 0 00.45-2.869l-.02-.041c-.716-.984-1.493-1.865-2.291-2.746a95.814 95.814 0 00-2.414-2.541c-.818-.84-1.657-1.639-2.495-2.459-.839-.799-1.718-1.619-2.598-2.316l-.123-.102c-.593-.471-1.411-.574-2.147-.226a2.045 2.045 0 00-.941 2.726c.593 1.25 1.288 2.274 2.045 3.299zM262.423 312.609c.327.307.695.573 1.043.86a27.848 27.848 0 002.168 1.558 29.511 29.511 0 004.705 2.479c.818.369 1.677.635 2.516.943.879.225 1.718.512 2.618.656 1.759.409 3.58.532 5.4.594 3.641-.021 7.262-.738 10.555-2.131a28.873 28.873 0 004.725-2.48 31.934 31.934 0 002.147-1.557 44.07 44.07 0 001.023-.861c.348-.307.634-.594 1.023-.983a1.986 1.986 0 00.225-2.521 1.98 1.98 0 00-2.761-.533l-.164.123c-.246.164-.573.39-.88.595-.306.204-.634.409-.961.594a38.37 38.37 0 01-2.005 1.106 32.332 32.332 0 01-4.172 1.783c-.716.267-1.432.451-2.148.676-.736.164-1.452.369-2.189.472-1.452.307-2.925.368-4.397.43a26.35 26.35 0 01-8.755-1.537 30.078 30.078 0 01-4.193-1.803 38.387 38.387 0 01-2.005-1.107c-.327-.205-.654-.41-.961-.614-.307-.205-.655-.431-.88-.595l-.163-.102a1.988 1.988 0 00-2.557.225 2.007 2.007 0 000 2.828c.388.307.695.594 1.043.902zM187.025 444.718c-1.064-.86-2.168-1.619-3.273-2.336a115.28 115.28 0 00-3.334-2.111c-1.125-.676-2.25-1.352-3.416-2.008-1.145-.655-2.311-1.291-3.538-1.864h-.021c-.716-.328-1.616-.226-2.229.348a2.043 2.043 0 00-.103 2.889 27.015 27.015 0 003.109 2.808c1.105.86 2.25 1.639 3.416 2.377a37.411 37.411 0 003.662 1.987c1.268.595 2.556 1.107 3.906 1.476a2.003 2.003 0 002.107-.697 2.009 2.009 0 00-.286-2.869zM285.127 432.566c-5.584 5.451-11.925 9.979-18.839 13.422a72.052 72.052 0 01-10.759 4.324 78.339 78.339 0 01-11.312 2.684 87.91 87.91 0 01-11.597 1.148 89.013 89.013 0 01-11.68-.328c-7.773-.717-15.464-2.316-23.032-4.467a2.016 2.016 0 00-2.393 1.147 1.996 1.996 0 001.063 2.623c7.548 3.217 15.648 5.205 23.851 6.066 8.202.881 16.547.696 24.729-.656a88.075 88.075 0 0012.089-2.951 78.406 78.406 0 0011.495-4.815c7.385-3.832 14.135-9.037 19.371-15.513a2.007 2.007 0 00-.123-2.663c-.797-.779-2.066-.8-2.863-.021z" fill="#323A45"/><path d="M414.829 461.383c-5.563-2.274-11.659-3.258-17.693-2.951-3.027.164-6.054.595-9.02 1.373l-.082.021c-2.066.553-4.214-.697-4.807-2.767-9.634-33.688-34.773-51.926-96.71-70.923a6.19 6.19 0 01-4.377-5.901 6.209 6.209 0 014.459-5.943l.716-.205c1.043-.307 2.046-.738 3.068-1.106l1.514-.574 1.493-.676c3.968-1.763 7.814-3.955 11.291-6.64 6.996-5.328 12.641-12.357 16.528-20.103.49-.963 1.002-1.926 1.411-2.93.429-.984.9-1.967 1.289-2.971l1.165-3.033c.389-1.004.696-2.029 1.044-3.053.716-2.029 1.207-4.119 1.8-6.189l.716-3.115.368-1.557.307-1.578c1.636-8.381 2.495-16.824 2.843-25.267.675-16.885-.43-33.689-2.127-50.369a2.665 2.665 0 00-2.639-2.398H191.056a18.37 18.37 0 01-7.384-1.557l-.573-.246c-.614-.287-1.187-.615-1.821-.84l-1.882-.697c-2.556-.799-5.236-1.332-7.977-1.332-2.72 0-5.42.41-8.018 1.209-2.577.82-5.011 2.049-7.241 3.566-4.459 3.012-8.039 7.315-10.084 12.397-2.005 5.082-2.496 10.492-1.841 15.759.675 5.246 2.577 10.389 5.768 14.733a26.972 26.972 0 005.687 5.738l.04.041a11.102 11.102 0 014.541 8.976v73.423a7.75 7.75 0 01-5.543 7.418 3269.114 3269.114 0 01-13.97 4.057c-51.935 14.98-90.349 26.066-103.562 58.854-.614 1.516-2.393 2.151-3.805 1.352-4.111-2.316-8.632-3.791-13.213-4.508A41.848 41.848 0 001.4 442.305c-1.268.41-1.902 1.988-.92 3.238.45.574 1.247.799 1.963.635 5.584-1.25 11.353-1.373 16.875-.307 5.523 1.065 10.74 3.361 15.055 6.783a30.017 30.017 0 019.634 13.115c.962 2.602 1.596 5.348 1.923 8.155l.061.8a2.582 2.582 0 00-.163 1.844c.081.266.204.512.347.738a54.88 54.88 0 01-.061 5.184v.041a2.002 2.002 0 001.861 2.111c1.044.082 1.964-.738 2.128-1.783.102-.615.184-1.209.245-1.824.205-1.844 1.616-3.32 3.457-3.545 7.65-.963 14.666 2.029 18.266 3.955a3.38 3.38 0 011.616 4.098c-.164.451-.287.861-.389 1.209-.982 3.156-1.35 6.455-1.248 9.673.041 1.27 1.269 2.274 2.66 1.844.777-.246 1.309-.984 1.35-1.803v-.041a27.664 27.664 0 011.636-8.197 24.03 24.03 0 014.132-7.07c1.759-2.09 3.886-3.873 6.218-5.307 2.332-1.435 4.91-2.48 7.548-3.218 5.298-1.434 11.045-1.393 16.179.492 5.175 1.824 9.573 5.533 12.58 10.328l.02.021c.573.922 1.8 1.209 2.741.635.921-.574 1.146-1.803.655-2.746a28.518 28.518 0 00-5.809-7.664 27.403 27.403 0 00-11.925-6.516c-1.984-.513-3.191-2.562-2.578-4.509a24.068 24.068 0 012.148-4.938c1.964-3.443 4.684-6.476 7.916-8.873 3.232-2.398 6.934-4.181 10.821-5.267a32.77 32.77 0 015.952-1.086l1.514-.102c.511 0 1.002-.041 1.513-.041l1.534.02 1.534.082c4.091.287 8.121 1.209 11.844 2.787 3.702 1.598 7.077 3.894 9.777 6.844 2.741 2.91 4.766 6.455 6.095 10.287.185.533.369 1.086.532 1.619-.061.39-.041.799.103 1.189.102.307.245.553.429.799.655 2.787 1.002 5.676 1.166 8.586v.021a2 2 0 002.066 1.885c1.043-.041 1.882-.922 1.943-1.967.062-1.107 0-2.992-.082-4.693-.102-2.131 1.432-3.955 3.519-4.283 3.415-.512 6.872-.492 10.247.123a28.566 28.566 0 017.528 2.521 27.524 27.524 0 016.525 4.508 26.032 26.032 0 014.868 6.209 25.918 25.918 0 012.7 7.398c.511 2.602.614 5.266.307 7.951-.307 2.664-.982 5.327-1.964 7.909v.021a2.004 2.004 0 001.125 2.582c.961.389 2.086-.082 2.557-1.004a31.041 31.041 0 002.904-8.484c.532-2.869 2.639-5.184 5.421-6.045a30.748 30.748 0 016.545-1.25c4.296-.307 8.694.184 12.785 1.537 4.091 1.373 7.936 3.504 10.963 6.496.246.246.491.492.737.758a2.687 2.687 0 001.247 1.435 22.471 22.471 0 014.275 8.729v.021a1.98 1.98 0 002.373 1.475c1.043-.225 1.677-1.291 1.534-2.357a23.755 23.755 0 00-2.209-7.213c-.061-.143-.143-.266-.204-.41a9.97 9.97 0 01-.532-7.95c4.418-12.275 17.427-19.57 29.536-20.574 13.725-1.148 29.496 5.327 35.346 19.733a5.382 5.382 0 01-1.33 5.964l-.02.02a28.082 28.082 0 00-6.034 7.971c-1.534 2.992-2.414 6.271-2.762 9.55-.122 1.27.962 2.438 2.394 2.172.818-.144 1.431-.82 1.554-1.639v-.021a24.49 24.49 0 012.823-7.93c1.391-2.439 3.232-4.57 5.339-6.414 4.254-3.668 9.675-5.923 15.259-6.927 5.584-1.024 11.475-.819 16.936.84.839.246 1.657.554 2.475.861a2.86 2.86 0 001.268.697c.185.041.348.061.512.061 3.804 1.742 7.282 4.222 10.145 7.337l.021.02a2.003 2.003 0 002.843.102c.777-.717.798-1.967.143-2.786-2.025-2.521-4.418-4.796-7.098-6.64l-.02-.02a4.733 4.733 0 01-1.78-5.513c1.207-3.279 2.844-6.393 4.93-9.16 1.575-2.131 3.436-4.057 5.461-5.778a35.313 35.313 0 016.628-4.447 38.96 38.96 0 017.466-2.931c2.597-.717 5.256-1.229 7.936-1.434 5.38-.43 10.861.102 16.098 1.66h.02a2 2 0 002.475-1.332 2.124 2.124 0 00-1.248-2.562zM154.544 282.139c-2.516-3.504-4.07-7.746-4.582-12.131-.532-4.365-.082-8.894 1.493-12.849 3.15-7.868 11.394-13.873 19.944-13.811 2.127-.041 4.254.369 6.3.983l1.534.533c.511.185.982.451 1.493.676 1.002.41 1.923 1.046 2.864 1.599.47.266.9.635 1.35.963.429.328.92.635 1.329.984a26.428 26.428 0 012.373 2.192c.757.779 1.473 1.64 2.168 2.5.327.451.696.881 1.002 1.332.328.431.655.943.921 1.332l.102.164a2.004 2.004 0 002.393.738c1.003-.41 1.473-1.598 1.105-2.623a17.94 17.94 0 00-.716-1.783v-.02c-1.125-2.316.552-5 3.13-5l84.661-.082a9.201 9.201 0 018.857 6.741c.818 2.89 1.616 5.779 2.455 8.648 1.677 5.758 3.293 11.537 5.011 17.275l.164.533c.041.164.123.389.143.492.041.266.143.512.164.778.02.267.081.513.081.779l.021.389-.041.39a6.234 6.234 0 01-1.023 2.971c-.572.881-1.35 1.66-2.291 2.172-.47.246-.961.471-1.472.594l-.389.103a3.034 3.034 0 01-.532.102l-1.104.226c-5.871 1.209-11.721 2.5-17.51 4.119a2.018 2.018 0 00-1.39 2.479c.265.963 1.247 1.558 2.25 1.435 5.931-.677 11.802-1.701 17.672-2.787l1.105-.205c.204-.041.348-.062.573-.123l.695-.164c.941-.226 1.841-.615 2.68-1.066 1.697-.922 3.15-2.295 4.213-3.914 1.084-1.598 1.739-3.483 1.944-5.43l.061-.738v-.737c.02-.492-.062-.964-.123-1.455-.041-.492-.184-.943-.286-1.435-.062-.266-.102-.389-.164-.594l-.143-.533c-.655-2.316-2.23-7.787-3.907-13.504-2.577-8.812 4.009-17.623 13.173-17.623h7.548c1.718 0 3.17 1.311 3.313 3.032 1.289 14.714 1.944 29.468 1.309 44.14-.347 8.238-1.186 16.414-2.761 24.406l-.286 1.496-.348 1.496-.696 2.972c-.572 1.946-1.022 3.934-1.697 5.819-.328.963-.593 1.927-.982 2.869l-1.084 2.828c-.368.943-.798 1.844-1.207 2.746-.389.922-.859 1.803-1.309 2.705-3.58 7.152-8.611 13.463-14.871 18.258-3.109 2.418-6.545 4.406-10.186 6.046l-1.35.614-1.391.533c-.941.348-1.841.758-2.802 1.025l-2.864.922-2.904.758c-7.773 1.906-15.873 2.439-23.769 1.312-7.916-1.127-15.463-3.894-22.868-7.214h-.021a2.002 2.002 0 00-2.597.902c-.471.902-.143 2.049.716 2.643 3.538 2.398 7.384 4.345 11.413 5.841 4.05 1.496 8.305 2.541 12.58 3.176a64.96 64.96 0 007.711.656c7.794.184 13.766 7.029 12.662 14.754-.062.471-.123.82-.205 1.066-5.073 18.197-20.823 30.881-41.87 33.053-19.964 2.07-43.364-5.717-58.194-26.414-6.423-8.975-9.777-19.795-9.777-30.841v-63.504c0-5.021 3.825-9.201 8.816-9.611h.041c1.288-.041 2.536-.267 3.804-.451a1.99 1.99 0 001.698-2.172c-.102-1.025-1.002-1.783-2.025-1.803h-.082c-1.166-.021-2.311.041-3.436-.041-1.146-.021-2.271-.185-3.375-.287a29.106 29.106 0 01-6.403-1.64c-3.968-1.537-7.486-4.18-10.002-7.705zm221.258 183.035a45.234 45.234 0 00-3.948 2.869 38.694 38.694 0 00-6.341 6.722c-2.291 3.053-4.07 6.475-5.379 10.041-.778 2.131-3.068 3.299-5.257 2.725-1.35-.348-2.741-.676-3.682-.82-4.152-.614-8.407-.573-12.559.185a36.71 36.71 0 00-6.852 1.926 3.735 3.735 0 01-4.766-2.008c-7.016-16.332-24.853-23.648-40.439-22.357-13.214 1.107-27.368 8.812-33.219 21.865-.859 1.926-3.211 2.664-4.97 1.517a33.13 33.13 0 00-7.364-3.587c-4.786-1.659-9.9-2.336-14.952-1.926a34.74 34.74 0 00-6.934 1.271c-2.312.676-4.766-.513-5.523-2.808a29.295 29.295 0 00-1.984-4.59 30.98 30.98 0 00-5.809-7.602 33.025 33.025 0 00-7.793-5.533c-2.844-1.435-5.912-2.439-9.021-3.013-3.313-.614-8.714-.225-12.354.144a5.407 5.407 0 01-5.441-3.033c-1.371-2.869-3.396-6.762-5.278-8.853-3.211-3.565-7.22-6.332-11.536-8.237-4.337-1.906-8.959-2.972-13.582-3.341l-1.739-.102-1.738-.041c-.593 0-1.187.02-1.78.02l-1.779.103a38.13 38.13 0 00-6.955 1.27 38.757 38.757 0 00-12.661 6.189c-3.805 2.828-7.057 6.475-9.369 10.676a30.428 30.428 0 00-2.966 7.664 4.93 4.93 0 01-4.131 3.771c-1.207.164-2.394.41-3.56.738-3.19.84-6.238 2.233-9.02 4.057-1.39.902-3.273 2.664-4.807 4.221-1.595 1.619-4.09 1.927-6.054.759-5.81-3.443-12.723-4.877-19.944-4.16-2.045.205-3.886-1.168-4.234-3.197l-.02-.102c-.164-.779-.328-1.578-.532-2.357-.225-.779-.43-1.557-.675-2.316-1.289-4.016-3.396-7.787-6.136-11.045-1.35-1.619-1.76-3.832-1.003-5.799 11.025-29.078 44.182-40.513 89.714-53.792 1.944-.574 3.989.451 4.766 2.336.266.677.553 1.332.839 1.988a106.951 106.951 0 003.334 6.885 88.089 88.089 0 003.886 6.578 83.08 83.08 0 004.439 6.189c.757.963 2.291 1.065 3.171-.041.511-.635.531-1.557.102-2.254a140.49 140.49 0 01-3.621-6.332 120.207 120.207 0 01-3.211-6.517c-1.023-2.192-1.923-4.446-2.802-6.701-.205-.553-.471-1.291-.737-2.028-.532-1.496.307-3.156 1.841-3.586 5.012-1.455 10.166-2.931 15.423-4.488 1.35-.39 2.782.287 3.293 1.598 6.034 15.021 15.996 27.091 29.046 35.103 10.902 6.68 23.502 10.226 36.102 10.226 2.271 0 4.562-.123 6.812-.349 23.625-2.438 41.216-16.906 46.657-37.623.572-2.213 2.863-3.525 5.052-2.849 4.07 1.25 7.977 2.5 11.721 3.75 1.615.533 2.638 2.152 2.393 3.832-.103.738-.205 1.476-.328 2.214-.368 2.151-.777 4.303-1.309 6.414-.531 2.11-1.104 4.221-1.82 6.291-.675 2.09-1.452 4.119-2.291 6.168v.02c-.389.963 0 2.091.982 2.582.92.451 2.066.062 2.598-.819 1.227-1.968 2.29-4.037 3.252-6.148.941-2.152 1.8-4.344 2.495-6.598.696-2.255 1.33-4.529 1.8-6.824v-.041c.45-2.152 2.721-3.422 4.787-2.644 41.85 15.595 60.382 32.173 68.073 59.099.695 2.48-.246 5.103-2.373 6.455zM295.844 520.785a20.242 20.242 0 00-5.727-2.521c-4.091-1.106-8.551-.778-12.478.718-3.948 1.475-7.404 4.077-9.941 7.397-2.557 3.299-4.091 7.397-4.275 11.537a1.992 1.992 0 001.616 2.049c1.084.205 2.127-.512 2.352-1.598v-.021c.634-3.279 2.148-6.311 4.255-8.791a19.33 19.33 0 017.875-5.594 16.922 16.922 0 019.45-.82c3.15.636 6.116 2.254 8.734 4.447l.021.021c.756.635 1.881.635 2.618-.042.818-.737.9-2.008.163-2.827a23.506 23.506 0 00-4.663-3.955z" fill="#323A45"/><path d="M177.924 516.574a28.464 28.464 0 00-4.479-7.275c-1.861-2.193-4.112-4.078-6.566-5.574a28.835 28.835 0 00-7.916-3.319 31.067 31.067 0 00-16.875.45c-5.421 1.66-10.391 4.918-13.909 9.345a2.013 2.013 0 00.163 2.684 1.98 1.98 0 002.823-.041c3.375-3.484 7.691-5.922 12.314-7.172 4.623-1.23 9.552-1.291 14.154-.102 4.582 1.168 8.816 3.627 12.007 7.11 3.212 3.484 5.359 7.93 6.525 12.725v.021a1.99 1.99 0 002.209 1.496 1.995 1.995 0 001.719-2.254 31.599 31.599 0 00-2.169-8.094zM77.413 514.027c-3.743-1.64-7.855-2.193-11.843-1.845a27.324 27.324 0 00-9.062 2.459 22.623 22.623 0 00-1.636-2.561c-3.805-5.287-9.655-8.893-15.893-10.328-6.26-1.455-13.01-.758-18.798 2.111a26.473 26.473 0 00-7.67 5.758 28.13 28.13 0 00-5.073 7.992 2.01 2.01 0 00.9 2.541c.981.512 2.188.143 2.7-.82v-.02c2.577-4.816 6.504-8.709 11.29-10.861 4.766-2.172 10.29-2.684 15.444-1.516 5.134 1.168 9.88 4.016 13.09 8.155a20.457 20.457 0 012.005 3.095c0 .491.123.983.41 1.413.143.226.327.431.531.595 1.248 3.053 1.862 6.414 1.882 9.836v.02a1.997 1.997 0 003.989.123 29.32 29.32 0 00-.778-9.406 15.35 15.35 0 00-.368-1.291c2.332-1.209 4.889-2.028 7.507-2.336 3.232-.389 6.566-.041 9.532 1.168 2.966 1.189 5.543 3.238 7.261 5.923 1.719 2.684 2.557 5.963 2.68 9.323v.021a2.008 2.008 0 002.004 1.926 1.992 1.992 0 001.985-2.008c-.02-3.894-.88-7.992-2.987-11.517-2.045-3.524-5.359-6.331-9.102-7.95zM411.023 508.799a21.475 21.475 0 00-5.38-3.381c-3.948-1.742-8.448-2.111-12.641-1.271a23.908 23.908 0 00-11.291 5.758 23.37 23.37 0 00-4.091 4.98 22.503 22.503 0 00-2.107 4.631 20.562 20.562 0 00-3.886.307c-4.234.738-8.203 2.664-11.353 5.492-3.17 2.807-5.522 6.578-6.525 10.676-.225.963.266 1.967 1.207 2.336 1.023.41 2.189-.102 2.598-1.147v-.021c1.248-3.197 3.334-5.943 5.952-8.053 2.618-2.09 5.748-3.525 9.021-4.078 3.252-.553 6.627-.225 9.634 1.045 3.027 1.271 5.707 3.443 7.916 6.168l.02.021a2.002 2.002 0 002.578.45c.961-.553 1.268-1.803.716-2.746-1.044-1.762-2.373-3.401-3.887-4.877a20.422 20.422 0 00-5.257-3.627c-1.043-.512-2.147-.901-3.272-1.229a18.408 18.408 0 014.438-6.311c2.414-2.255 5.441-3.894 8.673-4.611 3.211-.779 6.627-.594 9.716.553 3.109 1.127 5.87 3.279 8.121 5.943l.02.041c.655.778 1.8.942 2.659.348.921-.615 1.146-1.865.511-2.787a24.115 24.115 0 00-4.09-4.61z" fill="#323A45"/><path d="M197.769 111.297c0-24.16 19.616-43.812 43.732-43.812 19.207 0 36.45 12.869 41.911 31.291.205.656.512 2.008.859 4.672a6.81 6.81 0 01-1.636 5.389 6.642 6.642 0 01-5.073 2.296c-3.354 0-6.177-2.398-6.668-5.718-.47-3.053-1.145-5.676-2.004-7.787-4.296-10.573-15.301-17.684-27.389-17.684-16.569-.02-30.13 14.119-30.13 30.717v8.177c0 3.77-3.048 6.823-6.811 6.823a6.815 6.815 0 01-6.812-6.823v-7.541h.021zm-24.566 47.131c0-1.107.9-2.008 2.004-2.008h132.587a2.01 2.01 0 012.005 2.008v10.307a2.01 2.01 0 01-2.005 2.008h-54.409a2.656 2.656 0 00-2.659 2.664v36.578a2.656 2.656 0 002.659 2.664h14.911a2.656 2.656 0 002.659-2.664v-12.192a2.01 2.01 0 012.005-2.008h4.664a2.01 2.01 0 012.004 2.008v5.492a2.657 2.657 0 002.659 2.664h14.891a2.656 2.656 0 002.659-2.664v-5.492c0-1.107.9-2.008 2.005-2.008h5.952a2.01 2.01 0 012.005 2.008v26.127c0 .738-.593 1.332-1.33 1.332H174.553c-.737 0-1.33-.594-1.33-1.332v-65.492h-.02z" fill="#fff"/><path d="M167.882 223.961c0 3.689 2.986 6.681 6.668 6.681h133.917c3.682 0 6.668-2.992 6.668-6.681v-23.853a4.277 4.277 0 014.275-4.282c1.677 0 3.211.963 3.886 2.5 5.769 13.176 18.982 22.029 33.607 22.029 21.191 0 38.23-18.095 36.573-39.653-1.391-17.91-15.77-32.336-33.648-33.709-15.709-1.209-29.904 7.439-36.225 21.209-.716 1.558-2.291 2.541-4.009 2.541a4.439 4.439 0 01-4.439-4.446v-33.956c0-3.688-2.986-6.68-6.668-6.68h-89.734a2.01 2.01 0 01-2.005-2.008v-13.136c0-13.688 11.168-25.287 24.832-25.266 9.921.02 18.921 5.799 22.418 14.364.696 1.722 1.268 3.955 1.678 6.578.9 5.943 5.931 10.246 11.945 10.246 3.477 0 6.771-1.496 9.062-4.119 2.311-2.623 3.354-6.127 2.904-9.61-.327-2.459-.654-4.263-1.023-5.513-2.945-9.938-9.143-18.873-17.447-25.164-8.51-6.455-18.635-9.877-29.312-9.939-27.143-.143-49.337 22.624-49.337 49.817v11.701a2.01 2.01 0 01-2.004 2.008h-15.893c-3.682 0-6.669 2.992-6.669 6.68v91.661h-.02zm156.519-47.89c.041 0 .082 0 .123-.02.102 0 .184-.021.286-.021.082-.02.164-.02.245-.041.082-.02.164-.041.246-.082a1.76 1.76 0 00.45-.225c.082-.041.143-.103.225-.144.061-.041.123-.102.184-.163l.184-.185c.062-.061.102-.123.164-.205a.847.847 0 00.143-.225c.041-.062.082-.144.123-.205.041-.082.081-.185.122-.267.021-.041.041-.061.041-.102 4.194-13.402 16.61-22.336 30.703-21.988 16.425.389 29.925 13.73 30.539 30.185.675 17.869-13.644 32.603-31.317 32.603-13.868 0-26.243-9.304-30.109-22.603l-.061-.123c-.041-.082-.062-.184-.102-.266-.041-.082-.082-.144-.123-.226-.041-.082-.102-.143-.143-.225-.041-.062-.103-.123-.164-.205l-.184-.185c-.061-.061-.123-.102-.184-.164a1.405 1.405 0 00-.225-.143.932.932 0 00-.205-.102c-.082-.041-.163-.082-.245-.103-.082-.02-.164-.061-.225-.082-.082-.02-.164-.041-.266-.061-.082-.021-.184-.021-.266-.021-.041 0-.102-.02-.143-.02h-27.041a2.656 2.656 0 00-2.659 2.664v5.492a2.01 2.01 0 01-2.005 2.008h-5.584a2.01 2.01 0 01-2.005-2.008v-5.451a2.656 2.656 0 00-2.659-2.664h-13.991a2.656 2.656 0 00-2.659 2.664v12.192a2.01 2.01 0 01-2.004 2.009h-5.584a2.01 2.01 0 01-2.005-2.009v-27.275c0-1.106.9-2.008 2.005-2.008h66.375zm-126.635-64.775c0-24.16 19.616-43.812 43.732-43.812 19.207 0 36.45 12.869 41.912 31.291.204.656.511 2.008.859 4.672.266 1.947-.348 3.914-1.636 5.39a6.644 6.644 0 01-5.073 2.295c-3.355 0-6.178-2.398-6.668-5.717-.471-3.054-1.146-5.677-2.005-7.787-4.296-10.574-15.3-17.685-27.389-17.685-16.568-.02-30.13 14.119-30.13 30.718v8.176c0 3.77-3.047 6.824-6.811 6.824s-6.811-3.054-6.811-6.824v-7.541h.02zM173.2 132.341c0-.738.593-1.332 1.33-1.332h133.916c.737 0 1.33.594 1.33 1.332v16.742a2.01 2.01 0 01-2.005 2.008H175.184a2.01 2.01 0 01-2.004-2.008v-16.742h.02zm0 26.087c0-1.107.9-2.009 2.005-2.009h132.587a2.01 2.01 0 012.004 2.009v10.307a2.01 2.01 0 01-2.004 2.008h-54.41a2.657 2.657 0 00-2.659 2.664v36.579a2.657 2.657 0 002.659 2.664h14.912a2.656 2.656 0 002.659-2.664v-12.193c0-1.107.9-2.008 2.004-2.008h4.664a2.01 2.01 0 012.005 2.008v5.492a2.656 2.656 0 002.659 2.664h14.891a2.656 2.656 0 002.659-2.664v-5.492c0-1.107.9-2.008 2.004-2.008h5.953a2.01 2.01 0 012.004 2.008v26.127c0 .738-.593 1.332-1.329 1.332H174.55c-.736 0-1.33-.594-1.33-1.332v-65.492h-.02z" fill="#323A45"/><path d="M188.01 142.931c2.905.184 5.81.307 8.714.41 2.905.123 5.809.184 8.714.225 5.809.102 11.618.184 17.427.225h8.714l8.713-.082c5.81-.102 11.619-.266 17.428-.778a1.993 1.993 0 001.82-1.824 1.987 1.987 0 00-1.82-2.172c-5.809-.512-11.618-.697-17.428-.779l-8.713-.082h-8.714c-5.809.041-11.618.123-17.427.226-2.905.061-5.809.123-8.714.225-2.904.102-5.809.225-8.714.41-.981.061-1.8.861-1.861 1.865a1.985 1.985 0 001.861 2.131zM293.349 145.269a4.341 4.341 0 004.337-4.345 4.34 4.34 0 00-4.337-4.344 4.34 4.34 0 00-4.336 4.344 4.34 4.34 0 004.336 4.345zM274.611 145.269a4.341 4.341 0 004.337-4.345 4.34 4.34 0 00-4.337-4.344 4.34 4.34 0 00-4.336 4.344 4.34 4.34 0 004.336 4.345zM201.079 213.525H225.952c1.37 0 2.311-1.496 1.8-2.89l-5.707-15.307a5.865 5.865 0 011.064-5.86 12.807 12.807 0 003.129-9.836c-.613-5.922-5.359-10.717-11.25-11.394-7.732-.86-14.298 5.164-14.298 12.746 0 3.217 1.166 6.148 3.109 8.402 1.432 1.639 1.903 3.914 1.146 5.942l-5.707 15.307c-.47 1.373.45 2.89 1.841 2.89zM368.071 194.902c6.219 0 11.271-5.061 11.271-11.291 0-6.229-5.052-11.291-11.271-11.291-6.218 0-11.27 5.062-11.27 11.291 0 6.23 5.052 11.291 11.27 11.291zm0-17.233c3.273 0 5.932 2.664 5.932 5.942 0 3.279-2.659 5.943-5.932 5.943-3.272 0-5.932-2.664-5.932-5.943 0-3.278 2.66-5.942 5.932-5.942zM303.333 108.365c.859-.942 1.575-1.926 2.25-2.95.675-1.025 1.33-2.07 1.902-3.156a49.029 49.029 0 001.657-3.3c.512-1.126.982-2.253 1.35-3.462.225-.738.021-1.599-.613-2.132a2.057 2.057 0 00-2.884.185 28.025 28.025 0 00-2.23 2.971 41.318 41.318 0 00-1.923 3.135 41.414 41.414 0 00-1.677 3.279c-.511 1.127-.982 2.275-1.33 3.484-.204.717 0 1.537.594 2.09.859.758 2.147.697 2.904-.144zM307.38 116.106a2.046 2.046 0 002.23 1.845c1.247-.123 2.454-.369 3.661-.656a43.566 43.566 0 003.539-1.004c1.166-.369 2.311-.82 3.457-1.291 1.145-.471 2.25-.984 3.334-1.639a2.043 2.043 0 00.982-1.947c-.103-1.127-1.105-1.967-2.23-1.844-1.248.123-2.455.368-3.661.655a43.452 43.452 0 00-3.539 1.004c-1.166.39-2.311.82-3.457 1.291-1.145.472-2.25.984-3.334 1.64a2.117 2.117 0 00-.982 1.946zM167.986 278.454a2.017 2.017 0 00.307-2.828l-.082-.103c-1.063-1.332-1.922-2.684-2.495-4.118a11.895 11.895 0 01-.818-4.447c.02-1.516.307-3.053.859-4.488a14.128 14.128 0 012.393-4.057l.102-.123a2.05 2.05 0 00.205-2.275c-.552-.963-1.78-1.311-2.741-.758-2.005 1.127-3.621 2.931-4.684 4.959a14.16 14.16 0 00-1.657 6.721c0 2.336.573 4.714 1.718 6.742 1.125 2.049 2.741 3.75 4.603 4.918a1.97 1.97 0 002.29-.143z" fill="#323A45"/></svg>