<?xml version="1.0" encoding="UTF-8"?>
<svg xmlns="http://www.w3.org/2000/svg" xmlns:xlink="http://www.w3.org/1999/xlink" width="148pt" height="18pt" viewBox="0 0 148 18" version="1.1">
<g id="surface1">
<path style=" stroke:none;fill-rule:nonzero;fill:rgb(50.588235%,70.588235%,25.490196%);fill-opacity:1;" d="M 8.574219 3.046875 C 8.246094 2.859375 7.277344 2.972656 6.117188 3.335938 C 4.089844 4.75 2.375 6.828125 2.253906 10.160156 C 2.238281 10.242188 2.035156 10.148438 1.996094 10.128906 C 1.449219 9.0625 1.230469 7.933594 1.691406 6.316406 C 1.773438 6.167969 1.496094 5.988281 1.445312 6.042969 C 1.34375 6.144531 0.925781 6.597656 0.648438 7.089844 C -0.730469 9.515625 0.167969 12.632812 2.582031 13.992188 C 4.996094 15.359375 8.03125 14.476562 9.378906 12.023438 C 10.933594 9.199219 9.492188 3.566406 8.574219 3.046875 Z M 8.574219 3.046875 "/>
<path style=" stroke:none;fill-rule:nonzero;fill:rgb(100%,100%,100%);fill-opacity:1;" d="M 17.210938 4.402344 C 14.347656 4.402344 12.273438 6.566406 12.273438 9.542969 C 12.273438 12.539062 14.34375 14.636719 17.304688 14.636719 C 18.804688 14.636719 19.988281 14.160156 20.933594 13.183594 C 21.210938 12.875 21.242188 12.578125 21.242188 12.460938 C 21.242188 11.972656 20.890625 11.621094 20.398438 11.621094 C 20.152344 11.621094 19.945312 11.714844 19.707031 11.941406 C 19.175781 12.445312 18.476562 12.960938 17.304688 12.960938 C 15.683594 12.960938 14.367188 11.722656 14.28125 10.136719 L 20.734375 10.136719 C 21.441406 10.136719 21.78125 9.800781 21.78125 9.117188 C 21.78125 8.914062 21.78125 8.769531 21.738281 8.480469 C 21.394531 5.925781 19.695312 4.402344 17.210938 4.402344 Z M 17.210938 5.996094 C 18.761719 5.996094 19.753906 7 19.8125 8.621094 L 14.285156 8.621094 C 14.433594 7.125 15.675781 5.996094 17.210938 5.996094 Z M 27.945312 4.402344 C 26.644531 4.402344 25.359375 5.164062 24.859375 6.21875 L 24.859375 5.566406 C 24.859375 4.558594 24.089844 4.503906 23.933594 4.503906 C 23.480469 4.503906 22.992188 4.789062 22.992188 5.566406 L 22.992188 13.433594 C 22.992188 14.480469 23.8125 14.535156 23.976562 14.535156 C 24.140625 14.535156 24.957031 14.480469 24.957031 13.433594 L 24.957031 9.21875 C 24.957031 7.382812 25.980469 6.101562 27.449219 6.101562 C 28.863281 6.101562 29.554688 7.042969 29.554688 8.992188 L 29.554688 13.433594 C 29.554688 14.480469 30.375 14.535156 30.535156 14.535156 C 30.703125 14.535156 31.519531 14.480469 31.519531 13.433594 L 31.519531 8.363281 C 31.519531 6.449219 30.582031 4.402344 27.945312 4.402344 Z M 40.417969 4.503906 C 39.964844 4.503906 39.632812 4.773438 39.4375 5.308594 L 36.746094 12.183594 L 34.078125 5.308594 C 33.867188 4.765625 33.542969 4.503906 33.074219 4.503906 C 32.53125 4.503906 32.09375 4.933594 32.09375 5.460938 C 32.09375 5.59375 32.105469 5.761719 32.214844 6.03125 L 35.304688 13.453125 C 35.675781 14.347656 36.28125 14.535156 36.726562 14.535156 C 37.167969 14.535156 37.773438 14.347656 38.140625 13.453125 L 41.257812 5.988281 C 41.363281 5.730469 41.378906 5.539062 41.378906 5.445312 C 41.378906 4.910156 40.964844 4.503906 40.417969 4.503906 Z M 46.136719 4.402344 C 44.878906 4.402344 43.707031 4.757812 42.835938 5.40625 C 42.542969 5.617188 42.398438 5.871094 42.398438 6.195312 C 42.398438 6.640625 42.734375 6.988281 43.164062 6.988281 C 43.351562 6.988281 43.554688 6.917969 43.746094 6.785156 C 44.492188 6.277344 45.191406 6.039062 45.953125 6.039062 C 47.40625 6.039062 48.242188 6.789062 48.242188 8.101562 L 48.242188 8.316406 C 44.976562 8.320312 41.664062 8.71875 41.664062 11.609375 C 41.664062 13.6875 43.40625 14.613281 45.132812 14.613281 C 46.515625 14.613281 47.617188 14.058594 48.320312 13.007812 L 48.320312 13.515625 C 48.320312 14.265625 48.820312 14.535156 49.25 14.535156 C 49.335938 14.535156 50.128906 14.507812 50.128906 13.515625 L 50.128906 8.222656 C 50.128906 5.828125 48.636719 4.402344 46.136719 4.402344 Z M 47.828125 9.789062 L 48.242188 9.789062 L 48.242188 10.25 C 48.242188 11.9375 47.191406 13.023438 45.550781 13.023438 C 45.113281 13.023438 43.667969 12.921875 43.667969 11.566406 C 43.667969 9.972656 46.046875 9.789062 47.828125 9.789062 Z M 55.25 6.324219 C 56.109375 6.324219 56.152344 5.640625 56.152344 5.507812 C 56.152344 5.101562 55.910156 4.671875 55.25 4.671875 L 53.480469 4.671875 L 53.480469 2.851562 C 53.480469 2.035156 52.960938 1.75 52.515625 1.75 C 52.351562 1.75 51.535156 1.804688 51.535156 2.851562 L 51.535156 11.488281 C 51.535156 13.480469 52.503906 14.535156 54.328125 14.535156 C 54.804688 14.535156 55.265625 14.449219 55.570312 14.304688 C 55.910156 14.132812 56.113281 13.84375 56.113281 13.515625 C 56.113281 13.054688 55.78125 12.71875 55.328125 12.71875 C 55.242188 12.71875 55.113281 12.738281 54.976562 12.78125 C 54.847656 12.820312 54.707031 12.835938 54.570312 12.835938 C 53.824219 12.835938 53.480469 12.347656 53.480469 11.285156 L 53.480469 6.324219 Z M 61.75 4.402344 C 58.777344 4.402344 56.617188 6.550781 56.617188 9.5 C 56.617188 10.9375 57.144531 12.246094 58.089844 13.1875 C 59.03125 14.121094 60.332031 14.636719 61.75 14.636719 C 64.6875 14.636719 66.90625 12.425781 66.90625 9.5 C 66.90625 6.550781 64.734375 4.402344 61.75 4.402344 Z M 61.75 12.941406 C 59.714844 12.941406 58.644531 11.207031 58.644531 9.5 C 58.644531 7.148438 60.257812 6.078125 61.75 6.078125 C 63.246094 6.078125 64.859375 7.148438 64.859375 9.5 C 64.859375 11.867188 63.246094 12.941406 61.75 12.941406 Z M 61.75 12.941406 "/>
<path style=" stroke:none;fill-rule:nonzero;fill:rgb(50.588235%,70.588235%,25.490196%);fill-opacity:1;" d="M 82.355469 5.113281 C 82.066406 4.796875 81.703125 4.550781 81.292969 4.410156 C 80.535156 4.144531 79.492188 4.117188 78.667969 4.390625 C 78.292969 4.503906 77.9375 4.679688 77.613281 4.90625 C 77.203125 5.179688 76.851562 5.539062 76.582031 5.957031 C 76.375 5.449219 76.078125 5.050781 75.6875 4.773438 C 75.144531 4.390625 74.441406 4.195312 73.597656 4.195312 C 73.171875 4.195312 72.761719 4.265625 72.390625 4.402344 C 71.664062 4.667969 71.042969 5.144531 70.589844 5.773438 L 70.589844 4.671875 C 70.589844 4.503906 70.457031 4.371094 70.292969 4.371094 L 69.820312 4.371094 C 69.664062 4.371094 69.523438 4.503906 69.523438 4.671875 L 69.523438 14.160156 C 69.523438 14.328125 69.664062 14.460938 69.820312 14.460938 L 70.292969 14.460938 C 70.457031 14.460938 70.589844 14.328125 70.589844 14.160156 L 70.589844 8.191406 C 70.640625 7.90625 70.742188 7.597656 70.886719 7.257812 C 71.023438 6.914062 71.226562 6.585938 71.472656 6.285156 C 71.710938 5.992188 72.011719 5.746094 72.359375 5.550781 C 72.699219 5.355469 73.109375 5.261719 73.574219 5.261719 C 73.910156 5.261719 74.234375 5.304688 74.515625 5.382812 C 74.785156 5.457031 75.011719 5.578125 75.203125 5.765625 C 75.394531 5.957031 75.550781 6.214844 75.65625 6.53125 C 75.773438 6.875 75.832031 7.316406 75.832031 7.847656 L 75.832031 14.160156 C 75.832031 14.328125 75.960938 14.460938 76.125 14.460938 L 76.59375 14.460938 C 76.757812 14.460938 76.886719 14.328125 76.886719 14.160156 L 76.886719 7.867188 C 76.894531 7.726562 76.929688 7.558594 76.996094 7.378906 C 77.050781 7.191406 77.144531 6.996094 77.253906 6.804688 C 77.371094 6.617188 77.507812 6.425781 77.675781 6.230469 C 77.832031 6.054688 78.027344 5.890625 78.242188 5.746094 C 78.476562 5.601562 78.726562 5.484375 78.988281 5.398438 C 79.289062 5.308594 79.597656 5.261719 79.910156 5.261719 L 79.972656 5.261719 C 80.28125 5.261719 80.578125 5.304688 80.839844 5.382812 C 81.109375 5.460938 81.335938 5.59375 81.53125 5.792969 C 81.722656 5.984375 81.878906 6.265625 81.984375 6.617188 C 82.105469 6.980469 82.164062 7.453125 82.164062 8.023438 L 82.164062 14.164062 C 82.167969 14.332031 82.296875 14.460938 82.457031 14.460938 L 82.921875 14.460938 C 83.089844 14.460938 83.21875 14.332031 83.21875 14.164062 L 83.21875 8.019531 C 83.21875 7.363281 83.144531 6.789062 83.003906 6.320312 C 82.859375 5.835938 82.632812 5.429688 82.355469 5.113281 Z M 91.796875 13.667969 C 91.773438 13.527344 91.742188 13.390625 91.730469 13.242188 C 91.691406 12.914062 91.664062 12.582031 91.664062 12.25 L 91.664062 7.496094 C 91.664062 6.957031 91.578125 6.480469 91.398438 6.0625 C 91.222656 5.660156 90.957031 5.296875 90.628906 5.015625 C 90.289062 4.734375 89.894531 4.523438 89.476562 4.394531 C 88.59375 4.121094 87.460938 4.121094 86.582031 4.441406 C 86.144531 4.582031 85.75 4.800781 85.390625 5.09375 C 85.050781 5.375 84.789062 5.703125 84.601562 6.074219 C 84.410156 6.441406 84.3125 6.851562 84.3125 7.265625 C 84.3125 7.429688 84.441406 7.558594 84.597656 7.566406 L 85.058594 7.585938 C 85.144531 7.585938 85.21875 7.554688 85.277344 7.5 C 85.332031 7.445312 85.371094 7.367188 85.371094 7.285156 C 85.371094 7.007812 85.429688 6.75 85.5625 6.511719 C 85.691406 6.269531 85.878906 6.050781 86.113281 5.871094 C 86.367188 5.671875 86.65625 5.523438 86.964844 5.433594 C 87.324219 5.320312 87.6875 5.265625 88.058594 5.265625 C 88.894531 5.265625 89.539062 5.460938 89.976562 5.855469 C 90.402344 6.230469 90.613281 6.765625 90.613281 7.480469 L 90.613281 8.5625 L 88.671875 8.5625 C 87.980469 8.5625 87.339844 8.636719 86.785156 8.785156 C 86.21875 8.941406 85.734375 9.152344 85.335938 9.429688 C 84.925781 9.707031 84.609375 10.046875 84.394531 10.441406 C 84.175781 10.847656 84.0625 11.300781 84.066406 11.761719 C 84.066406 12.175781 84.140625 12.574219 84.292969 12.921875 C 84.445312 13.277344 84.660156 13.585938 84.945312 13.839844 C 85.222656 14.09375 85.5625 14.292969 85.945312 14.429688 C 86.332031 14.566406 86.765625 14.636719 87.234375 14.636719 C 87.6875 14.640625 88.136719 14.585938 88.574219 14.46875 C 88.953125 14.371094 89.324219 14.222656 89.671875 14.023438 C 89.984375 13.847656 90.277344 13.628906 90.535156 13.371094 L 90.640625 13.257812 L 90.652344 13.382812 C 90.679688 13.710938 90.730469 14 90.800781 14.242188 C 90.832031 14.371094 90.949219 14.460938 91.082031 14.460938 L 91.613281 14.460938 C 91.777344 14.460938 91.910156 14.328125 91.910156 14.160156 L 91.910156 14.082031 C 91.910156 14.042969 91.902344 14 91.886719 13.957031 C 91.84375 13.867188 91.820312 13.769531 91.796875 13.667969 Z M 87.234375 13.574219 C 86.933594 13.578125 86.640625 13.527344 86.355469 13.425781 C 86.113281 13.34375 85.886719 13.207031 85.695312 13.039062 C 85.515625 12.882812 85.371094 12.6875 85.269531 12.472656 C 85.167969 12.257812 85.117188 12.023438 85.117188 11.792969 C 85.117188 11.488281 85.191406 11.214844 85.34375 10.957031 C 85.515625 10.683594 85.746094 10.449219 86.015625 10.28125 C 86.320312 10.085938 86.703125 9.929688 87.144531 9.8125 C 87.65625 9.691406 88.171875 9.640625 88.695312 9.648438 L 90.613281 9.648438 L 90.613281 11.535156 C 90.472656 11.835938 90.304688 12.109375 90.097656 12.347656 C 89.886719 12.601562 89.636719 12.824219 89.355469 13.003906 C 89.058594 13.191406 88.738281 13.335938 88.398438 13.421875 C 88.023438 13.527344 87.625 13.578125 87.234375 13.574219 Z M 97.554688 4.3125 C 97.441406 4.273438 97.332031 4.242188 97.21875 4.226562 C 97.074219 4.207031 96.933594 4.195312 96.789062 4.195312 C 95.964844 4.195312 95.265625 4.410156 94.710938 4.835938 C 94.453125 5.027344 94.234375 5.253906 94.039062 5.503906 L 94.039062 4.671875 C 94.039062 4.59375 94.011719 4.515625 93.953125 4.457031 C 93.898438 4.402344 93.824219 4.371094 93.746094 4.371094 L 93.28125 4.371094 C 93.117188 4.375 92.984375 4.503906 92.984375 4.671875 L 92.984375 14.160156 C 92.984375 14.328125 93.117188 14.460938 93.28125 14.460938 L 93.746094 14.460938 C 93.90625 14.460938 94.039062 14.328125 94.039062 14.160156 L 94.039062 7.96875 C 94.109375 7.597656 94.21875 7.230469 94.371094 6.882812 C 94.507812 6.566406 94.707031 6.277344 94.941406 6.023438 C 95.164062 5.789062 95.433594 5.601562 95.742188 5.460938 C 96.074219 5.324219 96.433594 5.253906 96.789062 5.261719 C 96.890625 5.261719 96.980469 5.265625 97.074219 5.273438 L 97.359375 5.3125 C 97.515625 5.332031 97.667969 5.214844 97.6875 5.050781 L 97.742188 4.628906 C 97.753906 4.496094 97.675781 4.359375 97.554688 4.3125 Z M 101.460938 8.738281 L 105.546875 4.890625 C 105.675781 4.890625 105.789062 4.800781 105.828125 4.671875 C 105.863281 4.546875 105.808594 4.402344 105.695312 4.339844 C 105.585938 4.265625 105.441406 4.28125 105.34375 4.371094 L 104.675781 4.371094 C 104.605469 4.371094 104.53125 4.398438 104.480469 4.449219 L 100.230469 8.445312 L 99.632812 9.019531 L 99.632812 0.6875 C 99.632812 0.527344 99.503906 0.390625 99.339844 0.390625 L 98.875 0.390625 C 98.710938 0.390625 98.578125 0.527344 98.578125 0.6875 L 98.578125 14.160156 C 98.578125 14.328125 98.714844 14.460938 98.875 14.460938 L 99.339844 14.460938 C 99.503906 14.460938 99.632812 14.328125 99.632812 14.160156 L 99.632812 10.371094 L 100.679688 9.453125 L 104.78125 14.355469 C 104.839844 14.421875 104.921875 14.460938 105.007812 14.460938 L 105.617188 14.460938 C 105.742188 14.460938 105.855469 14.375 105.894531 14.253906 C 105.9375 14.132812 105.894531 14 105.796875 13.925781 Z M 112.304688 5.414062 C 111.964844 5.035156 111.546875 4.726562 111.085938 4.515625 C 110.121094 4.082031 108.886719 4.082031 107.882812 4.578125 C 107.371094 4.828125 106.914062 5.191406 106.546875 5.628906 C 106.15625 6.101562 105.855469 6.636719 105.648438 7.222656 C 105.429688 7.867188 105.320312 8.546875 105.324219 9.226562 L 105.324219 9.617188 C 105.324219 10.335938 105.441406 11.015625 105.664062 11.617188 C 105.875 12.203125 106.1875 12.738281 106.59375 13.203125 C 106.988281 13.648438 107.457031 14.003906 107.988281 14.253906 C 108.523438 14.507812 109.101562 14.636719 109.710938 14.636719 C 110.105469 14.636719 110.472656 14.59375 110.804688 14.511719 C 111.125 14.4375 111.429688 14.320312 111.722656 14.171875 C 111.992188 14.03125 112.246094 13.851562 112.472656 13.644531 C 112.6875 13.441406 112.882812 13.21875 113.046875 12.972656 C 113.140625 12.835938 113.109375 12.652344 112.976562 12.558594 L 112.652344 12.320312 C 112.519531 12.226562 112.339844 12.25 112.246094 12.378906 C 112.066406 12.617188 111.878906 12.816406 111.6875 12.960938 C 111.496094 13.113281 111.292969 13.238281 111.089844 13.324219 C 110.878906 13.414062 110.664062 13.476562 110.433594 13.515625 C 109.765625 13.628906 109.019531 13.578125 108.40625 13.273438 C 108.003906 13.070312 107.640625 12.78125 107.351562 12.429688 C 107.039062 12.066406 106.796875 11.640625 106.640625 11.179688 C 106.464844 10.675781 106.375 10.144531 106.378906 9.617188 L 106.378906 9.398438 L 113.082031 9.398438 C 113.242188 9.398438 113.378906 9.265625 113.378906 9.101562 L 113.378906 8.546875 C 113.378906 7.910156 113.28125 7.324219 113.09375 6.796875 C 112.921875 6.289062 112.65625 5.816406 112.304688 5.414062 Z M 110.675781 5.519531 C 111.007812 5.6875 111.308594 5.925781 111.546875 6.21875 C 111.789062 6.515625 111.984375 6.863281 112.117188 7.253906 C 112.238281 7.597656 112.300781 7.953125 112.316406 8.328125 L 106.445312 8.328125 C 106.511719 7.964844 106.605469 7.625 106.738281 7.304688 C 106.910156 6.894531 107.136719 6.53125 107.414062 6.226562 C 107.679688 5.929688 108.003906 5.691406 108.359375 5.519531 C 109.0625 5.191406 109.992188 5.179688 110.675781 5.519531 Z M 118.214844 13.734375 C 118.1875 13.578125 118.039062 13.46875 117.878906 13.488281 C 117.734375 13.511719 117.59375 13.527344 117.445312 13.542969 C 117.1875 13.570312 116.832031 13.585938 116.542969 13.5 C 116.421875 13.464844 116.308594 13.394531 116.230469 13.292969 C 116.132812 13.1875 116.050781 13.027344 115.988281 12.816406 C 115.921875 12.585938 115.886719 12.273438 115.886719 11.890625 L 115.886719 5.453125 L 117.71875 5.453125 C 117.875 5.453125 118.011719 5.320312 118.011719 5.15625 L 118.011719 4.671875 C 118.011719 4.503906 117.875 4.375 117.71875 4.375 L 115.886719 4.375 L 115.886719 2.109375 C 115.886719 2.03125 115.859375 1.953125 115.800781 1.898438 C 115.746094 1.84375 115.671875 1.808594 115.589844 1.808594 L 115.121094 1.808594 C 115.039062 1.808594 114.964844 1.84375 114.910156 1.898438 C 114.855469 1.953125 114.828125 2.03125 114.828125 2.109375 L 114.828125 4.371094 L 113.394531 4.371094 C 113.230469 4.371094 113.101562 4.503906 113.101562 4.671875 L 113.101562 5.152344 C 113.101562 5.316406 113.230469 5.453125 113.394531 5.453125 L 114.828125 5.453125 L 114.828125 11.886719 C 114.828125 12.386719 114.875 12.816406 114.964844 13.15625 C 115.066406 13.511719 115.210938 13.804688 115.402344 14.023438 C 115.605469 14.253906 115.851562 14.414062 116.132812 14.507812 C 116.425781 14.597656 116.722656 14.640625 117.027344 14.636719 L 117.253906 14.628906 C 117.351562 14.628906 117.445312 14.617188 117.539062 14.609375 L 117.816406 14.578125 C 117.921875 14.5625 118.019531 14.542969 118.101562 14.511719 C 118.238281 14.460938 118.320312 14.320312 118.289062 14.175781 Z M 122.996094 0.390625 L 147.167969 0.390625 L 147.167969 17.085938 L 122.996094 17.085938 Z M 122.996094 0.390625 "/>
<path style=" stroke:none;fill-rule:nonzero;fill:rgb(100%,100%,100%);fill-opacity:1;" d="M 130.65625 5.0625 C 130.613281 4.953125 130.503906 4.871094 130.382812 4.871094 L 130.058594 4.871094 C 129.9375 4.871094 129.828125 4.953125 129.78125 5.0625 L 127.109375 12.335938 C 127.074219 12.425781 127.085938 12.527344 127.140625 12.605469 C 127.195312 12.691406 127.289062 12.734375 127.382812 12.734375 L 127.671875 12.734375 C 127.792969 12.734375 127.90625 12.660156 127.949219 12.542969 L 128.671875 10.566406 L 131.765625 10.566406 L 132.496094 12.542969 C 132.539062 12.660156 132.652344 12.734375 132.773438 12.734375 L 133.070312 12.734375 C 133.171875 12.734375 133.273438 12.675781 133.328125 12.578125 C 133.378906 12.480469 133.375 12.367188 133.3125 12.273438 Z M 128.988281 9.695312 L 130.21875 6.347656 L 131.449219 9.695312 Z M 138.769531 5.53125 C 138.53125 5.3125 138.25 5.144531 137.945312 5.042969 C 137.585938 4.921875 137.210938 4.867188 136.839844 4.871094 L 134.605469 4.871094 C 134.449219 4.871094 134.316406 5.003906 134.316406 5.167969 L 134.316406 12.441406 C 134.316406 12.605469 134.449219 12.734375 134.605469 12.734375 L 134.878906 12.734375 C 135.035156 12.734375 135.164062 12.605469 135.164062 12.441406 L 135.164062 9.667969 L 136.839844 9.667969 C 137.253906 9.667969 137.625 9.617188 137.945312 9.507812 C 138.269531 9.398438 138.550781 9.238281 138.769531 9.027344 C 139 8.820312 139.167969 8.5625 139.285156 8.261719 C 139.394531 7.972656 139.445312 7.648438 139.445312 7.296875 C 139.445312 6.9375 139.394531 6.609375 139.28125 6.320312 C 139.167969 6.023438 138.996094 5.753906 138.769531 5.53125 Z M 136.84375 8.800781 L 135.164062 8.800781 L 135.164062 5.738281 L 136.84375 5.738281 C 137.167969 5.738281 137.445312 5.78125 137.667969 5.867188 C 137.890625 5.953125 138.066406 6.0625 138.203125 6.195312 C 138.332031 6.332031 138.433594 6.492188 138.496094 6.675781 C 138.625 7.074219 138.625 7.5 138.5 7.902344 C 138.433594 8.074219 138.339844 8.222656 138.203125 8.359375 C 138.070312 8.488281 137.894531 8.597656 137.675781 8.675781 C 137.445312 8.757812 137.167969 8.800781 136.84375 8.800781 Z M 141.515625 4.871094 L 141.253906 4.871094 C 141.089844 4.871094 140.957031 5.003906 140.957031 5.167969 L 140.957031 12.441406 C 140.957031 12.605469 141.085938 12.734375 141.253906 12.734375 L 141.515625 12.734375 C 141.675781 12.734375 141.8125 12.605469 141.8125 12.441406 L 141.8125 5.167969 C 141.8125 5.003906 141.675781 4.871094 141.515625 4.871094 Z M 141.515625 4.871094 "/>
</g>
</svg>
