<svg width="544" height="540" fill="none" xmlns="http://www.w3.org/2000/svg"><path d="M311.337 265.928c-50.907 36.258-1.677 45.758 29.542 18.307 26.607-23.382-2.872-37.307-29.542-18.307zM234.643 218.39c-7.38 7.759.336 11.869 8.45 6.48 15.494-10.297-.315-15.036-8.45-6.48zM341.426 235.497c17.675-11.744-.357-17.133-9.645-7.382-8.408 8.85.377 13.547 9.645 7.382zM165.453 180.22c22.812-15.161 1.782-20.719-12.433-9.52-12.391 9.73.482 17.468 12.433 9.52zM307.519 249.571c5.074-3.375-.104-4.906-2.767-2.118-2.411 2.516.105 3.878 2.767 2.118zM272.298 158.139c-4.466 4.698.21 7.193 5.116 3.922 9.372-6.228-.189-9.101-5.116-3.922zM235.629 342.579c-7.967 5.306.168 7.739 4.361 3.335 3.795-4.006-.189-6.124-4.361-3.335zM174.259 260.581c-51.683 38.691-8.617 61.382 35.161 31.121 69.483-48.002 12.873-67.086-35.161-31.121zM132.492 409.83l-6.269-2.139a17.81 17.81 0 01-11.134-11.135l-2.138-6.271c-.608-1.803-3.166-1.803-3.774 0l-2.139 6.271a17.807 17.807 0 01-11.133 11.135l-6.269 2.139c-1.803.608-1.803 3.167 0 3.775l6.27 2.139a17.807 17.807 0 0111.132 11.135l2.139 6.271c.608 1.803 3.166 1.803 3.774 0l2.138-6.271a17.81 17.81 0 0111.134-11.135l6.269-2.139c1.803-.608 1.803-3.146 0-3.775zM94.184 28.417c.839-.294.839-1.49 0-1.783l-2.935-1.006a8.388 8.388 0 01-5.22-5.222l-1.007-2.936c-.294-.839-1.489-.839-1.782 0l-1.007 2.936a8.387 8.387 0 01-5.22 5.222l-2.936 1.006c-.838.294-.838 1.49 0 1.783l2.936 1.006a8.387 8.387 0 015.22 5.222l1.007 2.936c.293.839 1.488.839 1.782 0l1.006-2.936a8.387 8.387 0 015.22-5.222l2.936-1.006zM356.938 108.966l-2.935-1.006a8.389 8.389 0 01-5.221-5.222l-1.006-2.936c-.294-.839-1.489-.839-1.782 0l-1.007 2.936a8.386 8.386 0 01-5.221 5.222l-2.935 1.006c-.839.294-.839 1.489 0 1.783l2.935 1.006a8.389 8.389 0 015.221 5.222l1.007 2.936c.293.839 1.488.839 1.782 0l1.006-2.936a8.391 8.391 0 015.221-5.222l2.935-1.006c.839-.315.839-1.51 0-1.783zM527.29 338.7l-2.935-1.007a8.389 8.389 0 01-5.221-5.222l-1.006-2.936c-.294-.838-1.489-.838-1.782 0l-1.007 2.936a8.385 8.385 0 01-5.22 5.222l-2.936 1.007c-.838.293-.838 1.489 0 1.782l2.936 1.007a8.385 8.385 0 015.22 5.222l1.007 2.935c.293.839 1.488.839 1.782 0l1.006-2.935a8.389 8.389 0 015.221-5.222l2.935-1.007c.839-.293.839-1.489 0-1.782z" fill="#65BD7D"/><path d="M208.997 167.049c-43.296 32.085-3.334 44.458 27.529 20.425 30.862-24.032-1.447-39.76-27.529-20.425zM226.884 301.536c-22.895 17.847-1.929 34.476 20.443 21.474 42.729-24.787 6.939-42.822-20.443-21.474zM261.289 246.848c-14.907 13.673 4.697 18.769 20.443 7.067 24.992-18.58-3.166-22.9-20.443-7.067zM219.422 215.766c2.956-3.104-.126-4.761-3.397-2.601-6.206 4.131.126 6.019 3.397 2.601zM479.283 435.206l-6.269-2.139a17.806 17.806 0 01-11.133-11.136l-2.139-6.27c-.608-1.803-3.166-1.803-3.774 0l-2.139 6.27a17.806 17.806 0 01-11.133 11.136l-6.269 2.139c-1.803.608-1.803 3.167 0 3.775l6.269 2.139a17.807 17.807 0 0111.133 11.135l2.139 6.271c.608 1.803 3.166 1.803 3.774 0l2.139-6.271a17.807 17.807 0 0111.133-11.135l6.269-2.139c1.803-.587 1.803-3.146 0-3.775zM159.247 123.08l-4.634-1.573a13.164 13.164 0 01-8.198-8.199l-1.572-4.635c-.461-1.321-2.327-1.321-2.789 0l-1.572 4.635a13.162 13.162 0 01-8.198 8.199l-4.634 1.573c-1.321.461-1.321 2.328 0 2.789l4.634 1.573a13.162 13.162 0 018.198 8.199l1.572 4.635c.462 1.321 2.328 1.321 2.789 0l1.572-4.635a13.164 13.164 0 018.198-8.199l4.634-1.573c1.342-.44 1.342-2.328 0-2.789zM516.622 199.678l-2.936-1.007a8.385 8.385 0 01-5.22-5.222l-1.007-2.936c-.293-.838-1.488-.838-1.782 0l-1.006 2.936a8.389 8.389 0 01-5.221 5.222l-2.935 1.007c-.839.293-.839 1.489 0 1.782l2.935 1.007a8.389 8.389 0 015.221 5.222l1.006 2.935c.294.839 1.489.839 1.782 0l1.007-2.935a8.385 8.385 0 015.22-5.222l2.936-1.007c.838-.293.838-1.51 0-1.782zM244.519 470.207l-2.936-1.007a8.383 8.383 0 01-5.22-5.221l-1.007-2.936c-.293-.839-1.488-.839-1.782 0l-1.006 2.936a8.387 8.387 0 01-5.221 5.221l-2.935 1.007c-.839.294-.839 1.489 0 1.782l2.935 1.007a8.389 8.389 0 015.221 5.222l1.006 2.936c.294.839 1.489.839 1.782 0l1.007-2.936a8.385 8.385 0 015.22-5.222l2.936-1.007c.838-.293.838-1.488 0-1.782z" fill="#fff"/><path d="M177.254 330.933c-9.561 10.045.44 15.372 10.944 8.389 20.086-13.359-.377-19.482-10.944-8.389zM275.02 279.093c3.794-3.984-.168-6.102-4.362-3.334-7.967 5.305.168 7.738 4.362 3.334zM166.582 219.267c-30.486 19.503-.713 24.83 16.878 10.842 15.829-12.561-.902-21.055-16.878-10.842zM278.457 325.922c-30.15 19.293-.587 24.724 16.689 10.737 16.249-13.149-.88-20.845-16.689-10.737zM295.61 172.853c-67.093 50.54-12.454 72.056 39.942 28.94 47.552-39.132 7.002-64.318-39.942-28.94zM412.747 289.954l-4.634-1.572a13.164 13.164 0 01-8.198-8.2l-1.572-4.634c-.462-1.322-2.328-1.322-2.789 0l-1.573 4.634a13.162 13.162 0 01-8.197 8.2l-4.634 1.572c-1.321.462-1.321 2.328 0 2.79l4.634 1.572a13.162 13.162 0 018.197 8.2l1.573 4.635c.461 1.321 2.327 1.321 2.789 0l1.572-4.635a13.164 13.164 0 018.198-8.2l4.634-1.572c1.321-.462 1.321-2.349 0-2.79zM39.421 129.089l-4.633-1.573a13.161 13.161 0 01-8.198-8.2l-1.573-4.634c-.461-1.321-2.327-1.321-2.788 0l-1.573 4.634a13.161 13.161 0 01-8.198 8.2l-4.633 1.573c-1.321.461-1.321 2.327 0 2.789l4.633 1.573a13.162 13.162 0 018.198 8.199l1.573 4.635c.46 1.321 2.327 1.321 2.788 0l1.573-4.635a13.162 13.162 0 018.198-8.199l4.633-1.573c1.342-.441 1.342-2.328 0-2.789zM450.932 53.992l-4.633-1.573a13.16 13.16 0 01-8.198-8.2l-1.573-4.634c-.461-1.321-2.327-1.321-2.789 0l-1.572 4.635a13.162 13.162 0 01-8.198 8.2l-4.634 1.572c-1.32.461-1.32 2.328 0 2.79l4.634 1.572a13.162 13.162 0 018.198 8.2l1.572 4.634c.462 1.321 2.328 1.321 2.789 0l1.573-4.634a13.16 13.16 0 018.198-8.2l4.633-1.573c1.342-.461 1.342-2.349 0-2.789z" fill="#65BD7D"/><path d="M323.245 71.696c-.042-.063-.084-.105-.126-.147-.042-.063-.105-.105-.168-.168l-.063-.063c-.021-.02-.063-.042-.084-.063a30.67 30.67 0 01-.188-.126c-.063-.041-.126-.062-.168-.104-.063-.021-.126-.063-.189-.084a2.7 2.7 0 00-.209-.063.613.613 0 00-.189-.042c-.084-.021-.147-.021-.231-.021H274.875c-.084 0-.168 0-.231.02a.613.613 0 00-.189.043c-.063.02-.147.042-.209.063-.063.02-.126.063-.189.084-.063.02-.126.063-.189.104l-.189.126c-.042.021-.062.042-.104.063l-.063.063-.168.168c-.042.042-.084.105-.126.147a.85.85 0 00-.105.188c-.042.063-.063.126-.105.19-.02.062-.062.125-.083.188a2.633 2.633 0 00-.063.21c-.021.063-.021.126-.042.188-.021.084-.021.147-.021.231V127.604c0 .084 0 .147.021.231 0 .062.021.125.042.188s.042.126.063.21c.021.063.042.126.083.189a.824.824 0 00.105.188c.042.063.063.126.105.168.042.063.084.105.126.147.042.063.105.105.168.168l.063.063c.042.021.062.042.104.084a.632.632 0 00.147.104.98.98 0 00.21.105c.042.021.105.042.147.063.083.042.167.063.251.084.042.021.084.021.126.042.126.021.273.042.398.042h46.546c.126 0 .273-.021.399-.042.042 0 .084-.021.147-.042.083-.021.167-.042.251-.084.063-.021.105-.042.147-.063.063-.042.147-.063.21-.105.062-.042.104-.062.146-.104a.369.369 0 00.105-.084l.063-.063.168-.168c.042-.042.084-.105.126-.147.041-.063.083-.126.104-.168.042-.062.063-.125.105-.188l.063-.189c.021-.063.042-.126.063-.21.021-.063.021-.126.042-.188 0-.084.021-.147.021-.231V72.954v-.084c0-.084-.021-.147-.021-.23-.021-.064-.021-.126-.042-.19-.021-.062-.042-.125-.063-.209-.021-.084-.042-.126-.063-.189-.021-.063-.063-.126-.105-.189-.063-.041-.083-.104-.125-.167zm-41.284 3.418h32.499c.922 0 1.425 1.09.817 1.782l-15.851 18.56a1.634 1.634 0 01-2.474 0l-15.85-18.56c-.546-.692-.063-1.782.859-1.782zm-4.864 43.598V81.741c0-1.007 1.258-1.468 1.908-.692l15.473 18.14a1.594 1.594 0 010 2.097l-15.473 18.139c-.65.755-1.908.294-1.908-.713zm37.384 6.627h-32.499a1.076 1.076 0 01-.817-1.783l15.85-18.559a1.634 1.634 0 012.474 0l15.851 18.559c.545.713.063 1.783-.859 1.783zm4.864-6.627c0 1.007-1.258 1.468-1.908.692l-15.474-18.139a1.596 1.596 0 010-2.097l15.474-18.14c.65-.755 1.908-.294 1.908.692v36.992zM179.014 87.597h46.923a3.696 3.696 0 003.69-3.691V76.65a3.696 3.696 0 00-3.69-3.691h-46.923a3.696 3.696 0 00-3.69 3.69v7.257a3.696 3.696 0 003.69 3.69zM258.979 87.597a3.696 3.696 0 003.69-3.691V76.65a3.696 3.696 0 00-3.69-3.691h-19.436a3.696 3.696 0 00-3.69 3.69v7.257a3.696 3.696 0 003.69 3.69h19.436zM263.194 96.618a3.696 3.696 0 00-3.69-3.69h-80.47a3.696 3.696 0 00-3.69 3.69v7.256a3.696 3.696 0 003.69 3.691h80.47a3.697 3.697 0 003.69-3.691v-7.256zM259.503 112.866h-34.008a3.696 3.696 0 00-3.69 3.691v7.256a3.696 3.696 0 003.69 3.69h34.008a3.695 3.695 0 003.69-3.69v-7.256a3.695 3.695 0 00-3.69-3.691zM179.014 112.866a3.695 3.695 0 00-3.69 3.691v7.256a3.695 3.695 0 003.69 3.69h32.666a3.695 3.695 0 003.69-3.69v-7.256a3.695 3.695 0 00-3.69-3.691h-32.666zM373.772 404.46h.293a2.622 2.622 0 002.621-2.621v-6.816a2.622 2.622 0 00-2.621-2.621h-.293a2.622 2.622 0 00-2.621 2.621v6.816a2.608 2.608 0 002.621 2.621zM316.657 315.508c-.713.105-1.3.65-1.405 1.404a1.635 1.635 0 001.405 1.845c1.656.231 3.334.336 4.99.419 1.657.084 3.334.105 4.99.126 1.657-.021 3.334-.042 4.99-.126 1.657-.083 3.334-.188 4.99-.419.713-.105 1.3-.65 1.405-1.404a1.633 1.633 0 00-1.405-1.845c-1.656-.231-3.333-.335-4.99-.419-1.656-.084-3.333-.105-4.99-.126-1.656.021-3.333.042-4.99.126a66.595 66.595 0 00-4.99.419z" fill="#323A45"/><path d="M335.504 358.348c.86 2.202 2.306 4.152 4.109 5.662 1.824 1.489 4.005 2.558 6.311 2.999.587.084 1.153.209 1.741.209l.88.042h3.711l5.934-.021h3.69c.251 0 .419.021.629.021.398 0 .797.063 1.195.126 1.593.252 3.082.986 4.34 1.95a9.798 9.798 0 012.893 3.817l.21.566.105.273.084.294.147.587c.041.189.062.398.104.587.084.398.084.797.105 1.216.021.189.021.462.021.692v1.657a2.837 2.837 0 01-2.83 2.852 12.816 12.816 0 00-9.1 3.775 12.859 12.859 0 00-3.774 9.101v23.299c0 7.109 5.766 12.876 12.874 12.876h10.022c7.107 0 12.873-5.767 12.873-12.876v-23.278c0-7.109-5.766-12.876-12.873-12.876a2.832 2.832 0 01-2.831-2.831v-1.657c0-.251 0-.482-.021-.797-.021-.587-.042-1.174-.146-1.74a10.47 10.47 0 00-.147-.86l-.21-.86-.105-.419-.147-.42-.293-.818a14.178 14.178 0 00-4.172-5.557c-1.824-1.447-4.005-2.516-6.332-2.894-.587-.105-1.153-.189-1.741-.189-.293-.02-.608-.041-.859-.041h-3.69l-5.934-.021h-3.69l-.608-.042c-.21 0-.398-.021-.608-.063l-.587-.084c-1.573-.315-3.04-1.049-4.277-2.055-1.195-1.049-2.202-2.349-2.768-3.838-.566-1.489-.818-3.104-.587-4.697.377-3.167 2.453-6.103 5.347-7.445.712-.378 1.488-.587 2.264-.776l.587-.084a2.79 2.79 0 01.587-.063l.608-.021c.189-.021.482 0 .713 0H367.059l11.867-.021 5.933-.021H388.612l.881-.042c.587-.021 1.174-.146 1.74-.23 2.306-.504 4.487-1.552 6.269-3.062 1.761-1.531 3.208-3.481 4.026-5.683l.293-.839c.084-.273.147-.566.231-.86.168-.566.23-1.153.314-1.74.084-.567.084-1.175.105-1.741v-.377l-.021-.441-.042-.881c-.251-2.327-1.069-4.613-2.39-6.543-1.342-1.908-3.124-3.544-5.221-4.592l-.796-.378c-.273-.125-.545-.209-.818-.314-.545-.21-1.111-.357-1.677-.504-.566-.146-1.153-.209-1.741-.293l-.88-.042-.44-.021h-.378l-11.867.021c-7.904.021-15.809-.063-23.713.545a1.608 1.608 0 00-1.489 1.678c.021.839.734 1.51 1.573 1.573 7.883.608 15.767.524 23.65.545l11.867.021h.357l.293.021.608.021c.398.063.797.105 1.195.21.378.104.776.188 1.153.356.189.084.378.126.566.21l.546.272c1.446.713 2.662 1.846 3.585 3.167a9.917 9.917 0 011.614 4.488c.147 1.719-.042 3.292-.629 4.802-.545 1.51-1.551 2.831-2.767 3.88a9.955 9.955 0 01-4.277 2.076c-.399.042-.797.147-1.196.147l-.608.021H384.859l-5.933-.021-11.867-.021h-18.577l-.88.042a6.25 6.25 0 00-.881.083l-.881.147c-1.153.273-2.285.608-3.354 1.133-4.277 2.013-7.359 6.312-7.905 11.03-.272 2.286.063 4.698.923 6.9zm43.422 27.87c4.717 0 8.554 3.838 8.554 8.556v23.299c0 4.718-3.837 8.556-8.554 8.556h-10.022c-4.718 0-8.555-3.838-8.555-8.556v-23.299c0-4.718 3.837-8.556 8.555-8.556h10.022zM145.737 374.689v51.693c0 4.949 4.026 8.996 8.974 8.996h157.962c4.948 0 8.995-4.026 8.995-8.996v-51.693c0-4.949-4.026-8.997-8.995-8.997H154.732c-4.948 0-8.995 4.048-8.995 8.997zm4.319 0a4.68 4.68 0 014.676-4.677h157.962a4.68 4.68 0 014.676 4.677v51.693a4.68 4.68 0 01-4.676 4.676H154.732a4.68 4.68 0 01-4.676-4.676v-51.693z" fill="#323A45"/><path d="M163.185 389.323h6.311a2.014 2.014 0 002.013-2.014v-6.312a2.014 2.014 0 00-2.013-2.013h-6.311a2.014 2.014 0 00-2.013 2.013v6.312c.021 1.112.923 2.014 2.013 2.014zM179.94 389.323h6.31a2.014 2.014 0 002.013-2.014v-6.312a2.013 2.013 0 00-2.013-2.013h-6.31a2.013 2.013 0 00-2.013 2.013v6.312c0 1.112.901 2.014 2.013 2.014zM196.689 389.323H203a2.014 2.014 0 002.013-2.014v-6.312a2.014 2.014 0 00-2.013-2.013h-6.311a2.014 2.014 0 00-2.013 2.013v6.312c0 1.112.902 2.014 2.013 2.014zM213.441 389.323h6.311a2.014 2.014 0 002.013-2.014v-6.312a2.014 2.014 0 00-2.013-2.013h-6.311a2.014 2.014 0 00-2.013 2.013v6.312c0 1.112.902 2.014 2.013 2.014zM230.19 389.323h6.311a2.013 2.013 0 002.012-2.014v-6.312a2.013 2.013 0 00-2.012-2.013h-6.311a2.013 2.013 0 00-2.013 2.013v6.312c0 1.112.901 2.014 2.013 2.014zM246.943 389.323h6.311a2.014 2.014 0 002.013-2.014v-6.312a2.014 2.014 0 00-2.013-2.013h-6.311a2.014 2.014 0 00-2.013 2.013v6.312c0 1.112.902 2.014 2.013 2.014zM263.7 389.323h6.311a2.014 2.014 0 002.013-2.014v-6.312a2.014 2.014 0 00-2.013-2.013H263.7a2.013 2.013 0 00-2.012 2.013v6.312c0 1.112.901 2.014 2.012 2.014zM280.426 389.323h6.311a2.014 2.014 0 002.013-2.014v-6.312a2.013 2.013 0 00-2.013-2.013h-6.311a2.013 2.013 0 00-2.012 2.013v6.312c.021 1.112.922 2.014 2.012 2.014zM297.181 389.323h6.311a2.014 2.014 0 002.013-2.014v-6.312a2.014 2.014 0 00-2.013-2.013h-6.311a2.014 2.014 0 00-2.013 2.013v6.312c.021 1.112.923 2.014 2.013 2.014zM163.185 405.7h15.956a2.013 2.013 0 002.013-2.013v-6.312a2.014 2.014 0 00-2.013-2.013h-15.956a2.014 2.014 0 00-2.013 2.013v6.312c.021 1.112.923 2.013 2.013 2.013zM203.562 397.375v6.312c0 1.112.902 2.013 2.013 2.013h6.311a2.013 2.013 0 002.013-2.013v-6.312a2.014 2.014 0 00-2.013-2.013h-6.311a2.014 2.014 0 00-2.013 2.013zM187.063 397.375v6.312c0 1.112.902 2.013 2.013 2.013h6.311a2.013 2.013 0 002.013-2.013v-6.312a2.014 2.014 0 00-2.013-2.013h-6.311a2.014 2.014 0 00-2.013 2.013zM220.045 397.375v6.312c0 1.112.901 2.013 2.013 2.013h6.311a2.012 2.012 0 002.012-2.013v-6.312a2.013 2.013 0 00-2.012-2.013h-6.311a2.013 2.013 0 00-2.013 2.013zM236.543 397.375v6.312c0 1.112.902 2.013 2.013 2.013h6.311a2.013 2.013 0 002.013-2.013v-6.312a2.014 2.014 0 00-2.013-2.013h-6.311a2.014 2.014 0 00-2.013 2.013zM253.046 397.375v6.312c0 1.112.902 2.013 2.013 2.013h6.311a2.013 2.013 0 002.013-2.013v-6.312a2.014 2.014 0 00-2.013-2.013h-6.311a2.014 2.014 0 00-2.013 2.013zM269.549 397.375v6.312c0 1.112.901 2.013 2.013 2.013h6.311a2.013 2.013 0 002.013-2.013v-6.312a2.014 2.014 0 00-2.013-2.013h-6.311a2.013 2.013 0 00-2.013 2.013zM286.134 397.375v6.312c0 1.112.902 2.013 2.013 2.013H303.515a2.013 2.013 0 002.013-2.013v-6.312a2.013 2.013 0 00-2.013-2.013h-15.368a2.014 2.014 0 00-2.013 2.013zM163.185 422.061h6.311a2.014 2.014 0 002.013-2.013v-6.313a2.014 2.014 0 00-2.013-2.013h-6.311a2.014 2.014 0 00-2.013 2.013v6.313c.021 1.111.923 2.013 2.013 2.013zM186.25 411.741h-6.31a2.013 2.013 0 00-2.013 2.013v6.312c0 1.112.901 2.013 2.013 2.013h6.31a2.013 2.013 0 002.013-2.013v-6.312a2.013 2.013 0 00-2.013-2.013zM203 411.741h-6.311a2.013 2.013 0 00-2.013 2.013v6.312c0 1.112.902 2.013 2.013 2.013H203a2.013 2.013 0 002.013-2.013v-6.312a2.013 2.013 0 00-2.013-2.013zM253.257 411.741h-39.816a2.013 2.013 0 00-2.013 2.013v6.312c0 1.112.902 2.013 2.013 2.013h39.816a2.012 2.012 0 002.012-2.013v-6.312a2.012 2.012 0 00-2.012-2.013zM270.011 411.741H263.7a2.012 2.012 0 00-2.012 2.013v6.312c0 1.112.901 2.013 2.012 2.013h6.311a2.013 2.013 0 002.013-2.013v-6.312a2.013 2.013 0 00-2.013-2.013zM286.759 411.741h-6.311a2.012 2.012 0 00-2.012 2.013v6.312c0 1.112.901 2.013 2.012 2.013h6.311a2.013 2.013 0 002.013-2.013v-6.312c-.021-1.112-.922-2.013-2.013-2.013zM303.51 411.741h-6.311a2.012 2.012 0 00-2.012 2.013v6.312c0 1.112.901 2.013 2.012 2.013h6.311a2.013 2.013 0 002.013-2.013v-6.312c-.021-1.112-.923-2.013-2.013-2.013zM50.573 339.282c0 .063 0 .105.021.168 0 .02 0 .041.021.062v.063c0 .042.021.084.042.126v.021c0 .042.021.084.042.126v.042c0 .021.021.042.021.042 0 .021.021.042.021.063.021.042.063.084.084.147.02.041.042.104.084.146.188.294 4.843 7.571 13.376 14.911 11.385 9.793 24.28 14.952 37.321 14.952 13.041 0 25.936-5.18 37.32-14.952 8.345-7.172 12.958-14.261 13.356-14.89l.021-.021.063-.125c.042-.063.063-.126.105-.189 0-.021 0-.021.021-.021v-.021c.021-.063.042-.105.042-.168.021-.063.042-.105.042-.168v-.042-.021c0-.063.021-.125.021-.188s.021-.126.021-.168v-.042-.042c0-.063 0-.105-.021-.168 0-.063 0-.126-.021-.188v-.021-.042c-.021-.063-.042-.105-.042-.168-.021-.063-.021-.126-.063-.168v-.021s0-.021-.021-.021c-.021-.063-.063-.105-.084-.168v-.021a14.512 14.512 0 00-.063-.125s0-.021-.021-.021c-.398-.63-5.032-7.718-13.356-14.89-11.384-9.793-24.279-14.952-37.32-14.952s-25.936 5.18-37.32 14.952c-8.534 7.34-13.189 14.617-13.377 14.932-.021.041-.042.104-.063.146-.021.042-.063.105-.084.147 0 .021 0 .042-.021.063l-.063.189a.39.39 0 00-.042.147v.062c0 .021 0 .042-.02.063 0 .042 0 .105-.022.147 0 .042-.02.105-.02.147v.126c-.022-.042 0 0 0 .042zm79.275 17.322c-7.506 5.075-17.067 9.206-28.284 9.206-10.714 0-19.918-3.775-27.256-8.535-1.07-.692-.294-2.349.922-1.93 7.59 2.538 15.977 3.943 24.761 4.027h.923c9.854 0 19.394-1.636 27.949-4.677 1.216-.419 2.033 1.196.985 1.909zm-21.302-22.691a4.644 4.644 0 014.654-4.655 4.645 4.645 0 014.655 4.655 4.645 4.645 0 01-4.655 4.656 4.658 4.658 0 01-4.654-4.656zm35.706 2.601a3.251 3.251 0 010 5.137c-5.598 4.32-12.412 7.718-19.939 10.004-1.174.356-2.16-.944-1.489-1.993a19.634 19.634 0 003.082-10.59c0-3.901-1.132-7.528-3.082-10.569-.671-1.049.315-2.349 1.489-1.992 7.527 2.306 14.341 5.683 19.939 10.003zm-70.007-15.582c7.359-4.781 16.563-8.556 27.34-8.556 11.217 0 20.757 4.131 28.263 9.206 1.048.713.21 2.328-.985 1.909-8.555-3.041-18.095-4.677-27.949-4.677h-.922c-8.806.105-17.214 1.489-24.825 4.048-1.174.398-1.97-1.238-.922-1.93zm-15.62 15.665c8.24-6.689 19.226-11.114 31.554-12.75 1.216-.168 1.971 1.258 1.174 2.181a19.634 19.634 0 00-4.948 13.065c0 5.012 1.866 9.584 4.948 13.065.797.902.042 2.328-1.174 2.181-12.307-1.636-23.294-6.061-31.555-12.75a3.204 3.204 0 010-4.992zM101.27 299.991a1.648 1.648 0 001.928-1.3c.231-1.153.336-2.328.42-3.481.083-1.154.104-2.328.125-3.481 0-1.154-.042-2.328-.125-3.482-.084-1.153-.189-2.327-.42-3.481a1.63 1.63 0 00-1.299-1.3 1.65 1.65 0 00-1.929 1.3c-.23 1.154-.335 2.328-.419 3.481-.084 1.154-.105 2.328-.126 3.482.021 1.153.042 2.327.126 3.481.084 1.153.189 2.328.42 3.481.125.65.628 1.174 1.299 1.3zM79.023 297.846c.314.755.65 1.468 1.048 2.181.378.713.818 1.405 1.342 2.055.356.419.923.692 1.51.608.922-.105 1.572-.944 1.467-1.887-.105-.839-.314-1.636-.545-2.391a26.444 26.444 0 00-.838-2.265 23.269 23.269 0 00-1.07-2.181 18.208 18.208 0 00-1.32-2.076 1.675 1.675 0 00-2.977 1.258c.125.818.335 1.615.565 2.391.23.797.503 1.552.818 2.307zM62.963 308.083c.336.44.692.859 1.09 1.237.399.377.84.755 1.364 1.028a1.754 1.754 0 002.558-1.993c-.147-.587-.399-1.09-.671-1.573a8.811 8.811 0 00-.944-1.363c-.335-.44-.713-.839-1.111-1.237-.42-.378-.839-.755-1.342-1.049a1.756 1.756 0 00-1.384-.167 1.736 1.736 0 00-1.174 2.16c.168.566.42 1.069.692 1.552.293.503.608.964.922 1.405zM137.731 310.368c.525-.294.965-.65 1.363-1.028a8.629 8.629 0 001.091-1.237c.335-.44.65-.902.922-1.384.273-.482.524-.985.692-1.552.126-.44.084-.943-.168-1.384a1.744 1.744 0 00-2.39-.629c-.503.294-.943.671-1.342 1.049-.398.377-.776.797-1.111 1.237-.336.44-.65.881-.944 1.363-.272.482-.524.986-.67 1.573a1.84 1.84 0 00.167 1.321c.462.839 1.531 1.132 2.39.671zM121.754 302.106c.524-.651.964-1.343 1.342-2.056.377-.713.734-1.447 1.048-2.181.315-.755.587-1.51.839-2.285.23-.776.461-1.573.566-2.391a1.68 1.68 0 00-.629-1.552 1.67 1.67 0 00-2.348.294c-.525.65-.944 1.363-1.321 2.076-.399.713-.734 1.447-1.07 2.181a17.219 17.219 0 00-.838 2.265 13.067 13.067 0 00-.545 2.39 1.708 1.708 0 00.608 1.51c.691.566 1.761.462 2.348-.251zM369.911 238.393c0 .063 0 .105.021.168 0 .021.021.021.021.042v.063c0 .021.021.063.021.083 0 .021.021.042.021.063.021.063.021.105.041.147 0 .021.021.021.021.042.021.063.063.126.105.189.021.042.042.105.063.147.189.314 4.843 7.57 13.377 14.91 11.385 9.793 24.279 14.952 37.299 14.952 13.021 0 25.936-5.18 37.321-14.952 8.345-7.172 12.957-14.26 13.356-14.889 0-.021.021-.021.021-.021l.062-.126a.851.851 0 01.105-.189s.021-.021.021-.042v-.021c.021-.063.042-.105.042-.168.021-.062.042-.104.042-.167v-.042-.021c0-.063.021-.126.021-.168 0-.063.021-.126.021-.168v-.042-.042c0-.063-.021-.105-.021-.167 0-.063 0-.126-.021-.189v-.021-.042c-.021-.063-.042-.105-.042-.168-.021-.063-.021-.126-.063-.168v-.021c0-.021-.021-.021-.021-.042-.021-.062-.063-.104-.084-.167a1.033 1.033 0 01-.062-.147l-.021-.021c-.399-.629-5.032-7.717-13.356-14.889-11.385-9.794-24.279-14.953-37.321-14.953-13.02 0-25.935 5.18-37.299 14.953-8.534 7.339-13.188 14.616-13.377 14.91-.021.042-.042.105-.063.147-.021.042-.063.084-.084.146 0 .021-.021.042-.021.063 0 .021-.021.021-.021.042s-.02.063-.02.084c0 .021 0 .042-.021.063a.39.39 0 00-.042.147v.063c0 .021-.021.042-.021.042v.147c0 .042-.021.104-.021.146v.126c-.021.063 0 .126 0 .168zm79.295 17.301c-7.506 5.075-17.067 9.206-28.284 9.206-10.714 0-19.918-3.775-27.256-8.535-1.069-.692-.294-2.349.922-1.929 7.59 2.537 15.977 3.942 24.762 4.026h.922c9.855 0 19.394-1.636 27.949-4.676 1.195-.42 2.034 1.195.985 1.908zm-42.289-23.76a4.645 4.645 0 014.654-4.656 4.646 4.646 0 014.655 4.656 4.645 4.645 0 01-4.655 4.655 4.657 4.657 0 01-4.654-4.655zm57.825 4.593a2.137 2.137 0 010 3.313c-8.26 6.753-19.394 11.408-31.701 13.316-1.153.168-1.929-1.174-1.153-2.076a19.621 19.621 0 004.801-12.897c0-4.928-1.803-9.437-4.801-12.897-.755-.881 0-2.244 1.153-2.076 12.307 1.908 23.462 6.564 31.701 13.317zm-71.076-16.525c7.338-4.761 16.542-8.536 27.256-8.536 11.238 0 20.778 4.132 28.305 9.228 1.049.713.231 2.327-.964 1.908-8.827-3.125-18.723-4.781-28.892-4.677-8.785.084-17.172 1.489-24.762 4.027-1.237.398-1.992-1.258-.943-1.95zm-16.752 16.567c6.059-5.222 13.754-9.144 22.413-11.555 1.132-.315 2.034.964 1.363 1.929a19.59 19.59 0 00-3.523 11.24c0 4.173 1.3 8.053 3.523 11.241.671.964-.231 2.264-1.363 1.929-8.68-2.412-16.354-6.354-22.413-11.555a2.132 2.132 0 010-3.229zM420.609 199.094a1.649 1.649 0 001.928-1.3c.231-1.154.336-2.328.42-3.482.083-1.153.104-2.327.125-3.481 0-1.153-.042-2.328-.125-3.481-.084-1.153-.189-2.328-.42-3.481a1.63 1.63 0 00-1.299-1.3 1.649 1.649 0 00-1.929 1.3c-.23 1.153-.335 2.328-.419 3.481-.084 1.153-.105 2.328-.126 3.481.021 1.154.042 2.328.126 3.481.084 1.154.189 2.328.419 3.482a1.66 1.66 0 001.3 1.3zM398.366 196.939c.314.755.65 1.468 1.048 2.181.377.713.818 1.405 1.342 2.055.356.419.922.692 1.509.608.923-.105 1.573-.944 1.468-1.887-.105-.839-.314-1.636-.545-2.391a26.412 26.412 0 00-.839-2.265 23.24 23.24 0 00-1.069-2.181 18.18 18.18 0 00-1.321-2.076 1.674 1.674 0 00-2.977 1.258c.126.818.335 1.615.566 2.391.231.818.503 1.573.818 2.307zM382.326 207.175c.336.44.692.86 1.09 1.237.399.378.839.755 1.363 1.028.378.209.86.293 1.321.167a1.753 1.753 0 001.237-2.16c-.147-.587-.398-1.09-.671-1.572a8.756 8.756 0 00-.943-1.364c-.336-.44-.713-.838-1.111-1.237-.42-.377-.839-.755-1.342-1.048a1.753 1.753 0 00-1.384-.168 1.735 1.735 0 00-1.174 2.16c.167.566.419 1.069.692 1.552.272.524.587.985.922 1.405zM457.069 209.449c.524-.293.964-.65 1.363-1.027a8.746 8.746 0 001.09-1.238c.335-.44.65-.901.922-1.384.273-.482.524-.985.692-1.552.126-.44.084-.943-.168-1.384a1.745 1.745 0 00-2.39-.629c-.503.294-.943.671-1.341 1.049-.399.377-.776.797-1.112 1.237-.335.44-.65.881-.943 1.363-.273.482-.524.986-.671 1.573-.105.419-.063.902.168 1.321.482.839 1.551 1.154 2.39.671zM441.096 201.194a12.77 12.77 0 001.341-2.055 29.65 29.65 0 001.049-2.181c.314-.755.587-1.51.838-2.286.231-.776.462-1.572.567-2.39a1.683 1.683 0 00-.629-1.552 1.67 1.67 0 00-2.349.293c-.524.651-.943 1.364-1.321 2.077-.398.713-.733 1.447-1.069 2.181a17.3 17.3 0 00-.839 2.264c-.251.776-.44 1.573-.545 2.391a1.713 1.713 0 00.608 1.51 1.65 1.65 0 002.349-.252z" fill="#323A45"/><path d="M454.026 106.067v35.902c0 5.096-4.13 9.249-9.246 9.249h-33.316c-.084 0-.167.021-.251.021-.063 0-.126.021-.168.021-.084.021-.147.041-.231.062a1.424 1.424 0 00-.167.063c-.063.021-.126.063-.189.105-.063.042-.126.063-.189.105-.021.021-.042.021-.042.021l-24.132 17.993c-.839.629-2.013-.147-1.761-1.153l3.417-14.596v-.042c0-.042.021-.084.021-.147.021-.105.021-.21.042-.293v-.021-.084c0-.105-.021-.231-.042-.336 0-.042-.021-.084-.042-.126a1.044 1.044 0 00-.084-.272l-.063-.126c-.042-.084-.083-.168-.125-.231-.021-.042-.063-.084-.084-.126-.063-.062-.105-.146-.168-.209-.042-.042-.084-.063-.105-.105-.063-.063-.126-.126-.209-.168-.042-.042-.105-.063-.147-.084a.98.98 0 00-.21-.105c-.063-.021-.147-.042-.21-.063-.063-.021-.104-.041-.167-.062h-.042c-.063-.021-.126-.021-.21-.021-.084 0-.147-.021-.231-.021h-5.241c-5.095 0-9.246-4.132-9.246-9.249v-35.902c0-5.095 4.13-9.248 9.246-9.248h64.388c5.053.021 9.204 4.153 9.204 9.248z" fill="#fff"/><path d="M366.832 106.067v35.902c0 7.487 6.059 13.568 13.565 13.568 1.111 0 1.971.923 1.971 1.972 0 .146-.021.314-.063.461l-4.277 18.286a2.18 2.18 0 00.922 2.307c.357.231.776.357 1.174.357.462 0 .902-.147 1.3-.42l30.36-22.627c.272-.21.608-.315.964-.315.441 0 .839.189 1.133.462.293.293.461.692.461 1.132v3.481c0 6.061 4.906 10.989 10.965 10.989h21.491c2.306 0 4.529.734 6.374 2.118l20.841 15.539c.377.294.838.42 1.3.42.587 0 1.174-.231 1.614-.713.503-.546.65-1.321.482-2.013l-3.291-14.051a1.04 1.04 0 011.006-1.279 11.02 11.02 0 007.758-3.209 10.94 10.94 0 003.207-7.759v-27.828c0-6.061-4.906-10.968-10.986-10.968h-13.167c-2.013 0-3.627-1.636-3.627-3.649v-12.142c0-7.486-6.081-13.568-13.566-13.568h-64.388c-7.464 0-13.523 6.06-13.523 13.547zm87.2 0v35.902c0 5.096-4.131 9.248-9.247 9.248h-33.316c-.083 0-.167.021-.251.021-.063 0-.126.021-.168.021-.084.021-.147.042-.231.063-.062.021-.125.042-.167.063-.063.021-.126.063-.189.105-.063.042-.126.063-.189.105-.021.021-.042.021-.042.021L386.1 169.609c-.839.629-2.013-.147-1.761-1.154l3.417-14.595v-.042c0-.042.021-.084.021-.147.021-.105.021-.21.042-.294v-.021-.084c0-.104-.021-.23-.042-.335 0-.042-.021-.084-.042-.126a1.04 1.04 0 00-.084-.273 14.512 14.512 0 01-.063-.125 2.111 2.111 0 00-.125-.231c-.021-.042-.063-.084-.084-.126-.063-.063-.105-.147-.168-.21-.042-.042-.084-.062-.105-.104-.063-.063-.126-.126-.209-.168-.042-.042-.105-.063-.147-.084a.98.98 0 00-.21-.105c-.063-.021-.147-.042-.21-.063-.062-.021-.104-.042-.167-.063h-.042c-.063-.021-.126-.021-.21-.021-.084 0-.147-.021-.23-.021h-5.242c-5.095 0-9.246-4.131-9.246-9.248v-35.902c0-5.096 4.13-9.248 9.246-9.248h64.388c5.053.021 9.205 4.152 9.205 9.248z" fill="#323A45"/><path d="M389.645 143.88c3.523-1.111 6.961-2.684 10.106-4.844.399-.252.776-.566 1.153-.86.378-.294.776-.587 1.133-.902a1.749 1.749 0 012.075-.146c.042.021.084.041.126.083 3.523 2.16 7.695 3.041 11.741 2.769a22.242 22.242 0 009.624-3.083 1.609 1.609 0 011.866.147 28.637 28.637 0 004.78 3.103c.86.441 1.971.063 2.328-1.006.188-.629-.042-1.3-.566-1.72l-.021-.021a61.286 61.286 0 01-3.271-2.768 1.387 1.387 0 01-.063-1.95c.356-.378.692-.755.839-.944.314-.398.65-.755.922-1.174l.839-1.217c.293-.398.503-.838.755-1.237.251-.419.482-.839.713-1.279.922-1.72 1.677-3.544 2.18-5.495.503-1.95.776-4.026.482-6.207-.042-.545-.188-1.09-.314-1.636-.189-.545-.357-1.111-.629-1.635-.524-1.07-1.321-2.16-2.495-2.936-1.153-.797-2.726-1.154-4.152-.923-1.425.21-2.599.902-3.501 1.657-1.824 1.573-2.831 3.481-3.585 5.347a24.755 24.755 0 00-.923 2.831l-.335 1.426-.252 1.447c-.272 1.951-.356 4.006 0 6.061.189 1.195.902 2.978 1.468 4.257.44 1.007.042 2.223-.965 2.705h-.021a17.067 17.067 0 01-6.08 1.594c-2.327.168-4.655-.21-6.793-1.028-.419-.167-1.132-.524-1.719-.838-.504-.273-.65-.923-.315-1.363.336-.462.629-.923.923-1.385 1.027-1.635 1.887-3.355 2.641-5.095a50.505 50.505 0 001.908-5.348c.525-1.845.923-3.754 1.049-5.767.126-1.992 0-4.089-.713-6.207-.378-1.049-.923-2.118-1.74-3.062-.797-.944-1.929-1.762-3.229-2.16-1.3-.42-2.747-.357-3.963.021-1.237.377-2.285 1.048-3.166 1.824-.88.776-1.551 1.657-2.117 2.58-.273.461-.546.922-.755 1.405-.105.23-.231.482-.336.713l-.272.713c-.378.964-.629 1.95-.818 2.873l-.315 1.405-.23 1.447c-.189.944-.21 1.929-.294 2.915-.063.482-.021.985-.021 1.489.021.503-.021.985.042 1.489a22.329 22.329 0 001.216 5.913 18.154 18.154 0 002.789 5.075.967.967 0 01-.126 1.28 23.538 23.538 0 01-1.929 1.593c-2.684 2.035-5.724 3.712-8.911 5.138a1.627 1.627 0 00-.817 2.118c.335.692 1.237 1.07 2.054.818zm35.979-22.523c.231-1.614.671-3.25 1.258-4.718.294-.734.65-1.426 1.027-2.055.399-.587.818-1.174 1.3-1.531.462-.377.923-.608 1.3-.65.378-.042.671.021 1.007.231.671.44 1.321 1.635 1.446 3.04.189 1.405.021 2.957-.398 4.488-.398 1.531-1.027 3.062-1.824 4.53a18.18 18.18 0 01-.608 1.09c-.21.357-.419.734-.65 1.07l-.692 1.006c-.231.336-.503.63-.755.944-.482.608-1.425.441-1.719-.272a12.75 12.75 0 01-.692-2.475c-.293-1.489-.252-3.083 0-4.698zm-25.705-2.264c.063-.818.084-1.636.231-2.475l.188-1.237.273-1.237c.189-.839.377-1.594.65-2.328l.21-.545c.062-.168.167-.336.23-.525.147-.356.357-.65.524-.985.399-.609.818-1.175 1.3-1.594.483-.42.986-.734 1.468-.881.482-.147.943-.168 1.342-.042.419.126.817.378 1.174.818.356.419.671.986.901 1.615.441 1.3.588 2.873.483 4.467-.105 1.593-.42 3.25-.86 4.865a44.35 44.35 0 01-1.698 4.844 36.286 36.286 0 01-2.286 4.509c-.062.105-.146.23-.209.335-.399.629-1.321.608-1.719-.042a13.899 13.899 0 01-1.217-2.516c-.503-1.489-.859-3.041-.964-4.656-.063-.398-.021-.818-.042-1.216.021-.357-.042-.755.021-1.174zM481.411 326.111h-41.115a8.626 8.626 0 00-8.638 8.64v2.642a2.81 2.81 0 01-2.81 2.81h-6.709c-4.969 0-9.016 3.817-9.016 8.514v5.222c0 9.248 6.982 16.986 16.27 18.895 1.3.272 2.265 1.405 2.265 2.747 0 6.71 2.725 12.771 7.107 17.175a24.176 24.176 0 0017.172 7.109h9.833c13.419 0 24.28-10.884 24.28-24.284v-40.83c0-4.761-3.879-8.64-8.639-8.64zm-49.774 39.194c0 1.95-1.929 3.293-3.774 2.621-6.102-2.18-10.421-7.633-10.421-13.987v-5.222c0-2.306 2.097-4.194 4.697-4.194h6.709a2.81 2.81 0 012.81 2.81v17.972h-.021zm54.051 5.809c0 3.271-2.662 5.935-5.954 5.935H441.91a5.956 5.956 0 01-5.954-5.914v-36.342a4.313 4.313 0 014.319-4.32h41.115c2.39 0 4.319 1.95 4.319 4.32.021-.042 0 24.682-.021 36.321zM535.362 262.051h-10.777a7.777 7.777 0 01-7.779-7.78v-.042c0-3.838 2.789-7.109 6.563-7.696 2.495-.378 4.592-1.028 5.535-2.098 1.845-2.055 3.019-4.802 2.348-7.906-.88-4.026-4.57-6.794-8.68-6.794h-29.08c-2.37 0-4.529.965-6.081 2.537-1.698 1.699-2.956 4.132-2.516 6.711.86 4.928 4.34 6.878 9.184 7.612 3.774.567 6.562 3.859 6.562 7.697 0 4.299-3.48 7.78-7.778 7.78h-14.027a8.522 8.522 0 00-6.08 2.537c-1.699 1.699-2.705 4.09-2.516 6.711.314 4.551 4.277 7.99 8.827 7.99h5.912a7.566 7.566 0 017.569 7.57 7.567 7.567 0 01-7.569 7.571h-44.03a8.522 8.522 0 00-6.08 2.537c-1.573 1.573-2.537 3.712-2.537 6.082 0 4.739 3.879 8.619 8.617 8.619h76.256a8.522 8.522 0 006.08-2.537c1.573-1.573 2.537-3.712 2.537-6.082 0-4.739-3.879-8.619-8.617-8.619h-.902a7.567 7.567 0 01-7.569-7.571 7.566 7.566 0 017.569-7.57h19.08a8.522 8.522 0 006.08-2.537 8.596 8.596 0 002.537-6.082c-.021-4.76-3.9-8.64-8.638-8.64z" fill="#323A45"/><path d="M421.656 476.435a4.313 4.313 0 01-4.319 4.32H270.319a4.313 4.313 0 01-4.319-4.32v-14.407c0-2.39 1.929-4.32 4.319-4.32h8.009a2.953 2.953 0 012.936 2.832l.356 9.227c.042.88.776 1.593 1.698 1.552.86-.042 1.51-.797 1.552-1.636l.356-9.143a2.953 2.953 0 012.936-2.832h10.588c1.551 0 2.83 1.217 2.935 2.769l.252 4.089c.063.86.775 1.552 1.677 1.51.839-.021 1.51-.755 1.573-1.594l.251-4.005c.105-1.552 1.384-2.769 2.935-2.769h10.589a2.952 2.952 0 012.935 2.832l.356 9.227c.042.88.776 1.593 1.699 1.552.859-.042 1.509-.797 1.551-1.636l.357-9.143a2.951 2.951 0 012.935-2.832h10.588c1.552 0 2.83 1.217 2.935 2.769l.252 4.089c.063.86.776 1.552 1.677 1.51.839-.021 1.51-.755 1.573-1.594l.251-4.005c.105-1.552 1.384-2.769 2.936-2.769h10.588a2.938 2.938 0 012.935 2.832l.357 9.227c.041.88.775 1.593 1.698 1.552.859-.042 1.509-.797 1.551-1.636l.357-9.143a2.952 2.952 0 012.935-2.832h10.588c1.552 0 2.831 1.217 2.936 2.769l.272 4.089c.063.86.776 1.552 1.677 1.51.839-.021 1.51-.755 1.552-1.594l.252-4.005c.104-1.552 1.383-2.769 2.935-2.769h10.588a2.952 2.952 0 012.935 2.832l.357 9.227c.042.88.775 1.593 1.698 1.552.86-.042 1.51-.797 1.552-1.636l.356-9.143a2.952 2.952 0 012.935-2.832h7.129c2.39 0 4.319 1.93 4.319 4.32v14.407h.147z" fill="#fff"/><path d="M417.343 453.389H270.326c-4.76 0-8.638 3.88-8.638 8.64v14.407c0 4.76 3.878 8.64 8.638 8.64h147.017c4.76 0 8.638-3.88 8.638-8.64v-14.407c0-4.76-3.878-8.64-8.638-8.64zm4.319 23.047a4.313 4.313 0 01-4.319 4.32H270.326a4.313 4.313 0 01-4.319-4.32v-14.407a4.313 4.313 0 014.319-4.32h8.009a2.952 2.952 0 012.935 2.831l.357 9.227a1.622 1.622 0 001.698 1.552c.86-.042 1.51-.797 1.552-1.636l.356-9.143a2.952 2.952 0 012.935-2.831h10.588c1.552 0 2.831 1.216 2.936 2.768l.251 4.09c.063.859.776 1.551 1.678 1.509.838-.02 1.509-.754 1.572-1.593l.252-4.006c.105-1.552 1.384-2.768 2.935-2.768h10.588a2.95 2.95 0 012.935 2.831l.357 9.227a1.622 1.622 0 001.698 1.552c.86-.042 1.51-.797 1.552-1.636l.356-9.143a2.952 2.952 0 012.935-2.831h10.589c1.551 0 2.83 1.216 2.935 2.768l.251 4.09c.063.859.776 1.551 1.678 1.509.838-.02 1.509-.754 1.572-1.593l.252-4.006c.105-1.552 1.384-2.768 2.935-2.768h10.588a2.938 2.938 0 012.936 2.831l.356 9.227a1.622 1.622 0 001.698 1.552c.86-.042 1.51-.797 1.552-1.636l.356-9.143a2.952 2.952 0 012.936-2.831h10.588c1.551 0 2.83 1.216 2.935 2.768l.273 4.09c.063.859.775 1.551 1.677 1.509.839-.02 1.51-.754 1.552-1.593l.251-4.006c.105-1.552 1.384-2.768 2.935-2.768h10.589a2.952 2.952 0 012.935 2.831l.356 9.227a1.623 1.623 0 001.699 1.552c.859-.042 1.509-.797 1.551-1.636l.357-9.143a2.95 2.95 0 012.935-2.831h7.129a4.313 4.313 0 014.319 4.32v14.407h.146zM385.177 513.326l-26.963-9.185c-.021 0-.042-.021-.063-.021-.042-.021-.105-.021-.147-.042-.084-.021-.168-.042-.252-.042-.041 0-.104-.021-.146-.021H252.899a7.115 7.115 0 00-7.108 7.109v8.452a7.115 7.115 0 007.108 7.109h104.623c.126 0 .23-.021.356-.021.021 0 .042-.021.063-.021.084-.021.189-.042.273-.063l26.963-9.185a2.169 2.169 0 001.467-2.056c0-.88-.587-1.698-1.467-2.013zm-112.633 6.312a2.766 2.766 0 01-2.767 2.769 2.76 2.76 0 01-1.95-.818 2.764 2.764 0 01-.818-1.951v-8.535a2.765 2.765 0 012.768-2.768 2.765 2.765 0 012.767 2.768v8.535zm78.415 2.769h-71.328a2.766 2.766 0 01-2.768-2.769v-8.535a2.765 2.765 0 012.768-2.768h71.182c1.341 0 2.264 1.279 1.928 2.559-.859 3.208-.587 6.312.147 8.954.357 1.3-.608 2.559-1.929 2.559zm16.669-5.851c0 1.363-.86 2.579-2.16 3.02l-5.367 1.824a1.993 1.993 0 01-2.495-1.132c-1.007-2.433-1.803-6.082-.126-9.899.419-.943 1.489-1.384 2.453-1.069l5.514 1.866a3.182 3.182 0 012.16 3.02v2.37h.021z" fill="#323A45"/><path d="M204.528 531.339a4.313 4.313 0 01-4.319 4.32h-60.887a4.313 4.313 0 01-4.319-4.32V476.5a3.24 3.24 0 013.25-3.25h63.025a3.24 3.24 0 013.25 3.25v54.839zm0-65.66a3.24 3.24 0 01-3.25 3.251h-63.025a3.24 3.24 0 01-3.25-3.251v-6.354a4.313 4.313 0 014.319-4.32h7.548c.755 0 1.363.587 1.405 1.342 0 .084 0 .168.021.252.084 1.216.188 2.432.398 3.628.126.713.713 1.3 1.51 1.363.859.063 1.614-.608 1.761-1.447.21-1.175.314-2.349.398-3.523 0-.084.021-.168.021-.252a1.42 1.42 0 011.405-1.342h12.265c.755 0 1.363.587 1.405 1.342 0 .084 0 .168.021.252.084 1.216.189 2.432.419 3.628.126.713.713 1.3 1.51 1.342.86.063 1.615-.587 1.761-1.447.21-1.175.315-2.349.399-3.523 0-.084.021-.168.021-.252a1.42 1.42 0 011.404-1.342h12.266c.755 0 1.363.587 1.405 1.342 0 .084.021.168.021.252.083 1.216.188 2.432.398 3.628.126.713.713 1.3 1.51 1.363.859.063 1.614-.608 1.761-1.468.188-1.175.314-2.349.377-3.544 0-.084.021-.168.021-.252a1.42 1.42 0 011.405-1.342h8.072a4.313 4.313 0 014.319 4.32v6.354h-.021z" fill="#fff"/><path d="M200.208 450.706h-8.051a1.405 1.405 0 01-1.404-1.342v-.021c-.084-1.216-.21-2.433-.441-3.628-.147-.692-.713-1.258-1.467-1.321-.86-.084-1.615.566-1.783 1.426-.23 1.174-.335 2.349-.419 3.523v.021a1.406 1.406 0 01-1.405 1.342h-12.244a1.406 1.406 0 01-1.405-1.342v-.021c-.084-1.216-.189-2.433-.419-3.628a1.65 1.65 0 00-1.468-1.342c-.86-.084-1.635.587-1.782 1.447a28.518 28.518 0 00-.398 3.523v.021c-.063.755-.671 1.342-1.405 1.342h-12.266a1.406 1.406 0 01-1.404-1.342v-.021c-.084-1.216-.21-2.433-.441-3.628-.147-.692-.713-1.258-1.467-1.321-.86-.084-1.636.587-1.783 1.426-.23 1.174-.335 2.349-.419 3.523v.021a1.406 1.406 0 01-1.405 1.342h-7.527a8.627 8.627 0 00-8.638 8.64v72.014c0 4.781 3.879 8.64 8.638 8.64h60.887a8.627 8.627 0 008.639-8.64v-72.014c-.084-4.781-3.963-8.64-8.723-8.64zm4.32 80.633a4.313 4.313 0 01-4.32 4.32h-60.887a4.313 4.313 0 01-4.319-4.32V476.5a3.24 3.24 0 013.25-3.25h63.026a3.24 3.24 0 013.25 3.25v54.839zm0-65.66a3.24 3.24 0 01-3.25 3.251h-63.026a3.24 3.24 0 01-3.25-3.251v-6.354a4.313 4.313 0 014.319-4.32h7.548c.755 0 1.363.587 1.405 1.342 0 .084 0 .168.021.252.084 1.216.189 2.432.399 3.628.125.713.712 1.3 1.509 1.363.86.063 1.615-.608 1.761-1.447.21-1.174.315-2.349.399-3.523 0-.084.021-.168.021-.252a1.42 1.42 0 011.404-1.342h12.266c.755 0 1.363.587 1.405 1.342 0 .084 0 .168.021.252.083 1.216.188 2.432.419 3.628.126.713.713 1.3 1.51 1.342.859.063 1.614-.587 1.761-1.447.209-1.174.314-2.349.398-3.523 0-.084.021-.168.021-.252a1.42 1.42 0 011.405-1.342h12.265c.755 0 1.363.587 1.405 1.342 0 .084.021.168.021.252.084 1.216.189 2.432.398 3.628.126.713.713 1.3 1.51 1.363.86.063 1.614-.608 1.761-1.468a33.23 33.23 0 00.378-3.544c0-.084.021-.168.021-.252a1.42 1.42 0 011.404-1.342h8.072a4.313 4.313 0 014.32 4.32v6.354h-.021z" fill="#323A45"/><path d="M188.7 486.752h-27.382c-1.195 0-2.16.964-2.16 2.159 0 1.195.965 2.159 2.16 2.159h27.361c1.195 0 2.16-.964 2.16-2.159a2.139 2.139 0 00-2.139-2.159zM188.7 502.691h-27.382c-1.195 0-2.16.964-2.16 2.159 0 1.195.965 2.159 2.16 2.159h27.361c1.195 0 2.16-.964 2.16-2.159a2.126 2.126 0 00-2.139-2.159zM188.7 518.612h-27.382c-1.195 0-2.16.964-2.16 2.159 0 1.195.965 2.159 2.16 2.159h27.361c1.195 0 2.16-.964 2.16-2.159.021-1.174-.944-2.159-2.139-2.159zM148.067 493.823a4.907 4.907 0 10-.002-9.814 4.907 4.907 0 00.002 9.814zM148.067 509.761a4.907 4.907 0 10-.002-9.814 4.907 4.907 0 00.002 9.814zM148.067 525.672a4.907 4.907 0 10-.002-9.814 4.907 4.907 0 00.002 9.814zM175.426 15.33c3.019.146 6.039.251 9.058.314l4.57.105 4.571.063c1.384.021 2.768.021 4.152.042 1.488 0 2.683 1.216 2.683 2.705v5.18a3.66 3.66 0 003.669 3.67h10.484a3.66 3.66 0 003.669-3.67v-5.096a2.712 2.712 0 012.705-2.705l27.571.105 36.628-.063c12.203-.063 24.426.147 36.629-.65.859-.063 1.551-.776 1.509-1.678-.021-.839-.754-1.51-1.593-1.573-12.182-.797-24.363-.566-36.545-.65l-36.628-.063-27.571.105a2.698 2.698 0 01-2.705-2.705V3.67A3.66 3.66 0 00214.613 0h-10.484a3.66 3.66 0 00-3.669 3.67v5.18a2.707 2.707 0 01-2.683 2.705c-1.384 0-2.768.02-4.152.042l-4.571.063-4.57.105a334.18 334.18 0 00-9.163.314 1.622 1.622 0 00-1.551 1.699c.042.86.797 1.51 1.656 1.552zM321.752 41.42c-12.182-.777-24.363-.588-36.545-.65l-15.871-.043a2.712 2.712 0 01-2.705-2.705v-5.264a3.66 3.66 0 00-3.669-3.67h-10.484a3.66 3.66 0 00-3.669 3.67v5.243c0 1.489-1.195 2.705-2.684 2.705l-34.175.126-18.304.084c-3.061.02-6.101.063-9.162.168-3.061.084-6.101.188-9.163.356a1.614 1.614 0 00-1.53 1.678c.021.86.755 1.51 1.614 1.552 3.019.167 6.06.272 9.079.356 3.061.084 6.101.147 9.162.168l18.304.084 34.175.126c1.489 0 2.684 1.216 2.684 2.705v4.74a3.66 3.66 0 003.669 3.67h10.484a3.66 3.66 0 003.669-3.67v-4.782a2.698 2.698 0 012.705-2.705l15.871-.042c12.203-.063 24.426.126 36.629-.65.859-.063 1.551-.776 1.509-1.678-.021-.86-.754-1.51-1.593-1.573z" fill="#323A45"/><path d="M117.015 268.132c-17.234.063-87.388.063-104.623 0-1.258 0-1.782-1.594-.797-2.37L60.07 228.56c2.726-2.097 6.542-2.097 9.288 0l48.475 37.202c.964.776.44 2.349-.818 2.37zm5.074-67.044c1.237-.922 2.998-.021 2.998 1.51v53.35s-.042 1.552-.125 3.397c-.126 2.643-3.145 4.048-5.242 2.433l-34.972-26.843c-2.097-1.615-2.055-4.76.063-6.333l37.278-27.514zM18.724 174.204a5.19 5.19 0 015.179-5.18H105.505a5.19 5.19 0 015.178 5.18v22.942c0 4.404-2.096 8.535-5.64 11.156l-22.937 16.924a8.427 8.427 0 01-10.127-.105 11.872 11.872 0 00-7.275-2.475c-2.558 0-5.137.818-7.276 2.475a8.473 8.473 0 01-10.148.105l-22.937-16.924a13.875 13.875 0 01-5.64-11.156v-22.942h.02zM4.299 202.598c0-1.531 1.761-2.432 2.998-1.51l8.03 5.935.021.021 29.249 21.579c2.117 1.573 2.16 4.718.063 6.333L9.666 261.82c-2.096 1.615-5.116.189-5.241-2.433-.084-1.677-.126-3.041-.126-3.041v-53.748z" fill="#fff"/><path d="M9.812 272.579h109.761c5.43 0 9.833-4.404 9.833-9.835V194.61a1.79 1.79 0 00-.063-.483c0-.021-.021-.042-.021-.063-.042-.125-.084-.251-.147-.377-.021-.042-.042-.063-.063-.105-.063-.105-.125-.21-.209-.314-.021-.021-.042-.063-.063-.084a1.813 1.813 0 00-.294-.273c-.021 0-.021-.021-.042-.042l-.042-.021c-.021 0-.021-.021-.042-.021l-11.384-8.346a5.01 5.01 0 01-2.055-4.069v-6.207c0-5.243-4.256-9.5-9.498-9.5H95.377c-3.46 0-6.835-1.111-9.624-3.145l-13.942-10.213c-4.257-3.125-9.98-3.125-14.258 0L43.611 161.56a16.211 16.211 0 01-9.624 3.145H23.88c-5.242 0-9.498 4.257-9.498 9.5v6.207c0 1.594-.776 3.104-2.055 4.069L.86 192.869l-.063.063c-.084.084-.189.147-.252.252-.042.042-.063.084-.105.126a1.69 1.69 0 00-.167.251c-.021.042-.063.084-.084.147a2.55 2.55 0 00-.105.294.297.297 0 00-.042.146 2.577 2.577 0 00-.042.399v68.218c-.02 5.41 4.382 9.814 9.812 9.814zm107.203-4.446c-17.235.063-87.39.063-104.624 0-1.258 0-1.782-1.593-.796-2.369l48.474-37.203c2.726-2.097 6.542-2.097 9.288 0l48.475 37.203c.965.776.441 2.348-.817 2.369zm5.074-67.043c1.237-.923 2.998-.021 2.998 1.51v53.349s-.042 1.552-.126 3.398c-.126 2.642-3.145 4.047-5.242 2.432l-34.972-26.842c-2.097-1.615-2.055-4.761.063-6.334l37.279-27.513zM18.723 174.205a5.19 5.19 0 015.179-5.18h81.602a5.191 5.191 0 015.179 5.18v22.942a13.88 13.88 0 01-5.64 11.157l-22.938 16.923a8.427 8.427 0 01-10.127-.105 11.877 11.877 0 00-7.275-2.474c-2.558 0-5.137.818-7.275 2.474a8.467 8.467 0 01-10.148.105l-22.938-16.923a13.879 13.879 0 01-5.64-11.157v-22.942h.021zM4.298 202.6c0-1.531 1.761-2.433 2.998-1.51l8.03 5.934.022.021 29.248 21.579c2.118 1.573 2.16 4.719.063 6.334L9.666 261.821c-2.097 1.615-5.116.189-5.242-2.432a177.289 177.289 0 01-.126-3.041V202.6z" fill="#323A45"/><path d="M41.662 216.899c3.522-1.112 6.96-2.685 10.106-4.845.398-.251.776-.566 1.153-.86.377-.293.776-.587 1.132-.901l.063-.042c.545-.483 1.321-.524 1.929-.147l.189.126c3.522 2.16 7.694 3.041 11.741 2.768 3.397-.273 6.71-1.321 9.603-3.083a1.676 1.676 0 011.908.126 28.68 28.68 0 004.78 3.104c.839.44 1.97.063 2.327-1.007.21-.629-.042-1.321-.566-1.719l-.02-.021c-1.091-.86-2.16-1.741-3.146-2.664a1.49 1.49 0 01-.167-2.013c.293-.377.608-.734.796-.986.315-.398.65-.754.923-1.174l.838-1.216c.294-.399.504-.818.755-1.237.252-.42.483-.818.713-1.259.902-1.719 1.678-3.544 2.18-5.494.504-1.95.776-4.026.483-6.228-.042-.546-.189-1.091-.315-1.636-.188-.545-.356-1.112-.629-1.636-.524-1.069-1.32-2.16-2.495-2.936-1.153-.797-2.725-1.153-4.151-.922-1.426.209-2.6.901-3.501 1.656-1.825 1.573-2.83 3.481-3.586 5.348-.377.943-.67 1.887-.922 2.831l-.336 1.426-.251 1.447c-.273 1.95-.357 4.005 0 6.06.21 1.343 1.11 3.44 1.719 4.74.335.734.02 1.573-.692 1.95a17.125 17.125 0 01-6.625 1.866 15.546 15.546 0 01-6.92-1.09c-.272-.105-.67-.315-1.069-.524a1.49 1.49 0 01-.524-2.139c.21-.294.399-.608.587-.902 1.028-1.636 1.887-3.355 2.642-5.096a50.475 50.475 0 001.908-5.347c.524-1.846.922-3.754 1.048-5.767.126-1.993 0-4.09-.712-6.208-.378-1.048-.923-2.118-1.72-3.062-.797-.943-1.929-1.761-3.25-2.16-1.3-.419-2.746-.356-3.962.021-1.237.378-2.286 1.049-3.166 1.825-.88.776-1.552 1.657-2.118 2.579-.272.462-.545.923-.755 1.405-.105.231-.23.483-.335.713l-.273.713c-.377.965-.629 1.951-.817 2.873l-.315 1.405-.23 1.447c-.168.944-.21 1.93-.294 2.915-.063.483-.021.986-.021 1.489.021.504-.021.986.042 1.489a22.013 22.013 0 001.216 5.893 18.732 18.732 0 002.495 4.697c.461.63.377 1.468-.189 1.993-.503.44-1.027.859-1.551 1.279-2.684 2.034-5.724 3.712-8.911 5.159a1.627 1.627 0 00-.818 2.118c.357.755 1.28 1.111 2.076.86zm35.979-22.502c.23-1.615.67-3.251 1.258-4.719.293-.734.629-1.426 1.027-2.055.398-.587.818-1.174 1.3-1.531.461-.377.922-.608 1.3-.65.377-.042.67.021 1.006.231.671.44 1.321 1.636 1.447 3.041.189 1.405.02 2.957-.398 4.488-.399 1.53-1.028 3.061-1.825 4.529-.188.378-.398.734-.608 1.091-.21.356-.419.734-.65 1.069l-.691 1.007c-.231.335-.504.629-.755.944v.02c-.483.609-1.447.483-1.72-.251a14.36 14.36 0 01-.691-2.496c-.273-1.531-.231-3.124 0-4.718zm-25.705-2.286c.063-.818.084-1.636.23-2.474l.189-1.238.273-1.237c.167-.839.377-1.615.65-2.328l.21-.545a5.47 5.47 0 00.23-.503c.146-.357.335-.65.524-.986.398-.608.818-1.174 1.3-1.594.482-.419.985-.734 1.468-.881a2.46 2.46 0 011.341-.041c.42.125.818.377 1.175.817.356.42.67.986.901 1.615.44 1.3.587 2.873.482 4.467-.105 1.594-.419 3.229-.88 4.865a41.463 41.463 0 01-1.699 4.844c-.67 1.573-1.425 3.083-2.306 4.509-.084.126-.147.231-.23.357a.99.99 0 01-1.678-.042 15.572 15.572 0 01-1.237-2.517c-.503-1.489-.86-3.041-.964-4.655-.063-.399-.021-.818-.042-1.217.063-.398.02-.797.063-1.216zM47.405 89.797l13.125 5.809a1.62 1.62 0 002.139-.839c.335-.797-.042-1.72-.797-2.118l-4.907-2.663c-1.551-.839-1.467-3.062.147-3.796l68.268-30.806c.733-.336 1.299.671.649 1.153l-56.61 40.474c-.041.042-.083.063-.125.105-.021.02-.042.02-.063.042a1.028 1.028 0 00-.252.272c-.02.021-.041.042-.041.063-.084.105-.147.21-.21.336v.02c-.063.106-.105.231-.126.357 0 .021 0 .021-.021.042l-.063.378V121.42c0 .839.42 1.657 1.153 2.055.336.189.692.273 1.049.273.566 0 1.132-.231 1.551-.65l11.217-11.22a5.81 5.81 0 016.647-1.09l5.535 2.726c.922.44 2.055.21 2.705-.629l54.303-70.085a.337.337 0 00.084-.146c.021-.021.042-.063.063-.084.063-.105.105-.21.147-.315a.303.303 0 00.041-.147c.021-.063.042-.146.063-.21 0-.041.021-.104.021-.146.021-.105.021-.21.021-.336v-.146c0-.063-.021-.147-.021-.21-.021-.063-.021-.105-.042-.168a2.296 2.296 0 01-.062-.21 1.79 1.79 0 00-.273-.524 2.2 2.2 0 00-2.705-.713L47.363 85.792l-.084.042c-.461.21-.839.566-1.07 1.07-.503 1.069.084 2.41 1.196 2.893zm89.821-34.266l-39.522 51.001a3.468 3.468 0 01-4.257.985l-13.292-6.522c-2.349-1.153-2.621-4.382-.483-5.913l56.61-40.495c.65-.44 1.405.356.944.944zM353.685 56.75c2.474.315 4.76-.398 6.521-1.782.838-.65 2.013-.734 2.956-.251l17.172 8.724c1.027.524 1.635 1.614 1.635 2.768 0 .964.147 1.992.545 3.04 1.237 3.293 4.298 5.62 7.8 5.788 5.451.252 9.854-4.508 9.057-10.045-.503-3.523-3.983-6.92-7.506-7.381a8.698 8.698 0 00-6.415 1.698 3.023 3.023 0 01-3.187.273l-16.899-8.577a3.247 3.247 0 01-1.783-2.894v-.042c0-1.216.692-2.349 1.783-2.915l16.899-8.577a3.023 3.023 0 013.187.273 8.697 8.697 0 006.415 1.698c4.026-.524 7.213-3.837 7.569-7.885.461-5.326-3.837-9.772-9.12-9.542-3.502.147-6.563 2.496-7.8 5.788a8.064 8.064 0 00-.545 3.041c.021 1.154-.587 2.244-1.635 2.768l-17.172 8.724c-.964.482-2.118.399-2.977-.273a8.69 8.69 0 00-5.347-1.845c-5.157 0-9.288 4.467-8.701 9.752.42 3.942 3.586 7.172 7.548 7.675zM78.413 445.903c-1.237-1.908-3.333-2.936-5.45-2.936a5.188 5.188 0 00-.986.021c-1.007.105-1.782.378-2.789-.021-1.027-.398-1.782-1.237-2.411-2.097a.963.963 0 00-.293-.293l-1.762-2.706c-1.195-1.824-.901-4.257.713-5.725 5.955-5.41 9.96-12.645 11.343-20.782 1.447-8.43-.126-17.175-4.466-24.557-5.283-8.996-13.88-15.183-24.007-17.322-9.54-1.992-19.289-.167-27.445 5.159-8.366 5.453-14.027 13.925-15.914 23.76-1.635 8.619-.104 17.595 4.32 25.165 5.283 9.018 13.9 15.225 24.027 17.364 2.516.524 5.053.797 7.57.797 5.073 0 10.063-1.07 14.718-3.146 1.97-.88 4.319-.167 5.493 1.657l2.726 4.173c.272.734.42 1.426.314 2.034-.126.797-.587 1.468-.985 2.16-1.53 2.118-1.698 5.054-.189 7.361l22.665 34.728c1.95 2.978 5.975 3.838 8.974 1.887l4.57-2.998c2.978-1.951 3.837-5.977 1.887-8.976l-22.623-34.707zm-19.98-13.757c-7.192 4.698-15.789 6.313-24.196 4.551-8.408-1.762-15.62-6.711-20.317-13.904-4.696-7.193-6.31-15.791-4.55-24.2 1.762-8.409 6.71-15.623 13.901-20.321 5.305-3.46 11.343-5.243 17.528-5.243 2.223 0 4.466.231 6.668.692 8.407 1.762 15.62 6.711 20.316 13.904 4.697 7.193 6.311 15.791 4.55 24.201-1.761 8.409-6.71 15.623-13.9 20.32zM9.27 311.92c.231-4.005 1.74-6.983 4.508-8.871 2.873-1.95 7.003-2.537 10.316-1.426 2.935.965 5.41 3.188 6.625 5.935.797 1.762 1.426 4.572-.042 7.906-1.845 4.194-4.55 5.327-7.967 6.774-4.13 1.74-9.792 4.131-11.364 12.708a4.313 4.313 0 003.46 5.033c.272.042.524.063.796.063a4.306 4.306 0 004.235-3.544c.734-4.006 2.475-4.719 6.249-6.333 3.92-1.657 9.288-3.943 12.517-11.262 2.138-4.844 2.138-10.129.02-14.889-2.222-5.012-6.541-8.892-11.804-10.632-5.912-1.95-12.747-.986-17.884 2.495-4.97 3.398-7.904 8.913-8.282 15.54-.126 2.39 1.698 4.425 4.068 4.55 2.369.147 4.403-1.677 4.55-4.047zM17.607 353.34a5.263 5.263 0 10-10.35-1.919 5.263 5.263 0 0010.35 1.919z" fill="#323A45"/><path d="M61.014 392.028c-7.255-11.114-22.225-14.26-33.337-7.004-11.112 7.256-14.257 22.208-7.003 33.343 3.522 5.39 8.91 9.081 15.222 10.402 1.656.356 3.334.524 4.99.524 4.612 0 9.162-1.342 13.125-3.921 5.388-3.523 9.078-8.913 10.4-15.225 1.341-6.291.125-12.729-3.397-18.119zm-.818 17.238c-1.09 5.159-4.11 9.605-8.533 12.499-9.12 5.955-21.407 3.376-27.362-5.746-5.954-9.123-3.375-21.411 5.745-27.367a19.581 19.581 0 0110.777-3.209c3.229 0 6.437.797 9.288 2.307 2.873 1.51 5.389 3.754 7.297 6.648 2.872 4.425 3.878 9.709 2.788 14.868z" fill="#323A45"/></svg>