<svg width="576" height="540" fill="none" xmlns="http://www.w3.org/2000/svg"><path d="M570.303 348.666c-3.146 0-5.698 2.531-5.698 5.653 0 3.122 2.552 5.653 5.698 5.653 3.146 0 5.697-2.531 5.697-5.653 0-3.122-2.551-5.653-5.697-5.653zM283.243 187.685c.51 3.291 3.338 5.674 6.74 5.674h.085a10.628 10.628 0 014.614.992c3.53 1.624 5.89 5.02 6.166 8.859.298 3.944-1.743 7.741-5.294 9.914l-3.934 2.404c-2.296 1.414-3.529 4.029-3.125 6.666l1.68 11.053c.51 3.29 3.338 5.674 6.74 5.674H297.085c1.573 0 3.083.337 4.507.991a10.688 10.688 0 016.167 8.859c.297 3.945-1.744 7.741-5.295 9.914l-3.933 2.405c-2.297 1.413-3.53 4.029-3.126 6.665l1.616 10.673v.064l.043.316c.489 3.291 3.38 5.674 6.846 5.674h.106c2.85 0 5.592 1.139 7.676 3.206a9.63 9.63 0 011.68 2.257c2.721 5.084 1.105 11.18-3.764 14.154l-4.167 2.552c-2.296 1.413-3.53 4.029-3.126 6.666l1.659 10.863c.51 3.332 3.466 5.843 6.868 5.843h.085c5.337 0 9.78 3.796 10.588 9.027a10.548 10.548 0 01-4.954 10.61l-4.167 2.532c-2.297 1.413-3.53 4.028-3.126 6.665l1.956 12.909a3.842 3.842 0 001.744 2.658c.957.612 2.147.759 3.253.443.936-.274 1.658-.422 2.19-.422 5.337 0 9.781 3.797 10.589 9.028a10.55 10.55 0 01-4.954 10.61l-6.443 3.944a3.785 3.785 0 00-1.786 3.818l.447 2.89a3.806 3.806 0 002.19 2.89c.51.232 1.063.358 1.616.358.701 0 1.403-.19 2.019-.569l11.227-6.856a6.764 6.764 0 003.168-6.792l-3.04-20.038-.022-.106-.085-.042c-.106-.063-.212-.105-.297-.148.042-.506.063-1.054.106-1.645v-.021l-23.389-153.707-.021-.126-.106-.042c-.085-.021-.149-.064-.234-.085l-.192-1.75c.064-.127.107-.275.171-.422l.021-.042-7.463-49.084c-.893-5.864-6.422-9.893-12.333-9.028a10.725 10.725 0 00-7.08 4.239 10.627 10.627 0 00-1.999 7.974l2.722 17.992zM229.472 316.919v-.042l-.595-3.966-.107-.042-.127-.063c-.043-.738-.085-1.54-.149-2.426l-14.607-96.08c-.426-2.826-1.956-5.336-4.274-7.045-2.318-1.708-5.188-2.404-8.037-1.983-5.252.781-9.207 5.337-9.207 10.589 0 .528.043 1.076.128 1.624l22.772 149.699.021.106 23.134 14.111.085.043.085-.022c.191-.042.382-.105.552-.189l.149-.064-1.02-6.792-8.803-57.458z" fill="#fff"/><path d="M301.779 246.075l-.021-.042-1.489-.907a2.389 2.389 0 01-.808-.844l-.042-.063-.064-.022a5.745 5.745 0 00-5.294.401l-3.445 2.11-57.94 35.436c-1.722 1.055-2.764 2.89-2.764 4.894 0 .295.021.569.064.844a5.79 5.79 0 003.296 4.366 5.897 5.897 0 002.445.548 6.005 6.005 0 003.04-.843l61.385-37.546a5.742 5.742 0 002.7-5.759 5.981 5.981 0 00-1.063-2.573zM226.368 246.699a5.84 5.84 0 002.424.528 5.833 5.833 0 003.041-.865l61.363-37.525c2.53-1.54 3.466-4.641 2.211-7.362a5.5 5.5 0 00-2.19-2.425c-1.935-1.16-4.21-1.182-6.123-.021l-61.343 37.546a5.73 5.73 0 00-2.764 4.914c0 .296.022.57.064.865.319 1.898 1.552 3.544 3.317 4.345zM314.011 345.499a5.739 5.739 0 002.701-5.758c-.489-3.227-3.275-4.894-5.762-4.894a5.752 5.752 0 00-3.02.865l-3.317 2.025c-.021 0-.021.021-.042.021l-57.515 35.163c-2.232 1.371-3.274 4.071-2.509 6.56.51 1.729 1.786 3.079 3.487 3.712a5.94 5.94 0 002.063.38 5.827 5.827 0 003.04-.865l51.54-31.514 9.334-5.695zM297.739 305.656c.022-.021.043-.021.043-.042l9.121-5.568c2.105-1.287 3.232-3.692 2.828-5.991-.297-1.814-1.424-3.311-3.083-4.134-1.786-.907-4.04-.781-5.847.337l-3.125 1.92h-.043l-.043.042-57.982 35.479a5.77 5.77 0 00-2.764 4.893c0 .254.021.528.064.865a5.787 5.787 0 003.295 4.367 5.878 5.878 0 002.445.527 5.824 5.824 0 003.041-.865l52.05-31.83zM311.541 396.027l9.951-6.075c1.977-1.224 3.041-3.481 2.7-5.759-.489-3.227-3.274-4.893-5.762-4.893a5.692 5.692 0 00-3.019.865l-4.019 2.446-.042.022-27.429 16.769c-1.722 1.054-2.764 2.889-2.764 4.893s1.042 3.839 2.764 4.894a5.833 5.833 0 003.041.865 5.883 5.883 0 003.04-.865l21.454-13.12c.043 0 .064-.021.085-.042zM321.77 502.033c-10.546 0-19.136 8.521-19.136 18.984 0 10.462 8.59 18.984 19.136 18.984s19.136-8.522 19.136-18.984c0-10.463-8.59-18.984-19.136-18.984zM150.354 22.732c-5.018 0-9.1 4.05-9.1 9.028 0 4.978 4.082 9.007 9.1 9.007s9.079-4.05 9.079-9.007c0-4.978-4.082-9.028-9.079-9.028zM144.841 299.031c-3.146 0-5.697 2.531-5.697 5.653 0 3.122 2.551 5.653 5.697 5.653s5.697-2.531 5.697-5.653c0-3.122-2.551-5.653-5.697-5.653zM45.23 159.056c-3.147 0-5.698 2.531-5.698 5.653 0 3.122 2.551 5.653 5.698 5.653 3.146 0 5.697-2.531 5.697-5.653 0-3.122-2.551-5.653-5.697-5.653z" fill="#fff"/><path d="M328.263 147.583c-3.147 0-5.698 2.531-5.698 5.653 0 3.122 2.551 5.653 5.698 5.653 3.146 0 5.697-2.531 5.697-5.653 0-3.122-2.551-5.653-5.697-5.653zM525.769 80.38c-10.546 0-19.136 8.522-19.136 18.984 0 10.463 8.59 18.984 19.136 18.984s19.136-8.521 19.136-18.984c0-10.462-8.59-18.984-19.136-18.984zM523.56 447.678c-5.273 0-9.589 4.261-9.589 9.513s4.295 9.513 9.589 9.513c5.294 0 9.589-4.261 9.589-9.513-.021-5.252-4.316-9.513-9.589-9.513zM475.528 391.277l-6.124-3.797-80.329 49.021c-1.17.717-1.829 1.898-1.829 3.248 0 1.35.659 2.552 1.829 3.249a3.855 3.855 0 002.02.569 3.86 3.86 0 002.02-.569l83.221-50.751.234-.148-.192-.189a5.218 5.218 0 00-.85-.633zM365.052 451.035c-4.38 0-7.931 2.763-7.931 6.138 0 3.396 3.572 6.138 7.931 6.138 4.38 0 7.931-2.763 7.931-6.138.021-3.375-3.551-6.138-7.931-6.138zM143.534 421.762l-9.738-5.949c-.532-.337-1.191-.295-1.701.064a1.48 1.48 0 00-.596 1.582c1.042 4.598 3.466 9.112 6.655 12.402 1.276 1.329 2.764 2.532 4.359 3.586a1.556 1.556 0 001.595.063c.51-.274.808-.78.808-1.35v-7.994c0-.97-.532-1.898-1.382-2.404zM163.734 408.402c.404-.232.659-.633.723-1.097a1.572 1.572 0 00-.383-1.244 22.77 22.77 0 00-7.442-5.358 22.709 22.709 0 00-9.313-1.983c-1.573 0-3.125.169-4.614.464-3.338.675-6.379 2.447-8.569 4.936-.446.506-1.19 1.709-1.743 2.679-.574 1.033-.255 2.32.765 2.932l12.651 7.72a2.97 2.97 0 001.51.422 2.89 2.89 0 001.488-.422l14.927-9.049zM167.627 412.372a1.53 1.53 0 00-1.318.147l-15.16 9.239a2.865 2.865 0 00-1.361 2.426v10.61c0 1.096.829 2.025 1.914 2.172.914.106 2.105.232 2.891.232h.319c3.998-.232 7.761-1.961 10.589-4.893 2.892-2.975 4.486-6.856 4.508-10.948v-.126c0-2.742-.489-5.421-1.467-7.974a1.46 1.46 0 00-.915-.885zM169.287 231.434c0-5.252-4.295-9.513-9.589-9.513-5.273 0-9.59 4.261-9.59 9.513 0 5.231 4.295 9.513 9.59 9.513 5.273-.021 9.589-4.282 9.589-9.513zM120.038 166.776c0-.801-.425-1.497-1.126-1.898a2.235 2.235 0 00-2.212.042l-25.791 15.736c-1.637 1.012-2.637 2.763-2.637 4.661v32.737c0 .802.426 1.519 1.127 1.899.34.189.702.274 1.085.274.404 0 .787-.106 1.148-.317l26.068-15.904c1.637-.991 2.636-2.805 2.636-4.704l-.298-32.526zm-25.132 29.151c1.063-.907 2.17-1.729 3.275-2.531.361-.274.723-.548 1.105-.801l1.085-.76a3.076 3.076 0 001.361-2.404c.021-.654.042-1.308.085-1.962a48.63 48.63 0 01.489-4.957c.17-1.055 1.105-1.856 2.168-1.751a2.03 2.03 0 011.829 1.667c.191 1.16.319 2.32.404 3.48.021.211.021.527.064.865.042.569.659.928 1.169.675h.021c1.149-.591 2.318-1.16 3.551-1.645 1-.401 2.212-.064 2.701.907a2 2 0 01-.468 2.404c-1.255 1.097-2.573 2.067-3.912 2.995-.511.359-1.021.697-1.531 1.034a3.005 3.005 0 00-1.361 2.447 63.922 63.922 0 01-.085 2.004c-.085 1.645-.234 3.311-.51 4.957-.171 1.033-1.106 1.835-2.169 1.75a2.029 2.029 0 01-1.829-1.666c-.17-1.118-.34-3.122-.446-4.408-.043-.57-.659-.907-1.17-.654-1.063.548-2.679 1.329-3.636 1.729-.978.401-2.147.021-2.636-.928-.468-.865-.213-1.856.446-2.447zM70.924 473.199c-7.293 0-13.246 5.885-13.246 13.141s5.932 13.141 13.246 13.141 13.247-5.885 13.247-13.141-5.933-13.141-13.247-13.141zM408.422 260.959a2.85 2.85 0 001.361.358c.51 0 .999-.147 1.467-.422l5.251-3.206c2.891-1.772 4.081-5.315 2.827-8.437l-9.779-24.363c-.276-.696-.935-.907-1.467-.801-.531.105-1.063.548-1.063 1.286v33.138c-.021 1.054.51 1.961 1.403 2.447zM408.357 201.077c.425.232.871.358 1.339.358.489 0 .957-.126 1.403-.379l60.109-35.859a4.853 4.853 0 002.36-4.134v-17.929c0-.844-.446-1.582-1.169-1.983-.744-.401-1.616-.401-2.339.042l-60.768 37.061c-1.424.865-2.317 2.447-2.317 4.092v16.39a2.717 2.717 0 001.382 2.341z" fill="#65BD7D"/><path d="M457.636 435.022c-1.934-1.202-3.848-2.383-5.783-3.586l-.106-.063h-.234l-35.189 21.473c-1.234.759-1.935 2.004-1.935 3.438 0 1.435.701 2.679 1.935 3.438.637.38 1.382.591 2.126.591s1.488-.211 2.126-.591l38.442-23.455-.34-.38c-.276-.337-.638-.612-1.042-.865zM430.075 387.248c-.34-.485-.808-.907-1.36-1.266-1.786-1.097-3.572-2.215-5.358-3.311l-.234-.148-61.172 37.314c-1.234.738-1.935 2.004-1.935 3.438 0 1.435.701 2.679 1.935 3.417a4.139 4.139 0 002.147.612c.744 0 1.488-.211 2.126-.591l64.107-39.085-.256-.38zM394.61 68.291c7.42 0 13.437-5.99 13.437-13.352 0-7.361-6.038-13.33-13.437-13.33-7.421 0-13.46 5.99-13.46 13.33 0 7.362 6.039 13.352 13.46 13.352zM392.245 467.882c-4.486 0-8.143 2.848-8.143 6.349 0 3.502 3.657 6.349 8.143 6.349 4.486 0 8.144-2.847 8.144-6.349 0-3.501-3.636-6.349-8.144-6.349zM337.546 434.258c-4.487 0-8.165 2.847-8.165 6.349 0 3.501 3.657 6.349 8.165 6.349 4.507 0 8.143-2.848 8.143-6.349.021-3.523-3.636-6.349-8.143-6.349zM19.349 260.956C8.675 260.956 0 269.562 0 280.15c0 10.589 8.675 19.195 19.349 19.195s19.349-8.606 19.349-19.195c0-10.588-8.675-19.194-19.35-19.194zM512.737 297.256c-7.42 0-13.459 5.99-13.459 13.352 0 7.361 6.039 13.352 13.459 13.352 7.421 0 13.46-5.991 13.46-13.352 0-7.362-6.039-13.352-13.46-13.352zM287.236 450.876c-3.252 0-5.91 2.637-5.91 5.864s2.658 5.864 5.91 5.864c3.253 0 5.91-2.637 5.91-5.864s-2.657-5.864-5.91-5.864zM80.095 382.858l-9.61-5.864c-.617-.38-1.361-.338-1.957.084-.574.422-.829 1.097-.659 1.772 1.085 4.556 3.509 9.007 6.655 12.255 1.276 1.329 2.743 2.51 4.338 3.565.298.19.617.295.957.295.297 0 .574-.063.829-.211.574-.316.914-.886.914-1.519v-7.762c-.021-1.076-.574-2.067-1.467-2.615zM100.292 369.845c.447-.274.744-.739.829-1.245a1.734 1.734 0 00-.446-1.413 23.053 23.053 0 00-16.882-7.404c-3.147 0-6.188.633-9.037 1.856a12.038 12.038 0 00-6.357 6.392c-.468 1.097-.064 2.341.956 2.974l12.843 7.91a3.126 3.126 0 001.616.464 2.94 2.94 0 001.616-.464l14.862-9.07zM104.131 373.452a1.767 1.767 0 00-1.488.169l-15.16 9.239a3.03 3.03 0 00-1.467 2.595v10.399c0 1.202.914 2.235 2.126 2.383.957.106 2.296.232 3.317.232.297 0 .553 0 .744-.021a16.331 16.331 0 0010.163-5.083c2.743-2.932 4.274-6.729 4.295-10.716v-.126c0-2.785-.51-5.485-1.488-8.037a1.59 1.59 0 00-1.042-1.034zM206.694 460.18l-9.205-5.611c-.617-.379-1.361-.337-1.956.085a1.712 1.712 0 00-.681 1.772c1.063 4.577 3.508 9.07 6.676 12.36a24.886 24.886 0 003.891 3.27c.297.211.638.316.978.316.276 0 .553-.063.808-.211.574-.295.935-.886.935-1.54v-7.825c.021-1.055-.531-2.046-1.446-2.616zM226.89 447.192c.447-.275.745-.739.83-1.245a1.69 1.69 0 00-.447-1.392 23.016 23.016 0 00-16.882-7.404c-1.829 0-3.679.211-5.465.654-3.976.971-7.271 3.438-9.036 6.729-.213.38-.404.801-.596 1.266-.404 1.054.022 2.278 1 2.868l12.481 7.615a3.127 3.127 0 001.616.464c.574 0 1.127-.148 1.616-.464l14.883-9.091zM230.74 450.767a1.762 1.762 0 00-1.489.169l-15.16 9.238c-.893.549-1.467 1.561-1.467 2.595v11.264c0 .822.595 1.539 1.403 1.708.872.169 1.489.253 1.893.296.404.042.829.042 1.233.042 3.955 0 7.782-1.477 10.759-4.135 3.359-3.016 5.273-7.15 5.358-11.622v-.506c0-2.763-.511-5.484-1.489-8.058a1.723 1.723 0 00-1.041-.991zM379.771 239.973c.978 0 1.914-.274 2.764-.781 1.573-.97 2.53-2.636 2.53-4.471v-66.866-.084-.085c0-.084.022-.19.043-.295v-.084a.94.94 0 01.127-.338l.022-.021c0-.021.021-.021.021-.042.064-.106.106-.19.149-.274l.021-.021c0-.022.021-.043.043-.064.063-.105.148-.19.255-.295l.042-.042c.064-.064.17-.148.277-.211l.042-.021 52.816-32.21c1.552-.949 2.53-2.679 2.53-4.471v-.971c0-1.94-1.02-3.649-2.721-4.598a5.25 5.25 0 00-5.359.105l-56.387 34.403c-1.553.95-2.509 2.637-2.509 4.43V234.7c0 2.91 2.381 5.273 5.294 5.273zM531.011 239.341l-31.553-78.572a2.834 2.834 0 00-1.765-1.645 2.836 2.836 0 00-2.403.274l-65.573 40.077a2.842 2.842 0 00-1.17 3.481l31.554 78.572a2.937 2.937 0 00.701 1.012c.128.106.256.211.383.296a2.824 2.824 0 001.595.464c.191 0 .361-.021.531-.042.341-.064.66-.19.957-.38l65.574-40.077a2.767 2.767 0 001.169-3.46zm-28.832 1.203l5.72-12.973a2.157 2.157 0 00-.128-2.003c-.382-.612-.999-1.013-1.722-1.055l-12.205-.928c-.978-.064-1.743-.844-1.743-1.751 0-.464.17-.907.51-1.244.34-.338.787-.528 1.255-.528l18.307.127h.042a2.456 2.456 0 011.51.126c.446.19.829.507 1.084.928.276.401.425.886.425 1.393 0 .569-.212 1.118-.616 1.56l-.022.022-9.227 17.76c-.447.865-1.468 1.266-2.318.907a1.721 1.721 0 01-.957-.97 2.025 2.025 0 01.085-1.371zm-55.75-22.95c.787-.78 1.722-1.54 2.913-2.404a49 49 0 013.126-2.067c.276-.169.531-.317.808-.486.276-.147.531-.316.829-.464.276-.168.574-.316.829-.443l.829-.443c.915-.464 2.148-1.054 3.445-1.518a1.826 1.826 0 012.339 1.097c.255.674.063 1.413-.447 1.919-.999.949-2.041 1.73-2.934 2.384a56.974 56.974 0 01-3.126 2.088 40.113 40.113 0 01-3.274 1.856c-1.318.675-2.403 1.139-3.466 1.498-.957.316-1.998-.19-2.317-1.139a1.77 1.77 0 01.446-1.878zm-5.634-8.838c0-.021-.022-.063-.022-.084 0-.021-.021-.042-.021-.085 0-.021-.021-.063-.021-.084 0-.042-.022-.105-.022-.148v-.063V208.123v-.063c0-.063.022-.126.043-.211 0-.021 0-.021.021-.042.022-.042.022-.105.043-.148.042-.147.127-.274.212-.422.022-.021.022-.042.043-.063.085-.126.213-.253.34-.337 4.21-3.185 8.611-6.012 12.779-8.627 4.422-2.785 8.803-5.548 13.055-8.185a819.538 819.538 0 0113.183-7.973c4.422-2.679 8.802-5.273 13.544-7.34.234-.106.489-.148.723-.148.702 0 1.361.401 1.658 1.076a1.778 1.778 0 01-.489 2.088c-3.955 3.248-8.271 5.969-12.693 8.712-3.764 2.383-7.931 4.935-13.119 8.078a1210.5 1210.5 0 01-13.247 7.868c-4.21 2.51-8.739 5.147-13.502 7.446-.893.422-1.956.063-2.381-.823a.693.693 0 01-.127-.253zm60.023-20.249c-2.02 1.561-4.295 3.164-7.144 5.083a229.766 229.766 0 01-7.378 4.704 319.065 319.065 0 01-7.569 4.43 141.2 141.2 0 01-7.782 4.071c-.426.21-.915.232-1.361.084a1.793 1.793 0 01-1.021-.907 1.777 1.777 0 01.511-2.173 127.42 127.42 0 017.165-5.062 279.06 279.06 0 017.378-4.725 275.104 275.104 0 017.57-4.43c2.083-1.16 4.869-2.678 7.782-4.05.233-.126.51-.168.765-.168.191 0 .404.042.595.105.447.148.808.485 1.021.907.34.717.128 1.624-.532 2.131zm-49.456 40.035c2.573-1.941 5.464-3.924 9.122-6.307a723.158 723.158 0 019.376-5.927l4.742-2.869 4.784-2.806c2.636-1.518 6.145-3.501 9.802-5.21.234-.126.51-.168.765-.168.192 0 .404.042.596.105.446.169.808.485 1.02.907.362.76.149 1.645-.531 2.152-3.105 2.404-6.336 4.556-9.101 6.328l-4.677 2.974-4.721 2.911a477.416 477.416 0 01-9.546 5.653c-3.87 2.236-6.89 3.839-9.781 5.252a1.79 1.79 0 01-1.361.084 1.724 1.724 0 01-1.021-.907 1.757 1.757 0 01.532-2.172zm10.801 23.687l9.249-17.76c.447-.865 1.468-1.266 2.318-.907.447.19.787.527.957.97.17.443.17.928-.021 1.371l-5.72 12.951c-.298.654-.234 1.393.128 2.004.382.612.999.992 1.722 1.055l12.205.928c.978.063 1.743.844 1.743 1.751a1.79 1.79 0 01-1.786 1.772l-18.307-.127h-.043a2.377 2.377 0 01-1.53-.148c-.107-.042-.192-.105-.298-.168l-.085-.064c-.021-.021-.043-.021-.064-.042l-.021-.021s-.021 0-.021-.021l-.022-.021c-.042-.021-.064-.063-.106-.084a1.71 1.71 0 01-.276-.275c-.043-.042-.064-.084-.085-.105-.043-.042-.064-.084-.107-.148-.042-.042-.064-.084-.106-.147-.021-.043-.064-.106-.085-.148-.021-.042-.043-.105-.085-.169-.021-.021-.021-.063-.043-.105l-.021-.042c0-.022-.021-.043-.021-.064-.022-.042-.022-.105-.043-.168-.021-.043-.021-.106-.021-.148v-.042c0-.064-.021-.106-.021-.169v-.19c0-.527.212-1.076.616-1.519zm23.325-26.872c.34-.338.787-.528 1.255-.528h.021c.808 0 1.531.528 1.743 1.308a74.385 74.385 0 011.34 5.864c.404 1.983.723 4.029.999 5.927.298 2.067.553 4.029.723 5.97.234 2.404.319 4.239.319 6.011 0 .992-.808 1.793-1.807 1.793-.808 0-1.51-.527-1.722-1.287a62.848 62.848 0 01-1.361-5.864 97.97 97.97 0 01-.978-5.927c-.234-1.814-.511-3.902-.702-5.969-.213-2.32-.319-4.24-.34-6.012-.021-.485.17-.949.51-1.286zM118.922 240.333a2.235 2.235 0 00-2.211.042L90.92 256.111c-1.638 1.012-2.637 2.742-2.637 4.661v32.758c0 .802.425 1.519 1.127 1.92.34.19.702.274 1.085.274.403 0 .786-.105 1.148-.337l26.067-15.905c1.638-.991 2.637-2.805 2.637-4.704l-.298-32.547c0-.801-.425-1.497-1.127-1.898zm-6.251 19.047c-1.105 1.055-2.339 1.962-3.402 2.721a55.512 55.512 0 01-3.657 2.342 77.929 77.929 0 01-3.806 2.13c-1.148.591-2.53 1.287-3.955 1.856-.914.359-1.977-.084-2.339-.991a1.783 1.783 0 01.49-2.004c1.19-1.055 2.466-1.983 3.444-2.658a63.08 63.08 0 013.636-2.404 59.93 59.93 0 013.742-2.173c1.233-.633 2.573-1.287 3.976-1.793a1.803 1.803 0 011.403.063c.447.211.766.57.936 1.034.213.633.042 1.371-.468 1.877zm-16.69 17.444c1.19-1.054 2.466-1.982 3.444-2.678a75.73 75.73 0 013.614-2.384c1.425-.865 2.616-1.561 3.785-2.151 1.51-.781 2.764-1.35 3.976-1.814.213-.085.425-.106.638-.106.255 0 .51.063.765.169.447.211.787.569.957 1.012.255.675.064 1.456-.468 1.962-.956.865-2.041 1.73-3.423 2.7a46.956 46.956 0 01-3.636 2.362 71.428 71.428 0 01-3.784 2.131 39.662 39.662 0 01-3.977 1.835 1.812 1.812 0 01-2.338-1.034 1.76 1.76 0 01.446-2.004zM118.922 89.429a2.234 2.234 0 00-2.211.042L90.92 105.207c-1.616.991-2.637 2.763-2.637 4.661v32.758c0 .802.425 1.519 1.127 1.898.34.19.702.275 1.085.275.403 0 .786-.106 1.148-.317l26.067-15.904c1.638-.991 2.637-2.805 2.637-4.704l-.298-32.547c0-.801-.425-1.497-1.127-1.898zm-5.315 24.004c-1.106.949-2.339 1.898-3.891 2.974a99.689 99.689 0 01-4.104 2.658 89.628 89.628 0 01-4.252 2.426c-1.17.632-2.743 1.434-4.423 2.109a1.812 1.812 0 01-2.36-.991 1.756 1.756 0 01.489-2.025c1.34-1.161 2.721-2.152 3.89-2.975a84.419 84.419 0 014.105-2.678c1.148-.696 2.679-1.604 4.252-2.426 1.169-.633 2.743-1.434 4.423-2.088.212-.085.446-.127.68-.127.234 0 .489.042.723.148.446.19.787.527.957.97a1.816 1.816 0 01-.489 2.025z" fill="#fff"/><path d="M532.647 381.973c-.021-.021-.042-.021-.042-.021a8.935 8.935 0 00-9.377 0l-109.459 66.781c-2.658 1.624-4.252 4.451-4.252 7.552 0 3.1 1.594 5.927 4.252 7.551a8.939 8.939 0 004.678 1.329 8.939 8.939 0 004.678-1.329l109.48-66.76c2.658-1.624 4.252-4.451 4.252-7.552.021-3.121-1.552-5.948-4.21-7.551zm-2.806 10.61l-109.481 66.76a3.636 3.636 0 01-3.806 0c-1.105-.675-1.722-1.793-1.722-3.08 0-1.286.638-2.404 1.722-3.079l109.459-66.781a3.69 3.69 0 011.914-.528 3.69 3.69 0 011.914.528l1.403-2.236-1.382 2.257c1.106.675 1.722 1.793 1.722 3.079 0 1.287-.638 2.405-1.743 3.08zM491.887 221.831c0 1.055.893 1.899 1.935 1.962l12.205.928c1.382.106 2.232 1.519 1.679 2.763l-5.719 12.973a1.99 1.99 0 001.063 2.615c.978.401 2.105-.084 2.594-1.012l9.207-17.74c.403-.464.659-1.054.659-1.687 0-.57-.17-1.076-.468-1.498-.277-.443-.681-.78-1.191-1.012a2.657 2.657 0 00-1.658-.148l-18.307-.126c-1.085-.022-2.02.864-1.999 1.982zM386.399 447.299a8.939 8.939 0 004.678 1.329 8.933 8.933 0 004.677-1.329l109.48-66.76c2.658-1.624 4.253-4.451 4.253-7.551 0-3.101-1.573-5.906-4.21-7.552-.021 0-.043-.021-.043-.021a8.933 8.933 0 00-9.376 0l-109.459 66.782c-2.658 1.624-4.253 4.45-4.253 7.551s1.595 5.927 4.253 7.551zm2.785-10.631l109.459-66.781a3.685 3.685 0 011.914-.527 3.61 3.61 0 011.892.527c.021 0 .021.021.043.021 1.105.675 1.722 1.793 1.722 3.08 0 1.286-.638 2.404-1.722 3.079l-109.48 66.761a3.636 3.636 0 01-3.806 0c-1.106-.675-1.723-1.793-1.723-3.08-.021-1.287.596-2.405 1.701-3.08zM483.487 193.805a339.375 339.375 0 00-7.399 4.725 128.472 128.472 0 00-7.165 5.063c-.723.569-1 1.582-.574 2.425.467.992 1.679 1.392 2.679.928 2.657-1.265 5.23-2.636 7.782-4.071a272.175 272.175 0 007.59-4.429 338.583 338.583 0 007.4-4.704c2.445-1.624 4.847-3.291 7.165-5.083.723-.57.978-1.561.574-2.426a2.01 2.01 0 00-2.658-.949c-2.658 1.244-5.252 2.636-7.803 4.071a297.636 297.636 0 00-7.591 4.45zM443.366 210.001c4.656-2.257 9.1-4.83 13.522-7.446 4.423-2.616 8.846-5.231 13.247-7.868 4.401-2.658 8.76-5.358 13.119-8.079 4.359-2.699 8.717-5.442 12.715-8.732.68-.549.935-1.498.552-2.342-.446-1.012-1.637-1.476-2.636-1.033-4.763 2.067-9.185 4.683-13.565 7.34-4.423 2.616-8.803 5.295-13.183 7.974-4.359 2.721-8.718 5.442-13.055 8.184-4.338 2.742-8.654 5.505-12.779 8.627a1.973 1.973 0 00-.574 2.447c.447.991 1.637 1.413 2.637.928zM491.054 237.883a139.791 139.791 0 00-.999-5.927c-.383-1.983-.808-3.944-1.34-5.885-.233-.844-1.02-1.455-1.955-1.455-1.106.021-1.999.907-1.977 2.004.021 2.025.148 4.028.34 6.032.17 2.004.425 3.987.701 5.97.277 1.982.596 3.965.978 5.927.383 1.983.808 3.944 1.382 5.885.234.823 1.02 1.434 1.935 1.434a2.01 2.01 0 002.019-2.004c0-2.025-.149-4.028-.319-6.032-.17-2.004-.489-3.966-.765-5.949zM472.64 220.815l4.72-2.91 4.678-2.975c3.104-2.003 6.166-4.071 9.122-6.328.723-.569.978-1.56.574-2.425a2.01 2.01 0 00-2.658-.95c-3.359 1.582-6.613 3.375-9.802 5.232l-4.784 2.805-4.742 2.869a535.854 535.854 0 00-9.376 5.927c-3.105 2.004-6.166 4.071-9.143 6.307a1.973 1.973 0 00-.574 2.447 2 2 0 002.679.907c3.338-1.625 6.591-3.417 9.802-5.253a620.036 620.036 0 009.504-5.653zM483.001 252.63l-12.204-.928c-1.361-.106-2.233-1.519-1.68-2.764l5.72-12.951c.446-.991-.022-2.172-1.042-2.615-.978-.401-2.105.084-2.594 1.012l-9.207 17.718a2.594 2.594 0 00-.659 1.709c0 .569.17 1.076.468 1.498.276.421.68.78 1.169.991a2.672 2.672 0 001.659.148l18.307.126a1.988 1.988 0 001.998-1.983c.022-1.054-.871-1.898-1.935-1.961zM482.529 356.512c0-3.101-1.594-5.927-4.273-7.572a8.935 8.935 0 00-9.377 0l-109.48 66.76c-2.658 1.624-4.253 4.451-4.253 7.551 0 3.101 1.595 5.927 4.274 7.573a8.939 8.939 0 009.377 0l109.48-66.76c2.658-1.625 4.252-4.451 4.252-7.552zm-7.037 3.059l-109.48 66.76a3.63 3.63 0 01-3.828-.021c-1.084-.675-1.722-1.793-1.722-3.059 0-1.286.638-2.404 1.722-3.079l109.48-66.761a3.644 3.644 0 011.914-.527c.659 0 1.318.19 1.935.549 1.084.675 1.722 1.793 1.722 3.079-.021 1.287-.659 2.405-1.743 3.059zM455.148 217.425a50.57 50.57 0 003.126-2.088c1.02-.738 2.019-1.519 2.955-2.405a2.003 2.003 0 00.51-2.151 2.025 2.025 0 00-2.594-1.224c-1.212.443-2.36.971-3.465 1.54a45.402 45.402 0 00-3.296 1.835 54.179 54.179 0 00-3.147 2.067c-1.02.739-2.02 1.519-2.934 2.426a2.027 2.027 0 00-.51 2.11c.361 1.054 1.531 1.624 2.594 1.265 1.212-.422 2.36-.949 3.487-1.519a41.83 41.83 0 003.274-1.856zM341.223 401.672l109.034-66.507a2.623 2.623 0 001.254-2.236c0-.907-.468-1.772-1.254-2.236l-123.578-75.366a16.947 16.947 0 01-7.909-11.854l-11.822-77.729c-1.318-8.606-9.441-14.554-18.116-13.268-4.21.633-7.909 2.848-10.439 6.244-2.531 3.396-3.573 7.551-2.935 11.728l3.466 22.823a6.765 6.765 0 01-3.168 6.792l-49.478 30.247c-2.105 1.287-4.847.022-5.23-2.404l-2.19-14.365a15.747 15.747 0 00-6.294-10.357 15.857 15.857 0 00-11.822-2.91c-7.718 1.16-13.544 7.867-13.544 15.588 0 .78.064 1.56.191 2.383l11.865 77.94a8.622 8.622 0 01-4.04 8.627l-42.397 25.86c-.787.485-1.276 1.329-1.276 2.236a2.57 2.57 0 001.276 2.236l88.366 53.893c.022 0 .043.021.043.021l4.295 2.616.021.021 54.581 33.285c.425.253.893.38 1.382.38.489 0 .957-.127 1.403-.38l38.315-23.308zm-7.251-135.735l95.32 58.133c6.655 4.05 6.655 13.647 0 17.718-3.338 2.046-7.57 2.046-10.929.043l-88.792-53.388a10.688 10.688 0 01-5.082-7.572l-1.211-7.91c-.915-5.906 5.57-10.146 10.694-7.024zm-108.098-29.172l61.385-37.525c1.807-1.118 4.019-1.118 5.89.021a5.372 5.372 0 012.105 2.341 5.522 5.522 0 01-2.127 7.088l-61.384 37.525c-3.402 2.088-7.846.042-8.463-3.881a5.44 5.44 0 01-.063-.823c0-1.941.978-3.734 2.657-4.746zm12.779 54.99c-3.402 2.088-7.867.042-8.462-3.902a5.306 5.306 0 01-.064-.823c0-1.898.978-3.691 2.658-4.725l58.025-35.479s.021 0 .021-.021l3.338-2.046c1.574-.97 3.402-1.097 5.103-.379.213.358.511.675.893.928l1.446.886a5.654 5.654 0 011.021 2.468c.34 2.193-.681 4.366-2.594 5.547l-61.385 37.546zm50.286-12.593l-48.712 29.278c-2.998 1.793-6.889 0-7.421-3.438-.043-.253-.043-.485-.043-.717 0-1.688.872-3.27 2.339-4.156l48.649-29.741c2.998-1.835 6.931-.043 7.442 3.438l.063.464c.298 1.919-.616 3.839-2.317 4.872zm-5.89-33.77l-49.797 30.459c-2.105 1.286-4.847.021-5.23-2.405l-1.978-13.014a6.365 6.365 0 012.998-6.392l49.903-30.522c1.999-1.223 4.614-.021 4.955 2.278l2.041 13.416a6.17 6.17 0 01-2.892 6.18zm-84.646 88.191l-13.671 8.226a10.543 10.543 0 01-10.929-.042 10.313 10.313 0 01-4.997-8.859c0-3.417 1.659-6.834 4.997-8.859l18.583-11.327c4.082-2.489 9.398-.042 10.1 4.661l.872 5.696a10.412 10.412 0 01-4.955 10.504zm17.032 33.581l-22.772-149.699a10.279 10.279 0 01-.128-1.603c0-5.147 3.891-9.619 9.036-10.399a10.546 10.546 0 017.889 1.94c2.275 1.666 3.785 4.113 4.189 6.898l15.606 102.576v.021l8.739 57.458 1.084 7.193-23.643-14.385zm21.708-33.75a5.528 5.528 0 012.594-5.547l58.026-35.479h.021l3.168-1.941c1.701-1.033 3.848-1.223 5.656-.337 1.594.801 2.658 2.236 2.955 3.986.404 2.279-.765 4.557-2.743 5.78l-9.121 5.569c-.021.021-.043.021-.064.042l-52.05 31.808c-3.402 2.089-7.846.043-8.442-3.881zm7.612 46.005a5.54 5.54 0 012.424-6.328l57.494-35.163c.021 0 .042-.021.042-.021l3.339-2.046a5.537 5.537 0 012.913-.822c2.402 0 5.06 1.624 5.549 4.724.34 2.215-.68 4.367-2.594 5.548l-9.313 5.695-.021.021-51.562 31.514c-3.125 1.898-7.229.358-8.271-3.122zm66.616 16.452l-21.475 13.142a5.612 5.612 0 01-5.848 0c-3.55-2.173-3.55-7.278 0-9.429l27.45-16.79.021-.021 4.019-2.447a5.552 5.552 0 012.913-.844c2.403 0 5.06 1.624 5.549 4.725.341 2.215-.68 4.366-2.594 5.547l-9.972 6.096c-.021.021-.042.021-.063.021zm21.836 4.493l-11.226 6.835c-2.233 1.35-5.125.021-5.507-2.532l-.447-2.889a3.585 3.585 0 011.701-3.607l6.443-3.945c3.72-2.278 5.719-6.518 5.06-10.821-.808-5.336-5.358-9.196-10.801-9.196-.596 0-1.404.168-2.233.422-2.147.653-4.401-.718-4.72-2.932l-1.956-12.909a6.419 6.419 0 013.019-6.455l4.167-2.531c3.721-2.278 5.72-6.518 5.061-10.821-.808-5.337-5.358-9.197-10.801-9.197h-.064c-3.338 0-6.166-2.404-6.677-5.674l-1.658-10.842a6.455 6.455 0 013.019-6.454l4.168-2.553c4.784-2.932 6.697-9.091 3.848-14.427a9.479 9.479 0 00-1.701-2.3c-2.232-2.214-5.082-3.29-7.91-3.269-3.316.021-6.166-2.257-6.655-5.505l-.042-.275v-.084l-1.616-10.694a6.42 6.42 0 013.019-6.455l3.934-2.404c3.508-2.152 5.677-6.012 5.379-10.104a10.79 10.79 0 00-6.272-9.028 11.162 11.162 0 00-4.699-1.012c-3.275.042-6.124-2.279-6.613-5.485l-1.68-11.053a6.456 6.456 0 013.02-6.454l3.933-2.405c3.508-2.151 5.677-6.032 5.38-10.125a10.773 10.773 0 00-6.294-9.027 11.066 11.066 0 00-4.699-.992c-3.275.042-6.102-2.278-6.591-5.505l-2.743-17.972c-.426-2.784.276-5.547 1.956-7.825a10.561 10.561 0 016.953-4.156c5.783-.864 11.205 3.101 12.077 8.838l34.572 227.259c.362 2.595-.829 5.189-3.104 6.56zM392.253 463.032c-7.187 0-13.034 5.02-13.034 11.2 0 6.181 5.847 11.201 13.034 11.201 7.186 0 13.034-5.02 13.034-11.201 0-6.159-5.826-11.2-13.034-11.2zm0 17.127c-4.253 0-7.719-2.657-7.719-5.927 0-3.269 3.466-5.927 7.719-5.927 4.273 0 7.718 2.658 7.718 5.927 0 3.27-3.445 5.927-7.718 5.927zM365.056 445.968c-7.186 0-13.034 5.02-13.034 11.201 0 6.18 5.848 11.2 13.034 11.2 7.187 0 13.034-5.02 13.034-11.2 0-6.181-5.847-11.201-13.034-11.201zm0 17.128c-4.252 0-7.718-2.658-7.718-5.927 0-3.27 3.466-5.927 7.718-5.927 4.253 0 7.719 2.657 7.719 5.927.021 3.269-3.466 5.927-7.719 5.927z" fill="#323A45"/><path d="M353.598 239.765l17.265 10.526s.022 0 .022.021c.085.042.17.105.276.148.021 0 .042.021.042.021.086.042.192.063.277.105.021 0 .042.021.042.021.107.021.234.042.341.064.127.021.233.021.361.021.191 0 .362-.021.574-.064.043 0 .064-.021.106-.021l.192-.063a.394.394 0 01.149-.042c.042-.021.106-.042.149-.085l.127-.063c.021 0 .021-.021.043-.021.021 0 .042-.021.042-.021l7.612-4.641c1.488-.907 3.381.148 3.381 1.878v9.766a2.57 2.57 0 001.276 2.236l17.243 10.525c.022.021.043.021.064.043a.43.43 0 00.17.084c.043.021.107.042.149.063.043.021.106.042.149.063a.638.638 0 00.17.043c.043.021.106.021.149.042.064.021.127.021.191.042.064 0 .128.021.17.021.043 0 .107.021.149.021.107 0 .234-.021.34-.021.043 0 .064-.021.085-.021.086-.021.171-.042.256-.042.042-.021.063-.021.106-.042.064-.021.149-.043.234-.085.042-.021.064-.042.106-.042.043-.021.106-.042.149-.063.021-.021.042-.021.042-.042.022 0 .022-.021.043-.021l13.65-8.332c1.893-1.16 4.381-.338 5.189 1.708l12.587 31.366a2.671 2.671 0 002.466 1.666c.234 0 .468-.042.702-.105l20.327-5.611c.149-.042.298-.105.446-.169.043-.021.085-.042.107-.042l.127-.063 74.759-45.688a2.638 2.638 0 001.084-3.227l-35.529-88.508-.021-.021v-.021a1.968 1.968 0 00-.256-.464 3.39 3.39 0 00-.361-.422.359.359 0 01-.106-.084l-.319-.253c-.043-.043-.107-.064-.17-.085-.107-.063-.213-.105-.319-.148-.022-.021-.043-.021-.064-.042-.043-.021-.085-.021-.128-.042a9.922 9.922 0 00-.34-.063c-.064-.021-.149-.021-.213-.021h-.34c-.064 0-.149 0-.212.021a181.9 181.9 0 00-.319.063c-.085.021-.149.042-.234.063-.021.021-.043.021-.085.043l-15.862 6.623a2.442 2.442 0 00-.34.169 2.272 2.272 0 01-1.191.337c-1.212 0-2.317-.949-2.317-2.299v-21.726-.063-.127c0-.127-.022-.253-.043-.359 0-.021 0-.063-.021-.084-.043-.148-.085-.295-.149-.422 0-.021-.021-.042-.043-.084-.063-.127-.127-.232-.191-.338-.021-.021-.043-.042-.043-.084a1.698 1.698 0 00-.318-.359c-.022-.021-.043-.021-.043-.042a2.332 2.332 0 00-.361-.274c-.022 0-.022-.021-.043-.021l-17.265-10.462a2.702 2.702 0 00-2.764 0l-7.952 4.851c-1.34.823-3.062-.148-3.062-1.687v-10.21-.042c0-.063 0-.105-.021-.168 0-.106-.022-.19-.043-.296a.39.39 0 00-.042-.147l-.128-.38c-.021-.042-.043-.084-.064-.148a1.56 1.56 0 00-.149-.253c-.021-.042-.063-.105-.085-.148-.085-.105-.17-.21-.276-.295a10.544 10.544 0 01-.106-.105c-.085-.064-.171-.148-.277-.211l-.064-.064-17.265-10.462c-.85-.527-1.913-.506-2.764 0l-71.378 43.558-.042.042a1.65 1.65 0 00-.319.253l-.064.063c-.106.106-.213.211-.298.338-.021.021-.042.063-.064.084l-.191.317c-.021.021-.042.042-.042.084a2.411 2.411 0 00-.149.422c0 .042-.022.063-.022.084-.021.127-.042.253-.042.359v89.667a2.506 2.506 0 001.233 2.236zm62.788 17.761l-5.252 3.206c-1.722 1.055-3.933-.169-3.933-2.194v-33.137c0-1.203 1.68-1.54 2.126-.401l9.781 24.363c1.233 3.016.085 6.454-2.722 8.163zm79.033-97.957a2.671 2.671 0 013.869 1.265l31.554 78.573a2.647 2.647 0 01-1.085 3.227l-65.573 40.077c-1.403.865-3.253.253-3.848-1.265l-31.554-78.573a2.647 2.647 0 011.085-3.227l65.552-40.077zm-25.239-18.204c1.403-.844 3.19.148 3.19 1.772v17.929a4.562 4.562 0 01-2.254 3.945l-60.109 35.858c-1.659.992-3.785-.19-3.785-2.13v-16.39c0-1.603.829-3.079 2.211-3.923l60.747-37.061zm-95.277 21.304c0-1.666.872-3.206 2.296-4.071l56.431-34.403c3.253-1.983 7.421.338 7.421 4.113v.971a4.779 4.779 0 01-2.318 4.113l-52.816 32.209c-.021.021-.042.021-.064.043a1.673 1.673 0 00-.319.253l-.063.063a2.225 2.225 0 00-.298.337c-.021.043-.043.064-.064.106l-.191.316c-.022.021-.043.042-.043.085a3.32 3.32 0 00-.149.422c-.021.042-.021.063-.021.105-.021.127-.042.232-.042.359v67.034a4.779 4.779 0 01-2.318 4.113 4.767 4.767 0 01-2.53.717c-2.53 0-4.891-2.004-4.891-4.851v-72.034h-.021zM337.546 429.414c-7.187 0-13.034 5.02-13.034 11.179 0 6.18 5.847 11.201 13.034 11.201 7.186 0 13.033-5.021 13.033-11.201 0-6.159-5.847-11.179-13.033-11.179zm0 17.106c-4.253 0-7.719-2.658-7.719-5.927 0-3.269 3.466-5.927 7.719-5.927 4.252 0 7.718 2.658 7.718 5.927.021 3.269-3.445 5.927-7.718 5.927zM327.061 58.217c.298 1.16.68 2.236 1.084 3.333a83.192 83.192 0 002.679 6.349c.489 1.054.999 2.088 1.637 3.1l.021.021a2.06 2.06 0 001.914.97c1.126-.105 1.955-1.075 1.849-2.193-.106-1.245-.361-2.447-.701-3.628a28.018 28.018 0 00-1.233-3.46 36.216 36.216 0 00-1.637-3.269c-.617-1.054-1.297-2.088-2.105-3.037a2.027 2.027 0 00-2.062-.654c-1.063.253-1.722 1.37-1.446 2.468zM146.417 183.949a15.87 15.87 0 006.463 1.392c7.059 0 13.523-4.83 15.224-11.854l5.72-16.305c.234-.359.489-.718.829-.992 1.063-.822 1.871.021 2.53.823.107.211.192.401.298.59a13.176 13.176 0 003.742 4.282l.574.422c.192.127.404.253.617.359.212.126.404.253.616.358l.638.296 1.276.569c.447.148.893.274 1.34.422l.68.19c.234.063.468.084.68.126l1.382.211c.468.022.936.043 1.404.043.234 0 .468.021.701 0l.702-.064c1.871-.105 3.678-.675 5.358-1.434.255-.105.468-.253.723-.38.957-.274 1.978-.4 2.743.085.723.464.978 1.539 1.467 2.32 1.488 3.417 4.125 6.286 7.591 8.079a16.837 16.837 0 007.633 1.856c2.211 0 4.423-.443 6.506-1.329.043-.021.064-.042.107-.063.021-.021.063-.021.085-.042l28.746-15.251c4.593-2.426 7.442-7.151 7.442-12.297 0-3.966-1.616-7.552-4.401-10.146-.638-.844-1.127-1.835-.851-2.848.553-2.046 2.892-.844 4.21-.443l.447.127a33.79 33.79 0 012.084.569c7.739 2.51 15.33 3.734 22.431 3.734 13.779 0 25.749-4.641 33.595-13.647 9.143-10.505 11.694-25.439 7.229-42.06-4.38-16.263-15.032-32.252-29.98-45.056-14.947-12.803-32.467-20.903-49.307-22.823-17.223-1.961-31.745 2.742-40.888 13.247-5.252 6.054-8.335 13.5-9.143 22.148-.361 3.839-.17 7.72.574 11.58.489 2.616-.723 5.273-3.019 6.644l-21.284 12.93c-12.013 7.341-20.007 19.49-21.964 33.349l-12.268 52.818c-1.063 4.788.191 9.724 3.508 13.52 1.404 1.73 3.211 3.059 5.21 3.945zm-3.573-16.221l12.29-52.902c.021-.084.021-.147.043-.232 1.701-12.339 8.802-23.16 19.497-29.7l43.971-26.703c.149-.085.255-.19.383-.274 6.357-3.46 13.31-5.759 20.454-6.328 7.293-.612 14.692.632 21.305 3.607 6.634 2.953 12.439 7.678 16.649 13.563 4.231 5.885 6.825 12.866 7.718 20.06a26.31 26.31 0 01.064 5.167c-.192 1.709-.489 3.417-1.021 5.063-.553 1.624-1.191 3.248-2.084 4.745-.382.781-.914 1.498-1.382 2.215-.255.359-.531.696-.787 1.055-.255.358-.51.717-.829 1.033-2.296 2.679-5.081 4.978-8.186 6.877l-9.887 6.096-19.753 12.213-.276.169a13.78 13.78 0 00-2.233 1.118c-.042.021-.063.042-.106.063l-4.507 3.058v.021a1.9 1.9 0 00-.362.254c-1.021.696-1.914 1.582-2.679 2.552-1.488 1.962-2.318 4.408-2.296 6.834v.443l.021.359.042.717.107 1.434c.064.97.149 1.92.255 2.89a1.996 1.996 0 002.041 1.772c1.021-.021 1.829-.865 1.935-1.856.106-.95.191-1.878.255-2.806l.085-1.434.043-.717.021-.359.021-.274a6.572 6.572 0 01.511-2.046 5.947 5.947 0 011.084-1.793 7.333 7.333 0 011.531-1.392l2.36-1.456 4.359-2.658c2.658-.843 5.57-.4 7.973 1.393 1.446 1.075 2.53 2.594 3.041 4.303 1.254 4.155-.617 8.332-4.232 10.251l-28.64 15.187c-3.232 1.35-6.761 1.139-9.866-.59-3.572-2.004-5.698-5.864-5.698-9.935v-7.046c.064-.421.106-.864.127-1.286l.043-.675.021-.338v-3.796l-.021-4.536-.021-4.535v-1.118l.042-.97.085-.949c.043-.316.107-.633.149-.949a15.581 15.581 0 013.232-6.94 16.742 16.742 0 012.785-2.679l.787-.569.829-.507 1.935-1.16c2.615-1.561 5.21-3.164 7.697-4.935a1.996 1.996 0 00.511-2.7c-.532-.823-1.616-1.097-2.509-.718-2.807 1.161-5.529 2.489-8.229 3.839-.68.359-1.34.675-2.041 1.055l-1.127.654-1.084.717c-1.404 1.013-2.68 2.236-3.806 3.565a20.743 20.743 0 00-4.423 9.323c-.064.422-.149.865-.213 1.287l-.127 1.286-.043 1.308v1.139l-.021 4.535-.021 4.535v3.671l-.022.211-.042.443c-.043 1.202-.383 2.32-.851 3.396l-.404.78c-.127.274-.319.485-.467.738-.298.507-.745.907-1.127 1.371-.872.802-1.808 1.54-2.913 2.004-1.085.464-2.233.865-3.423.907l-.447.042c-.149 0-.298-.021-.446-.021l-.872-.021-.872-.147-.446-.064-.426-.126-.85-.253-.808-.38-.404-.169a2.07 2.07 0 01-.362-.232c-.127-.063-.255-.147-.361-.211l-.34-.253c-1.808-1.308-2.913-3.396-3.445-5.948-.276-1.266-.404-2.616-.446-4.008l-.022-1.055v-3.417l-.063-18.14-.022-4.535c0-.802 0-1.371.043-2.025.042-.654.149-1.287.276-1.919a15.809 15.809 0 013.381-6.898 15.299 15.299 0 012.87-2.615c.979-.675 2.424-1.519 3.679-2.3 2.573-1.624 5.124-3.311 7.527-5.167.808-.633 1.063-1.793.425-2.722-.553-.801-1.637-1.054-2.509-.653-2.785 1.223-5.464 2.636-8.101 4.092-1.339.78-2.573 1.392-4.104 2.446a21.6 21.6 0 00-3.869 3.481 20.932 20.932 0 00-4.614 9.218c-.17.843-.319 1.708-.383 2.573-.085.844-.085 1.793-.085 2.489l-.021 4.535a75.791 75.791 0 01-1.085 12.403 73.687 73.687 0 01-3.125 12.044l-7.931 22.633a1.57 1.57 0 01-.085.296c-1.255 5.378-6.698 8.817-12.141 7.699-2.722-.57-5.039-2.131-6.549-4.451-1.595-2.236-2.105-4.978-1.51-7.636zM244.461 4.044h.042c3.636.296 7.208.802 10.78 1.456 3.551.696 7.081 1.603 10.547 2.637 3.444 1.139 6.867 2.404 10.163 3.923.85.337 1.658.76 2.466 1.16.808.4 1.638.78 2.446 1.202 1.594.865 3.231 1.688 4.784 2.637 3.168 1.793 6.208 3.839 9.185 5.927.744.527 1.467 1.097 2.19 1.624.723.549 1.467 1.076 2.169 1.667 1.403 1.16 2.849 2.278 4.231 3.48 5.507 4.788 10.504 10.104 15.394 15.567a1.99 1.99 0 002.551.358 1.969 1.969 0 00.638-2.72c-4.061-6.455-9.291-12.108-14.99-17.213-1.424-1.286-2.913-2.489-4.38-3.712-1.467-1.223-3.019-2.363-4.529-3.523l-2.338-1.645-1.191-.822-1.212-.781-2.424-1.56c-.808-.507-1.658-.971-2.488-1.456-1.637-.992-3.359-1.857-5.06-2.742-.851-.443-1.722-.844-2.594-1.266-.872-.4-1.722-.844-2.615-1.202l-2.658-1.118c-.893-.359-1.808-.675-2.701-1.013-1.786-.696-3.657-1.244-5.485-1.835-3.7-1.076-7.463-1.983-11.312-2.51-3.848-.506-7.718-.696-11.588-.464a2 2 0 00-1.871 1.814c-.043 1.076.765 2.046 1.85 2.13zM221.664 337.595c-3.253.485-5.506 3.501-5.017 6.729.489 3.248 3.529 5.463 6.781 4.978 3.253-.485 5.506-3.502 5.017-6.729-.489-3.248-3.507-5.463-6.781-4.978zM221.53 297.011c-.489-3.227-3.529-5.463-6.782-4.978a5.926 5.926 0 00-5.017 6.75c.489 3.227 3.529 5.463 6.782 4.978 3.252-.506 5.506-3.522 5.017-6.75zM214.605 251.447c-.489-3.227-3.529-5.463-6.782-4.978-3.273.485-5.506 3.501-5.017 6.729.489 3.227 3.529 5.463 6.803 4.978a5.91 5.91 0 004.996-6.729zM84.545 304.078c.404.232.85.337 1.297.337.489 0 .957-.126 1.382-.379l36.975-22.549a2.677 2.677 0 001.276-2.257l-.404-45.161c0-.949-.532-1.814-1.361-2.278a2.65 2.65 0 00-2.679.063L84.46 254.171a2.584 2.584 0 00-1.255 2.405v45.181c-.021.971.51 1.836 1.34 2.321zm3.955-43.284c0-1.835.956-3.522 2.53-4.493l25.791-15.735c1.318-.802 3.019.126 3.041 1.666l.297 32.547a5.246 5.246 0 01-2.53 4.535l-26.11 15.905c-1.318.801-3.04-.148-3.04-1.688v-32.737h.02zM84.545 228.605c.404.232.85.337 1.297.337.489 0 .957-.126 1.382-.379l36.975-22.549a2.677 2.677 0 001.276-2.257l-.404-45.161c0-.949-.532-1.814-1.361-2.278a2.648 2.648 0 00-2.679.064L84.46 178.698a2.574 2.574 0 00-1.255 2.384v45.245c-.021.949.51 1.814 1.34 2.278zm3.955-43.262c0-1.836.956-3.523 2.53-4.493l25.791-15.736c1.318-.801 3.019.127 3.041 1.667l.297 32.546a5.245 5.245 0 01-2.53 4.535l-26.068 15.905c-1.318.801-3.04-.148-3.04-1.688v-32.736H88.5zM84.545 153.152c.404.232.85.337 1.297.337.489 0 .957-.126 1.382-.379l36.975-22.549a2.686 2.686 0 001.276-2.278l-.404-45.16c0-.95-.532-1.815-1.361-2.279a2.65 2.65 0 00-2.679.063L84.46 103.224a2.573 2.573 0 00-1.255 2.384v45.245c-.021.97.51 1.835 1.34 2.299zm3.955-43.284a5.21 5.21 0 012.53-4.471l25.791-15.736c1.318-.801 3.019.127 3.041 1.666l.297 32.547a5.245 5.245 0 01-2.53 4.535l-26.068 15.905c-1.318.801-3.04-.148-3.04-1.688v-32.758H88.5z" fill="#323A45"/><path d="M97.001 123.79c1.53-.633 2.998-1.35 4.444-2.109 1.446-.76 2.849-1.582 4.274-2.426 1.382-.865 2.764-1.73 4.103-2.658 1.34-.928 2.658-1.898 3.913-2.995a1.99 1.99 0 00.531-2.257c-.404-1.034-1.595-1.519-2.636-1.118-1.531.612-3.02 1.35-4.444 2.109-1.446.76-2.871 1.603-4.253 2.426-1.382.865-2.764 1.73-4.103 2.679-1.34.928-2.658 1.898-3.913 2.995a2.005 2.005 0 00-.552 2.257c.425 1.013 1.615 1.519 2.636 1.097zM97.059 199.286c.957-.401 2.573-1.181 3.636-1.73.51-.253 1.127.084 1.169.654.106 1.287.276 3.291.447 4.408.148.865.871 1.604 1.828 1.667 1.063.084 1.999-.717 2.169-1.751.276-1.666.404-3.312.51-4.957.043-.675.064-1.329.085-2.004a2.97 2.97 0 011.361-2.425c.51-.338 1.021-.675 1.531-1.034 1.339-.928 2.658-1.898 3.912-2.995.659-.57.893-1.561.468-2.405-.489-.97-1.701-1.308-2.7-.907a41.809 41.809 0 00-3.551 1.645h-.021a.81.81 0 01-1.17-.675c-.021-.337-.042-.675-.064-.864a38.492 38.492 0 00-.404-3.481c-.148-.865-.871-1.603-1.828-1.666-1.063-.085-1.999.717-2.169 1.751a48.888 48.888 0 00-.489 4.957c-.043.653-.064 1.307-.085 1.961a3.003 3.003 0 01-1.361 2.426c-.361.253-.723.485-1.084.759-.362.253-.723.528-1.085.802-1.127.801-2.232 1.624-3.274 2.531a1.973 1.973 0 00-.468 2.426c.49.928 1.68 1.308 2.637.907zM110.709 267.588c-1.382.527-2.7 1.16-3.997 1.814a60.388 60.388 0 00-3.785 2.151c-1.233.781-2.445 1.561-3.636 2.405-1.19.844-2.36 1.709-3.466 2.7-.595.548-.85 1.413-.531 2.215a2.022 2.022 0 002.615 1.139c1.382-.528 2.7-1.16 3.997-1.835a72.894 72.894 0 003.785-2.131 60.635 60.635 0 003.657-2.383c1.191-.844 2.339-1.709 3.445-2.721.574-.549.829-1.393.531-2.194-.383-1.013-1.552-1.54-2.615-1.16zM97.933 268.596c1.382-.548 2.679-1.181 3.976-1.856a83.07 83.07 0 003.806-2.131 67.236 67.236 0 003.678-2.341c1.191-.844 2.339-1.708 3.423-2.742a2.02 2.02 0 00.511-2.13 2.025 2.025 0 00-2.594-1.224c-1.404.485-2.722 1.139-3.998 1.793-1.275.696-2.551 1.413-3.763 2.194a83.595 83.595 0 00-3.636 2.404c-1.19.844-2.36 1.709-3.466 2.679a2.03 2.03 0 00-.553 2.257 2.002 2.002 0 002.616 1.097zM253.852 434.345c-.042-.148-.063-.295-.127-.422-.021-.021-.021-.042-.043-.063-.042-.127-.127-.232-.191-.338-.021-.042-.043-.063-.064-.084a2.154 2.154 0 00-.276-.338l-.064-.063a1.586 1.586 0 00-.298-.232c-.021-.021-.064-.042-.085-.063-.021-.021-.042-.021-.042-.042l-40.867-24.933a2.55 2.55 0 00-.34-.168c-.021-.021-.042-.021-.064-.021l-.382-.127c-.043 0-.085-.021-.128-.021a2.447 2.447 0 00-.957 0c-.042.021-.085.021-.127.021-.128.042-.255.063-.362.127-.021 0-.064.021-.085.021a2.55 2.55 0 00-.34.168l-14.076 8.585c-1.765 1.076-4.04-.189-4.04-2.236v-17.823c0-.148-.021-.296-.042-.443 0-.042-.021-.085-.021-.127-.043-.147-.064-.274-.128-.422 0-.021-.021-.042-.043-.084a1.347 1.347 0 00-.191-.338.274.274 0 00-.064-.084 2.146 2.146 0 00-.276-.337l-.064-.064a1.628 1.628 0 00-.298-.232c-.021-.021-.063-.042-.085-.063-.021-.021-.042-.021-.063-.042l-40.867-24.932a2.442 2.442 0 00-.34-.169c-.021-.021-.042-.021-.064-.021l-.382-.127c-.043 0-.085-.021-.128-.021a3.491 3.491 0 00-.936 0c-.042 0-.085.021-.127.021-.128.042-.255.063-.362.127-.021 0-.063.021-.085.021a1.66 1.66 0 00-.34.169l-14.607 8.922c-1.765 1.076-4.04-.19-4.04-2.236v-18.224-.064c0-.126-.021-.253-.042-.379a.39.39 0 00-.043-.148c-.043-.127-.064-.253-.128-.38l-.063-.126a1.15 1.15 0 00-.149-.275.444.444 0 00-.085-.126l-.255-.316c-.022-.022-.064-.043-.085-.085-.085-.084-.171-.147-.256-.211-.042-.021-.063-.042-.106-.084a.045.045 0 01-.042-.042L85.22 330.418a2.551 2.551 0 00-.34-.168c-.021-.021-.042-.021-.064-.021l-.383-.127c-.042 0-.085-.021-.127-.021a3.649 3.649 0 00-.957 0c-.042 0-.085.021-.127.021-.128.042-.256.063-.362.106-.021.021-.042.021-.085.042a2.557 2.557 0 00-.34.168L41.526 355.33c-.021.021-.043.021-.043.042-.042.021-.063.042-.085.063a1.61 1.61 0 00-.297.232l-.064.063a2.145 2.145 0 00-.276.338c-.022.042-.043.063-.064.084-.064.106-.128.211-.192.338 0 .021-.02.042-.042.063-.043.148-.107.274-.128.422 0 .042-.021.084-.021.105a3.43 3.43 0 00-.042.464V407.451c0 .148.02.295.042.443 0 .042.021.084.021.127.043.147.085.274.128.421.021.022.021.043.042.085.043.105.107.211.17.316.022.042.043.063.064.106.085.126.17.232.277.337l.064.063c.084.085.19.148.276.232.042.022.064.043.106.064.021.021.043.021.043.042l40.866 24.932c.106.063.234.127.34.169.022.021.043.021.085.021.128.042.234.084.362.127.042 0 .085.021.127.021.15.021.32.042.468.042.149 0 .319-.021.468-.042.042 0 .064-.021.106-.021.149-.043.277-.064.425-.127h.022c.127-.042.234-.105.361-.169l14.607-8.922c1.765-1.076 4.04.19 4.04 2.236v18.224c0 .169.022.317.043.485 0 .043.021.064.021.085.043.147.085.295.149.443 0 .021.021.021.021.042.064.126.128.253.213.38.021.021.021.042.042.063a2.45 2.45 0 00.341.401c.106.084.191.168.318.253.022.021.043.042.086.042.021.021.042.042.063.042l40.867 24.932c.106.064.234.127.34.169.021.021.042.021.064.021.127.042.255.085.361.127.043 0 .085.021.128.021.149.021.319.042.467.042.149 0 .319-.021.468-.042.043-.021.085-.021.128-.021.127-.042.255-.064.383-.127.021 0 .042-.021.063-.021.128-.042.234-.105.341-.169l14.075-8.585c1.765-1.075 4.04.19 4.04 2.236v17.824c0 .148.021.295.043.464 0 .042.021.085.021.127.042.147.085.274.127.422.022.021.022.042.043.063.042.126.128.232.191.358.022.022.043.043.043.085.085.126.17.253.298.358 0 .022.021.021.042.043.106.105.213.189.319.274.021.021.043.042.064.042.021.021.042.042.064.042l40.866 24.932c.106.064.234.127.34.169.021.021.043.021.064.021l.383.127c.042 0 .085.021.127.021.149.021.319.042.468.042.149 0 .319-.021.468-.042.042 0 .085-.021.127-.021.128-.042.255-.063.362-.127.021 0 .042-.021.064-.021.127-.042.233-.105.34-.169l40.866-24.932c.021-.021.043-.042.085-.042.021 0 .021-.021.043-.021.276-.19.489-.422.68-.675l.021-.021c.17-.274.319-.57.383-.907 0-.021 0-.042.021-.042.043-.169.043-.338.043-.507v-49.843c0-.148-.021-.316-.043-.464.085-.148.085-.19.085-.232zM213.05 418.23c0-1.54 1.701-2.489 3.04-1.688l27.365 16.685c1.276.78 1.276 2.594 0 3.354l-9.398 5.737a2 2 0 01-2.551-.401 27.688 27.688 0 00-16.734-9.302c-.978-.147-1.701-.97-1.701-1.94V418.23h-.021zm19.816 41.617v.485c-.191 9.112-8.122 16.031-16.903 15.314a19.286 19.286 0 01-1.829-.296 1.33 1.33 0 01-1.063-1.286V462.8c0-.907.468-1.772 1.255-2.236l15.16-9.239c.701-.422 1.637-.127 1.935.654a21.846 21.846 0 011.445 7.868zm-28.151-43.284c1.318-.801 3.04.148 3.04 1.688v12.445c0 .97-.722 1.793-1.701 1.94a27.775 27.775 0 00-16.648 9.197 1.97 1.97 0 01-2.53.38l-9.377-5.695c-1.276-.781-1.276-2.595 0-3.354l27.216-16.601zm-19.136-12.023v16.39c0 .675-.362 1.328-.957 1.687l-10.652 6.497a26.956 26.956 0 001.169-7.889c0-3.755-.765-7.319-2.126-10.568a1.965 1.965 0 01.786-2.447l8.761-5.336c1.318-.823 3.019.126 3.019 1.666zm-43.907-26.598c1.318-.802 3.04.147 3.04 1.687v12.445c0 .97-.722 1.793-1.701 1.962-6.655 1.033-12.544 4.45-16.733 9.302a2 2 0 01-2.552.401l-9.398-5.738c-1.254-.78-1.254-2.594 0-3.354l27.344-16.705zm-19.668-12.129v16.474a2.57 2.57 0 01-1.276 2.236l-9.057 5.526a.65.65 0 01-.978-.717c.574-2.194.871-4.472.871-6.834 0-3.755-.765-7.32-2.126-10.568a1.965 1.965 0 01.787-2.447l8.76-5.336c1.318-.823 3.019.126 3.019 1.666zm-71.271-9.914l27.364-16.685c1.319-.801 3.04.148 3.04 1.688v12.445c0 .97-.722 1.793-1.679 1.94a27.98 27.98 0 00-10.312 3.818l-.192.127a28.092 28.092 0 00-6.25 5.379 2.001 2.001 0 01-2.552.4l-9.398-5.737c-1.276-.78-1.276-2.616-.021-3.375zm-5.167 43.283v-33.369c0-1.54 1.7-2.489 3.04-1.688l8.76 5.337c.83.506 1.17 1.561.787 2.447a27.351 27.351 0 00-2.126 10.568c0 3.754.765 7.319 2.126 10.588a1.965 1.965 0 01-.786 2.447l-8.76 5.337c-1.34.822-3.041-.106-3.041-1.667zm35.55 24.933c0 1.54-1.7 2.489-3.04 1.687l-27.343-16.685c-1.255-.78-1.255-2.594 0-3.353l9.398-5.738a2.003 2.003 0 012.551.401 27.676 27.676 0 0016.734 9.302c.978.148 1.7.97 1.7 1.941v12.445zm0-30.902c0 1.055-1.169 1.688-2.062 1.097a25.154 25.154 0 01-4.252-3.502c-3.147-3.248-5.486-7.678-6.55-12.065-.276-1.139 1-2.004 2-1.392l9.61 5.864c.787.464 1.255 1.329 1.255 2.236v7.762zm1.276-14.639l-12.842-7.91a1.971 1.971 0 01-.787-2.446 11.69 11.69 0 016.145-6.181c2.721-1.181 5.72-1.814 8.866-1.814 6.57 0 12.46 2.806 16.585 7.256a1.29 1.29 0 01-.298 2.004l-14.883 9.091a2.74 2.74 0 01-2.786 0zm21.433 36.998a2.57 2.57 0 01-1.276 2.236l-13.098 7.994c-1.318.802-3.04-.147-3.04-1.687V411.67c0-.971.723-1.793 1.68-1.941 5.592-.865 10.63-3.417 14.607-7.087.425-.401 1.106-.106 1.106.464v12.466h.021zm2.424-32.948c-.043 8.1-6.4 14.555-14.076 15.377-.914.085-2.658-.042-3.976-.211-1-.126-1.765-.97-1.765-1.961V385.43c0-.907.468-1.751 1.276-2.236l15.16-9.239c.702-.422 1.637-.127 1.935.654a21.59 21.59 0 011.467 7.889c-.021.042-.021.084-.021.126zm-1.382-18.034c-4.21-4.873-10.079-8.269-16.734-9.303a1.981 1.981 0 01-1.7-1.961v-12.445c0-1.54 1.7-2.489 3.04-1.688l27.364 16.685c1.255.78 1.255 2.594 0 3.354l-9.398 5.737a1.996 1.996 0 01-2.572-.379zm4.273 73.341v-33.328c0-1.539 1.701-2.489 3.041-1.687l8.739 5.315a1.966 1.966 0 01.787 2.447 27.247 27.247 0 00-2.127 10.547c0 3.754.766 7.319 2.127 10.589.382.907.042 1.94-.787 2.447l-8.76 5.336c-1.319.823-3.02-.126-3.02-1.666zm35.572 24.911c0 1.54-1.701 2.489-3.04 1.687l-27.365-16.684a1.984 1.984 0 010-3.375l9.398-5.738a2.003 2.003 0 012.552.401c4.21 4.873 10.078 8.269 16.733 9.302.978.148 1.701.971 1.701 1.941v12.466h.021zm0-30.67c0 1.055-1.19 1.688-2.062 1.097a25.975 25.975 0 01-4.338-3.544c-3.21-3.311-5.592-7.867-6.591-12.297-.255-1.139.978-2.025 1.999-1.413l9.738 5.948a2.616 2.616 0 011.276 2.236v7.973h-.022zm1.255-14.87l-12.651-7.721a1.99 1.99 0 01-.702-2.657c.574-1.013 1.297-2.173 1.701-2.637 2.169-2.468 5.146-4.198 8.463-4.873a21.702 21.702 0 014.571-.464c3.274 0 6.4.697 9.207 1.962a22.725 22.725 0 017.356 5.295 1.288 1.288 0 01-.297 2.003l-14.884 9.092c-.829.506-1.914.506-2.764 0zm20.901 37.693c0 .696-.362 1.329-.957 1.688l-12.885 7.867c-1.318.802-3.04-.147-3.04-1.687v-12.445c0-.97.722-1.793 1.679-1.941a27.612 27.612 0 0015.182-7.635v14.153h.021zm2.955-33.622c-.042 8.416-6.846 15.145-14.905 15.609-.723.042-2.083-.085-3.189-.232a1.968 1.968 0 01-1.722-1.962v-10.61c0-.907.468-1.772 1.254-2.236l15.16-9.239c.702-.422 1.638-.126 1.935.654a22.125 22.125 0 011.467 7.889v.127zm-1.382-18.056a27.673 27.673 0 00-16.733-9.302 1.983 1.983 0 01-1.701-1.962v-12.445c0-1.54 1.701-2.489 3.04-1.688l27.365 16.685c1.276.781 1.276 2.595 0 3.354l-9.398 5.737a1.997 1.997 0 01-2.573-.379zm3.742 73.214v-33.369c0-1.54 1.701-2.489 3.041-1.688l8.76 5.337a1.948 1.948 0 01.787 2.447c-1.382 3.248-2.126 6.834-2.126 10.568 0 3.754.765 7.319 2.126 10.588a1.965 1.965 0 01-.787 2.447l-8.76 5.337a1.972 1.972 0 01-3.041-1.667zm35.572 24.933c0 1.54-1.7 2.489-3.04 1.687l-27.365-16.685c-1.254-.78-1.254-2.594 0-3.353l9.398-5.738a2.003 2.003 0 012.552.401c4.21 4.872 10.078 8.269 16.733 9.302.978.148 1.701.97 1.701 1.941v12.445h.021zm0-30.839c0 1.055-1.19 1.688-2.083 1.097a26.465 26.465 0 01-3.827-3.206c-3.169-3.291-5.55-7.762-6.571-12.171-.255-1.118 1-2.004 1.999-1.392l9.207 5.611c.786.485 1.275 1.329 1.275 2.236v7.825zm1.255-14.702l-12.481-7.614c-.808-.485-1.169-1.498-.829-2.363.17-.422.361-.822.574-1.202 1.786-3.333 5.06-5.611 8.76-6.518a22.43 22.43 0 015.358-.633c6.549 0 12.46 2.806 16.563 7.256a1.289 1.289 0 01-.297 2.004l-14.884 9.091a2.751 2.751 0 01-2.764-.021zm34.424 30.543l-27.365 16.685c-1.318.802-3.04-.147-3.04-1.687v-12.445c0-.971.722-1.793 1.701-1.941 6.655-1.033 12.544-4.451 16.733-9.302a2.003 2.003 0 012.552-.401l9.398 5.738a1.939 1.939 0 01.021 3.353zm5.188-9.935c0 1.54-1.701 2.489-3.041 1.688l-8.76-5.337a1.973 1.973 0 01-.787-2.447c1.383-3.248 2.127-6.834 2.127-10.588 0-3.755-.766-7.32-2.127-10.568a1.966 1.966 0 01.787-2.447l8.76-5.336c1.319-.802 3.041.147 3.041 1.687v33.348z" fill="#323A45"/></svg>